<?xml version="1.0" standalone="no"?>
<!DOCTYPE svg PUBLIC "-//W3C//DTD SVG 1.1//EN" "http://www.w3.org/Graphics/SVG/1.1/DTD/svg11.dtd" >
<svg xmlns="http://www.w3.org/2000/svg" xmlns:xlink="http://www.w3.org/1999/xlink" version="1.1">
<metadata>
Created by FontForge 20170731 at Tue Apr 19 21:53:22 2011
 By Aleksey,,,
Copyright (c) 2010 Parachute :, www.parachute.gr.  All rights reserved.
</metadata>
<defs>
<font id="PFRegalDisplayPro-Medium" horiz-adv-x="554" >
  <font-face 
    font-family="PF Regal Display Pro Medium"
    font-weight="500"
    font-stretch="normal"
    units-per-em="1000"
    panose-1="2 0 6 3 0 0 0 2 0 3"
    ascent="750"
    descent="-250"
    x-height="435"
    cap-height="673"
    bbox="-123 -262 1138 898"
    underline-thickness="40"
    underline-position="-180"
    unicode-range="U+0020-2116"
  />
<missing-glyph horiz-adv-x="445" 
d="M2 0v688h441v-688h-441zM54 597v-495h4l134 248l-134 247h-4zM254 350l133 -248h4v494l-4 1zM86 52h273l-136 254zM223 393l136 254h-273z" />
    <glyph glyph-name="f_t" unicode="ft" horiz-adv-x="633" 
d="M625 31q-64 -41 -136 -41q-70 0 -92 31t-22 93v307h-171v-343q0 -27 11.5 -41t26 -16t26 -5t11.5 -10v-6h-262v6q0 7 11.5 10t26 5t26 17.5t11.5 45.5v337h-69v14l70 4q2 129 39 188q67 105 167 105q30 0 53.5 -15.5t23.5 -45.5q0 -21 -16.5 -36t-39.5 -15
q-32 0 -51.5 22.5t-20.5 62.5q-44 -13 -44 -82v-187h173q80 41 95 138h15v-138h132v-15h-131v-318q0 -41 13 -60.5t44 -19.5q33 0 76 20z" />
    <glyph glyph-name="f_f_t" unicode="fft" horiz-adv-x="907" 
d="M204 555v-119h172v15q0 75 18 135q-2 0 -4 -0.5t-3 -0.5q-31 0 -48.5 21t-17.5 50q0 18 5 31q-122 -5 -122 -132zM488 421v-343q0 -27 13 -41t29 -16t29 -5t13 -10v-6h-262v6q0 7 10.5 10t22.5 5.5t22.5 18t10.5 44.5v337h-172v-343q0 -27 11 -41t25 -16t25 -5t11 -10v-6
h-259v6q0 7 11.5 10t26 5t26 17.5t11.5 45.5v337h-69v14l69 4q0 124 68 194t179 70q76 0 94 -44q62 80 150 80q33 0 52 -18.5t19 -45.5q0 -20 -14 -33.5t-36 -13.5q-33 0 -53.5 24t-18.5 61q-44 -13 -44 -82v-195h165q80 41 95 138h15v-138h132v-15h-131v-318
q0 -41 13 -60.5t44 -19.5q33 0 76 20l4 -12q-64 -41 -136 -41q-70 0 -92 31t-22 93v307h-163z" />
    <glyph glyph-name="fj" unicode="fj" horiz-adv-x="563" 
d="M23 435l70 5q0 138 73 216t187 78q41 0 68 -17.5t27 -49.5q0 -18 -15 -31.5t-38 -13.5q-25 0 -45 23t-20 72q-59 -4 -92.5 -43.5t-33.5 -111.5v-126h96q92 0 192 16l4 -4q0 -72 0.5 -216.5t0.5 -216.5q0 -97 -33 -149q-24 -38 -68.5 -66t-91.5 -28q-27 0 -51 15t-24 42
q0 20 16 34.5t39 14.5q31 0 49 -25.5t18 -58.5q34 13 34 64v503q0 16 -3 27.5t-19 22t-44 10.5h-115v-343q0 -27 10.5 -41t23 -16t23 -5t10.5 -10v-6h-255v6q0 7 12 10t26 5t26 17.5t12 45.5v337h-69v14z" />
    <glyph glyph-name="ffj" unicode="ffj" horiz-adv-x="842" 
d="M663 -142v503q0 12 -2 21t-8 19t-20 15t-36 5h-110v-343q0 -34 16.5 -47t33.5 -15t17 -10v-6h-249v6q0 7 11 10t24 5t24 17.5t11 45.5v337h-171v-343q0 -27 10.5 -41t23.5 -16t23.5 -5t10.5 -10v-6h-255v6q0 7 11.5 10t26 5t26 17.5t11.5 45.5v337h-69v14l69 5
q1 120 69 195t185 75q92 0 114 -46q72 70 174 70q42 0 70 -17t28 -50q0 -18 -15 -31.5t-39 -13.5q-33 0 -50.5 28t-14.5 67q-59 -4 -92.5 -43.5t-33.5 -111.5v-126h95q91 0 189 16l4 -4v-433q0 -115 -50 -170q-23 -30 -63.5 -51.5t-79.5 -21.5q-28 0 -51 15t-23 42
q0 20 16 34.5t38 14.5q31 0 49.5 -25.5t18.5 -58.5q33 12 33 64zM205 544v-108h171q0 89 31 154q-27 2 -42.5 22.5t-15.5 50.5q0 19 5 31q-70 0 -109.5 -38t-39.5 -112z" />
    <glyph glyph-name="fb" unicode="fb" horiz-adv-x="883" 
d="M384 -17v652q0 62 -71 62q-50 0 -79.5 -31.5t-29.5 -89.5v-140h105v-15h-105v-343q0 -27 10.5 -41t23 -16t23 -4.5t10.5 -9.5v-7h-255v7q0 7 12 9.5t26 4.5t26 17.5t12 45.5v337h-68v14l69 5q0 127 69 201.5t183 74.5q13 0 20 -1q46 3 126 17l5 -5v-207q0 -81 -14 -138h1
q1 -1 2 -1q59 68 157 68q84 0 145.5 -57.5t61.5 -166.5q0 -98 -55.5 -167t-157.5 -69q-98 0 -151 52q-46 -12 -90 -58h-11zM600 418q-62 -2 -108 -48v-318q49 -38 111 -38q125 0 125 203q0 201 -128 201z" />
    <glyph glyph-name="ffb" unicode="ffb" horiz-adv-x="1167" 
d="M628 724q13 0 20 -1q46 3 126 17l5 -5v-207q0 -81 -14 -138h1l2 -1q59 68 157 68q84 0 145.5 -57.5t61.5 -166.5q0 -98 -55.5 -167t-157.5 -69q-98 0 -151 52q-46 -12 -90 -58h-11v652q0 62 -71 62q-50 0 -79 -32t-29 -90v-147h105v-15h-105v-343q0 -27 10.5 -41t23 -16
t23 -5t10.5 -10v-6h-249v6q0 7 11 10t24 5t24 17.5t11 45.5v337h-172v-343q0 -27 10.5 -41t23.5 -16t23.5 -5t10.5 -10v-6h-255v6q0 7 11.5 10t26 5t26 17.5t11.5 45.5v337h-69v14l69 5q1 121 69 196t186 75q99 0 114 -51q67 64 167 64zM205 544v-108h172q0 89 34 154
q-29 4 -46 24.5t-17 49.5q0 15 6 30q-74 0 -111.5 -35.5t-37.5 -114.5zM883 426q-62 -2 -108 -48v-318q49 -38 111 -38q125 0 125 203q0 201 -128 201z" />
    <glyph glyph-name="fh" unicode="fh" horiz-adv-x="878" 
d="M384 84v551q0 62 -71 62q-50 0 -79.5 -31.5t-29.5 -89.5v-140h105v-15h-105v-343q0 -27 10.5 -41t23 -16t23 -4.5t10.5 -9.5v-7h-255v7q0 7 12 9.5t26 4.5t26 17.5t12 45.5v337h-68v14l69 3q0 127 69 202.5t183 75.5q13 0 20 -1q48 3 127 17l5 -5v-239q0 -79 -15 -122
l5 -1q27 42 69.5 63.5t87.5 21.5q59 0 98 -32t39 -102v-238q0 -34 18.5 -46.5t37 -14.5t18.5 -10v-7h-251v7q0 7 10 9.5t22.5 4.5t22.5 18t10 45v251q0 40 -19 61t-50 21q-29 0 -59 -18t-44 -45v-276q0 -35 16.5 -47.5t33 -14t16.5 -9.5v-7h-252v7q0 7 11.5 9.5t25 4.5
t25 17.5t11.5 45.5z" />
    <glyph glyph-name="ffh" unicode="ffh" horiz-adv-x="1161" 
d="M668 84v559q0 32 -21 46.5t-51 14.5q-49 0 -78.5 -32t-29.5 -89v-147h105v-15h-105v-343q0 -27 10.5 -41t23 -16t23 -5t10.5 -10v-6h-249v6q0 7 11 10t24 5t24 17.5t11 45.5v337h-172v-343q0 -27 10.5 -41t23.5 -16t23.5 -5t10.5 -10v-6h-255v6q0 7 11.5 10t26 5t26 17.5
t11.5 45.5v337h-69v14l69 3q1 122 69 197.5t186 75.5q99 0 114 -51q67 64 167 64q13 0 19 -1q68 8 129 17l4 -5v-247q0 -79 -14 -122h2l2 -1q56 84 158 84q58 0 97.5 -31.5t39.5 -101.5v-238q0 -27 11.5 -41t25 -16t25 -5t11.5 -10v-6h-250v6q0 8 16 10t32 16t16 52v250
q0 39 -18.5 60t-48.5 21t-60 -16.5t-45 -44.5v-276q0 -27 10.5 -41t22.5 -16t22.5 -5t10.5 -10v-6h-251v6q0 7 11.5 10t25 5t25 17.5t11.5 45.5zM205 544v-108h172q0 89 34 154q-63 17 -63 73q0 16 6 31q-74 0 -111.5 -35.5t-37.5 -114.5z" />
    <glyph glyph-name="fk" unicode="fk" horiz-adv-x="855" 
d="M497 238h45l88 92q35 37 35 55q0 12 -11.5 19t-25 9t-25 5.5t-11.5 9.5v8h228v-7q0 -3 -2 -5.5t-7 -4.5t-9.5 -3t-13.5 -2.5t-15 -3.5q-56 -14 -120 -81l-40 -42l121 -195q24 -39 53 -56t45 -20t16 -10v-6h-179q-89 145 -138 222h-34v-139q0 -34 17.5 -48.5t35 -18.5
t17.5 -10v-6h-256v6q0 7 11.5 10.5t25 6t25 18.5t11.5 45v549q0 32 -19.5 47.5t-51.5 15.5q-50 0 -79.5 -32t-29.5 -90v-140h105v-15h-105v-343q0 -27 10.5 -41t23 -16t23 -4.5t10.5 -9.5v-7h-255v7q0 7 12 10t26 5t26 17.5t12 44.5v337h-68v14l69 4q0 127 69 202t183 75
q13 0 20 -1q48 3 127 17l5 -5v-489z" />
    <glyph glyph-name="ffk" unicode="ffk" horiz-adv-x="1139" 
d="M668 643q0 32 -21 46.5t-51 14.5q-49 0 -78.5 -32t-29.5 -89v-147h105v-15h-105v-343q0 -27 10.5 -41t23 -16t23 -5t10.5 -10v-6h-249v6q0 7 11 10t24 5t24 17.5t11 45.5v337h-172v-343q0 -27 10.5 -41t23.5 -16t23.5 -5t10.5 -10v-6h-255v6q0 7 11.5 10t26 5t26 17.5
t11.5 45.5v337h-69v14l69 5q1 121 69 196t186 75q99 0 114 -51q67 64 167 64q13 0 19 -1q68 8 129 17l4 -5v-497h45l88 92q35 37 35 55q0 15 -18 22t-36.5 10.5t-18.5 10.5v8h228v-7q0 -3 -2 -5.5t-7 -4.5t-9.5 -3t-13.5 -2.5t-15 -3.5q-56 -14 -120 -81l-40 -42l121 -195
q24 -39 53 -56t45 -20t16 -10v-6h-179q-89 145 -138 222h-34v-139q0 -34 17.5 -48.5t35 -18.5t17.5 -10v-6h-256v6q0 7 11.5 10.5t25.5 6t25.5 18.5t11.5 45v557zM205 544v-108h172q0 89 34 154q-29 5 -46 24t-17 49q0 15 6 31q-74 0 -111.5 -35.5t-37.5 -114.5z" />
    <glyph glyph-name="f_y" unicode="fy" horiz-adv-x="811" 
d="M248 713q-44 -13 -44 -82v-195h330v-6q0 -6 -15 -9t-29.5 -10.5t-14.5 -26.5q0 -13 6 -25l107 -243h6l84 225q7 17 7 30q0 20 -12.5 30.5t-28 12t-28 5.5t-12.5 12v5h202v-5q0 -8 -12 -11.5t-28.5 -6t-36 -19.5t-31.5 -49l-156 -400q-31 -79 -73.5 -125.5t-106.5 -46.5
q-29 0 -51 16t-22 40q0 23 16 38.5t40 15.5q34 0 55.5 -23t26.5 -52q29 10 56 53t62 132h-14l-172 363q-20 42 -39 53.5t-59 11.5h-57v-343q0 -27 13 -41t29 -16t29 -5t13 -10v-6h-271v6q0 7 11.5 10t26 5t26 17.5t11.5 45.5v337h-69v14l70 3q0 130 37 193q28 47 71 78
t98 31q32 0 54.5 -15t22.5 -46q0 -21 -16.5 -36t-39.5 -15q-31 0 -50.5 24t-21.5 61z" />
    <glyph glyph-name="f_f_y" unicode="ffy" horiz-adv-x="1067" 
d="M488 436h302v-6q0 -8 -9.5 -11t-21 -4t-21 -8t-9.5 -21q0 -11 29 -75l86 -197h5l84 228q6 15 6 29q0 20 -12.5 30t-28 11.5t-28 5.5t-12.5 13v5h203v-5q0 -8 -12 -11.5t-28 -6t-35.5 -19.5t-31.5 -49l-155 -400q-31 -80 -74 -126.5t-107 -46.5q-31 0 -53 16.5t-22 42.5
q0 23 16 38.5t38 15.5q35 0 58 -24t27 -53q28 10 59.5 57t58.5 128h-14l-165 354q-23 49 -41 61.5t-55 12.5h-37v-343q0 -27 13 -41t28 -16t28 -5t13 -10v-6h-265v6q0 7 11 10t24 5t24 17.5t11 45.5v337h-171v-343q0 -27 10.5 -41t23.5 -16t23.5 -5t10.5 -10v-6h-255v6
q0 7 11.5 10t26 5t26 17.5t11.5 45.5v337h-69v14l69 3q1 122 69 197.5t186 75.5q94 0 113 -47q70 70 177 70q40 0 67 -17t27 -50q0 -18 -15 -31.5t-38 -13.5q-25 0 -45 23t-20 72q-59 -4 -92 -43.5t-33 -111.5v-126zM205 544v-108h171q0 89 31 154q-27 2 -42.5 22.5
t-15.5 50.5q0 19 5 31q-70 0 -109.5 -38t-39.5 -112z" />
    <glyph glyph-name="k_y" unicode="ky" horiz-adv-x="985" 
d="M83 81v550q0 28 -11 43t-23.5 17t-23.5 5t-11 10v6q30 4 89.5 11t88.5 11l4 -5v-488h42l110 113q22 24 22 36q0 16 -35 23.5t-35 17.5v5h408v-6q0 -7 -30.5 -15t-30.5 -27q0 -14 11 -38l105 -236h5l80 215q9 25 9 42q0 18 -12.5 28.5t-28 13t-28 7t-12.5 11.5v5h204v-5
q0 -8 -12 -11.5t-28.5 -6t-36 -19.5t-31.5 -49q-29 -75 -82 -212t-72 -188q-68 -173 -182 -173q-32 0 -53 16t-21 43q0 23 15.5 38.5t37.5 15.5q36 0 58.5 -23.5t27.5 -53.5q60 19 111 165l7 20h-14l-177 376q-25 52 -53 52q-37 0 -98 -62l-68 -69q28 -44 143 -216
q21 -31 45 -44t37 -15t13 -10v-5h-169l-150 225h-32v-149q0 -32 16 -45t32.5 -15.5t16.5 -9.5v-6h-244v6q0 8 16.5 10.5t33 16t16.5 48.5z" />
    <glyph glyph-name="t_y" unicode="ty" horiz-adv-x="796" 
d="M14 421v15h65q80 41 95 138h15v-138h328v-6q0 -7 -30.5 -15t-30.5 -28q0 -13 13 -41l103 -232h5l80 215q9 25 9 43t-12.5 28t-28 12.5t-28 7t-12.5 11.5v5h204v-5q0 -8 -12 -11.5t-28.5 -6t-36 -19.5t-31.5 -49l-154 -401q-66 -172 -182 -172q-32 0 -53 15.5t-21 42.5
q0 23 15.5 38.5t37.5 15.5q36 0 58.5 -23.5t27.5 -53.5q23 8 51 44.5t50 95.5l17 46h-14l-170 363q-20 42 -39 53.5t-59 11.5h-56v-318q0 -41 13 -60.5t44 -19.5q33 0 76 20l4 -12q-64 -41 -136 -41q-70 0 -92 31t-22 93v307h-63z" />
    <glyph glyph-name="t_w" unicode="tw" horiz-adv-x="1030" 
d="M189 436h325v-6q0 -8 -21.5 -12.5t-33.5 -14.5t2 -57l77 -198h4l69 199q12 31 3.5 46.5t-23.5 18t-29.5 6.5t-14.5 13v5h244v-6q0 -8 -14 -10.5t-27.5 -5t-20 -18.5t8.5 -50l80 -198h5l64 190q13 36 3.5 53t-25.5 20.5t-31.5 7t-15.5 12.5v5h198v-5q0 -8 -12.5 -11.5
t-29 -6t-36 -19.5t-30.5 -49l-125 -353l-15 -2l-139 349h-4l-122 -347l-16 -2l-143 366q-16 42 -38 53.5t-60 11.5h-57v-319q0 -42 13 -61t45 -19q35 0 76 19q3 -10 4 -11q-64 -41 -136 -41q-64 0 -89 26.5t-25 75.5v330h-63v13l66 3q79 47 91 136h18v-137z" />
    <glyph glyph-name="ff" unicode="ff" horiz-adv-x="600" 
d="M532 713q-44 -13 -44 -82v-195h110v-15h-110v-343q0 -27 13 -41t29 -16t29 -5t13 -10v-6h-262v6q0 7 10.5 10t22.5 5.5t22.5 18t10.5 44.5v337h-172v-343q0 -27 11 -41t25 -16t25 -5t11 -10v-6h-259v6q0 7 11.5 10t26 5t26 17.5t11.5 45.5v337h-69v14l69 4q0 124 68 194
t179 70q76 0 94 -44q62 80 150 80q33 0 52 -18.5t19 -45.5q0 -20 -14 -33.5t-36 -13.5q-31 0 -50 25t-22 60zM204 555v-119h172v15q0 75 18 135q-2 0 -4 -0.5t-3 -0.5q-31 0 -48.5 21t-17.5 50q0 18 5 31q-122 -5 -122 -132z" />
    <glyph glyph-name="f_i" unicode="fi" horiz-adv-x="599" 
d="M493 452l4 -4v-372q0 -26 12 -39.5t26 -15.5t26 -5t12 -10v-6h-256v6q0 7 10.5 10t23.5 5.5t23.5 17.5t10.5 42v280q0 16 -3 27.5t-19 22t-44 10.5h-115v-343q0 -27 10.5 -41t23 -16t23 -5t10.5 -10v-6h-255v6q0 7 12 10t26 5t26 17.5t12 45.5v337h-69v14l70 3
q0 138 73 217t187 79q41 0 68 -17.5t27 -49.5q0 -18 -15 -31.5t-38 -13.5q-25 0 -45 23t-20 72q-59 -4 -92.5 -43.5t-33.5 -111.5v-126h96q93 0 193 16z" />
    <glyph glyph-name="f_l" unicode="fl" horiz-adv-x="595" 
d="M384 81v554q0 32 -20 46.5t-51 14.5q-50 0 -79.5 -32t-29.5 -89v-139h105v-15h-105v-343q0 -27 10.5 -41t23 -16t23 -5t10.5 -10v-6h-255v6q0 7 12 10t26 5t26 17.5t12 45.5v337h-69v14l70 3q0 127 69 202.5t183 75.5q13 0 19 -1q50 3 128 17l5 -5v-651q0 -26 12.5 -39.5
t27 -15.5t27 -5t12.5 -10v-6h-260v6q0 8 17 10t34 15.5t17 49.5z" />
    <glyph glyph-name="ffi" unicode="ffi" horiz-adv-x="877" 
d="M771 452l4 -4v-372q0 -26 12 -39.5t26 -15.5t26 -5t12 -10v-6h-255v6q0 8 17 10.5t33.5 16t16.5 48.5v280q0 16 -3 27.5t-19 22t-44 10.5h-110v-343q0 -34 16.5 -47t33.5 -15t17 -10v-6h-249v6q0 7 11 10t24 5t24 17.5t11 45.5v337h-171v-343q0 -27 10.5 -41t23.5 -16
t23.5 -5t10.5 -10v-6h-255v6q0 7 11.5 10t26 5t26 17.5t11.5 45.5v337h-69v14l69 3q1 122 69 197.5t186 75.5q94 0 113 -47q70 70 177 70q40 0 67 -17t27 -50q0 -18 -15 -31.5t-38 -13.5q-25 0 -45 23t-20 72q-59 -4 -92.5 -43.5t-33.5 -111.5v-126h92q92 0 192 16zM205 544
v-108h171q0 89 31 154q-27 2 -42.5 22.5t-15.5 50.5q0 19 5 31q-70 0 -109.5 -38t-39.5 -112z" />
    <glyph glyph-name="ffl" unicode="ffl" horiz-adv-x="879" 
d="M667 81v562q0 32 -20 46.5t-51 14.5q-49 0 -78.5 -32t-29.5 -89v-147h105v-15h-105v-343q0 -27 10.5 -41t23 -16t23 -5t10.5 -10v-6h-249v6q0 7 11 10t24 5t24 17.5t11 45.5v337h-172v-343q0 -27 10.5 -41t23.5 -16t23.5 -5t10.5 -10v-6h-255v6q0 7 11.5 10t26 5t26 17.5
t11.5 45.5v337h-69v14l69 3q1 122 69 197.5t186 75.5q97 0 114 -51q69 64 167 64q13 0 19 -1q61 6 128 17q2 -3 5 -5v-659q0 -26 12.5 -39.5t27 -15.5t27 -5t12.5 -10v-6h-260v6q0 8 17 10t34 16t17 49zM205 544v-108h172q0 88 33 153q-29 2 -45 23t-16 51q0 19 5 31
q-74 0 -111.5 -35.5t-37.5 -114.5z" />
    <glyph glyph-name=".notdef" horiz-adv-x="445" 
d="M2 0v688h441v-688h-441zM54 597v-495h4l134 248l-134 247h-4zM254 350l133 -248h4v494l-4 1zM86 52h273l-136 254zM223 393l136 254h-273z" />
    <glyph glyph-name=".null" horiz-adv-x="0" 
 />
    <glyph glyph-name="nonmarkingreturn" horiz-adv-x="333" 
 />
    <glyph glyph-name="space" unicode=" " horiz-adv-x="252" 
 />
    <glyph glyph-name="exclam" unicode="!" horiz-adv-x="296" 
d="M87 52q0 26 18 44.5t43 18.5q26 0 44.5 -18.5t18.5 -44.5q0 -25 -18.5 -43t-44.5 -18t-43.5 17.5t-17.5 43.5zM156 187h-15l-61 433q-5 30 11 55t56 25t55 -24.5t11 -57.5z" />
    <glyph glyph-name="quotedbl" unicode="&#x22;" horiz-adv-x="329" 
d="M144 656l-39 -215h-14l-40 214q-4 20 8.5 37t37.5 17q26 0 39 -15t8 -38zM277 656l-39 -215h-14l-40 214q-4 20 8.5 37t37.5 17q24 0 37.5 -15.5t9.5 -37.5z" />
    <glyph glyph-name="numbersign" unicode="#" 
d="M309 29l34 198h-173l-34 -198h-24l34 198h-111v23h115l29 167h-115v23h119l33 184h24l-32 -184h172l33 184h25l-32 -184h111v-23h-115l-30 -167h116v-23h-120l-34 -198h-25zM204 417l-30 -167h173l29 167h-172z" />
    <glyph glyph-name="dollar" unicode="$" 
d="M297 -76v807h16v-72q75 -5 121.5 -37t46.5 -78q0 -26 -15 -41.5t-36 -15.5q-30 0 -48.5 22t-18.5 56q0 33 14 66q-28 10 -64 14v-242q35 -17 58 -29t53 -32.5t47.5 -41t30 -49.5t12.5 -62q0 -81 -55.5 -130t-145.5 -61v-74h-16zM248 731v-807h-16v71q-85 5 -137 40.5
t-52 85.5q0 27 16.5 43.5t37.5 16.5q34 0 52 -24t18 -60q0 -39 -18 -67q31 -17 83 -21v302q-39 19 -63 33t-51.5 35.5t-40.5 47.5t-13 57q0 72 46.5 116.5t121.5 56.5v74h16zM415 144q0 74 -102 127v-256q48 10 75 45t27 84zM165 532q0 -51 67 -88v192q-30 -10 -48.5 -37.5
t-18.5 -66.5z" />
    <glyph glyph-name="percent" unicode="%" horiz-adv-x="784" 
d="M575 720l-354 -759h-21l355 759h20zM40 487q0 81 39 138.5t119 57.5q83 0 120 -55.5t37 -139.5q0 -50 -14.5 -92t-51.5 -72.5t-91 -30.5q-82 0 -120 55.5t-38 138.5zM127 488q0 -182 72 -182q70 0 70 182q0 181 -71 181t-71 -181zM427 187q0 81 39 138.5t119 57.5
q83 0 120 -55.5t37 -139.5q0 -50 -14.5 -92t-51.5 -72.5t-91 -30.5q-82 0 -120 55.5t-38 138.5zM514 188q0 -182 72 -182q70 0 70 182q0 181 -71 181t-71 -181z" />
    <glyph glyph-name="ampersand" unicode="&#x26;" horiz-adv-x="792" 
d="M385 -34q-165 0 -250 64t-85 164q0 35 15.5 70.5t46.5 68.5t87.5 56t128.5 27v4q-117 1 -169.5 41.5t-52.5 95.5q0 67 64.5 108t171.5 41q84 0 140.5 -29t56.5 -75q0 -29 -16.5 -44t-38.5 -15q-31 0 -48 22t-17 53t14 59q-33 11 -62 11q-54 -1 -94.5 -37.5t-40.5 -99.5
q0 -120 158 -126l-2 -14q-77 -4 -140 -60.5t-63 -152.5q0 -38 10.5 -73.5t33 -68t65.5 -52t100 -19.5q141 0 216.5 71t75.5 164q0 61 -43.5 108t-109.5 47t-100.5 -31.5t-34.5 -71.5q0 -37 28.5 -61.5t76.5 -24.5q-4 14 -4 27q0 24 13.5 41.5t36.5 17.5q18 0 29 -11t11 -27
q0 -30 -24 -45.5t-58 -15.5q-57 0 -95 28.5t-38 75.5q0 56 38 92t92 51.5t107.5 27t91.5 29.5t38 47q0 21 -18 31.5t-45 10.5q-6 0 -18 -2q4 -16 4 -28q0 -22 -11.5 -37.5t-34.5 -15.5q-15 0 -25.5 9t-10.5 25q0 31 28 47t64 16q47 0 77 -22.5t30 -61.5q0 -35 -34 -68.5
t-113 -49.5q69 -66 69 -155q0 -102 -85.5 -179.5t-236.5 -77.5z" />
    <glyph glyph-name="quotesingle" unicode="'" horiz-adv-x="200" 
d="M146 656l-39 -215h-14l-40 216q-4 20 9 36t37 16q26 0 39 -15t8 -38z" />
    <glyph glyph-name="parenleft" unicode="(" horiz-adv-x="345" 
d="M58 260q0 134 62.5 260.5t179.5 215.5l8 -9q-76 -80 -113.5 -202t-37.5 -255q0 -132 37.5 -253.5t112.5 -204.5l-8 -10q-117 82 -179 203t-62 255z" />
    <glyph glyph-name="parenright" unicode=")" horiz-adv-x="345" 
d="M286 260q0 -134 -62 -255t-180 -203l-8 10q76 83 113.5 204.5t37.5 253.5q0 133 -38 255t-113 202l7 9q117 -89 180 -215.5t63 -260.5z" />
    <glyph glyph-name="asterisk" unicode="*" horiz-adv-x="412" 
d="M211 707q16 0 27 -9.5t11 -24.5q0 -3 -2 -11l-29 -89h-12l-32 89q-2 4 -2 12q0 14 11.5 23.5t27.5 9.5zM93 625q16 0 26 -9l72 -58l-3 -10l-96 -1q-33 0 -33 35q0 18 9.5 30.5t24.5 12.5zM330 625q15 0 24.5 -12.5t9.5 -30.5q0 -35 -33 -35l-95 1l-4 10l72 58q10 9 26 9z
M193 535l8 -7l-26 -90q-7 -24 -30 -24q-19 0 -32.5 11t-13.5 26q0 21 18 33zM223 528l8 7l76 -51q18 -12 18 -33q0 -15 -13.5 -26t-32.5 -11q-23 0 -30 24z" />
    <glyph glyph-name="plus" unicode="+" 
d="M73 281v27h196v193h27v-193h193v-27h-193v-197h-27v197h-196z" />
    <glyph glyph-name="comma" unicode="," horiz-adv-x="239" 
d="M117 117q33 0 51 -23t18 -59q0 -47 -30.5 -107t-74.5 -97l-8 10q35 32 61 80.5t27 85.5q-18 -14 -42 -14q-27 0 -44.5 17t-17.5 45q0 25 17 43.5t43 18.5z" />
    <glyph glyph-name="hyphen" unicode="-" horiz-adv-x="311" 
d="M279 232h-247v31h247v-31z" />
    <glyph glyph-name="period" unicode="." horiz-adv-x="221" 
d="M48 54q0 27 18 45t44 18t44.5 -18t18.5 -45q0 -26 -18.5 -44t-44.5 -18t-44 18t-18 44z" />
    <glyph glyph-name="slash" unicode="/" horiz-adv-x="298" 
d="M296 724l-270 -774h-26l271 774h25z" />
    <glyph glyph-name="zero" unicode="0" 
d="M37 331q0 64 13.5 122.5t41 108t75.5 79t110 29.5q65 0 113.5 -28.5t75 -78t38.5 -107t12 -124.5q0 -50 -8 -97.5t-26 -93t-45 -79t-68 -54t-92 -20.5q-64 0 -112 29t-75 78.5t-40 108.5t-13 127zM160 331q0 -148 28 -239t90 -91q116 0 116 329q0 76 -5.5 132.5
t-18.5 101.5t-36 68.5t-57 23.5q-32 0 -55.5 -26.5t-36.5 -73.5t-19 -102.5t-6 -122.5z" />
    <glyph glyph-name="one" unicode="1" 
d="M332 672l4 -3v-591q0 -27 14 -41t30.5 -16t30.5 -5t14 -10v-6h-291v6q0 7 14 10.5t30.5 6t30.5 18t14 43.5v459q0 34 -12.5 46t-43.5 12q-6 0 -20 -1t-19 -1q-14 0 -15 7l-1 7z" />
    <glyph glyph-name="two" unicode="2" 
d="M100 85h211q47 0 73 3t46.5 18t30 28.5t32.5 51.5q8 12 15 11l6 -1q-6 -20 -28.5 -102t-26.5 -94h-441l-4 8q39 53 91.5 109t92 95t76 83t56 94t19.5 108q0 68 -37 110t-95 42q-52 0 -95 -35q38 -24 38 -73q0 -25 -15 -44t-43 -19q-23 0 -36.5 16t-13.5 38q0 44 51 91
t147 47q112 0 166 -49t54 -117q0 -45 -28 -91.5t-73.5 -88.5t-93.5 -79.5t-98.5 -80.5t-77.5 -76q1 -2 1 -3z" />
    <glyph glyph-name="three" unicode="3" 
d="M252 670q58 0 101 -14.5t65 -38t32 -47t10 -46.5q0 -58 -55 -105.5t-164 -55.5v-5q104 0 177 -46t73 -133q0 -84 -69.5 -137t-170.5 -53q-96 0 -158 40t-62 103q0 37 27.5 65t72.5 35l8 -9q-14 -31 -14 -74q0 -63 31 -105.5t88 -42.5q65 0 95.5 49.5t30.5 119.5
q0 85 -48.5 129.5t-128.5 44.5q-20 0 -47 -3l-4 14q99 24 147.5 65.5t48.5 111.5q0 56 -32 88t-81 32q-47 0 -78 -25q27 -27 27 -67q0 -25 -15 -44t-44 -19q-23 0 -37.5 14t-14.5 37q0 43 48 82.5t141 39.5z" />
    <glyph glyph-name="four" unicode="4" 
d="M433 197h94v-16h-94v-100q0 -28 14.5 -42.5t32 -17t32 -6t14.5 -10.5v-5h-300v5q0 7 14.5 10.5t32 6t32 18.5t14.5 45v96h-292v14q136 195 269 464h139l-30 -50q-86 -125 -186 -235.5t-175 -176.5h275v172q65 15 109 57q3 0 5 -1v-228z" />
    <glyph glyph-name="five" unicode="5" 
d="M137 648h191q79 0 102.5 9t41.5 47q6 13 14 12l5 -1q-2 -8 -11 -46t-16.5 -71t-11.5 -46q-86 10 -221 10h-92l-30 -207q75 44 162 44q93 0 156 -55t63 -143q0 -90 -65.5 -151.5t-177.5 -61.5q-93 0 -154 40t-61 101q0 38 27 67t73 35l8 -8q-14 -31 -14 -74
q0 -148 117 -148q48 0 78 31.5t39.5 70.5t9.5 86q0 87 -44.5 132.5t-114.5 45.5q-52 0 -105 -28l-12 4z" />
    <glyph glyph-name="six" unicode="6" 
d="M508 211q0 -93 -63 -157.5t-173 -64.5q-117 0 -173.5 66.5t-56.5 173.5q0 151 113 272t278 170l4 -11q-134 -55 -203.5 -165t-69.5 -264q0 -108 24.5 -169t90.5 -61q58 0 83.5 59.5t25.5 146.5q0 73 -33.5 124t-107.5 51q-14 0 -21 -1q-2 8 -2 10q42 19 94 19
q83 0 136.5 -54.5t53.5 -144.5z" />
    <glyph glyph-name="seven" unicode="7" 
d="M508 659l5 -5q-123 -240 -261 -654h-141q158 307 345 569h-209q-81 0 -106.5 -11t-52.5 -57q-9 -16 -20 -14l-4 1l49 181q114 -10 270 -10h125z" />
    <glyph glyph-name="eight" unicode="8" 
d="M470 514q0 -47 -33 -87t-84 -59q50 -29 79 -51t54 -60.5t25 -83.5q0 -82 -65.5 -133.5t-168.5 -51.5q-96 0 -161 43.5t-65 124.5q0 54 36.5 105t102.5 80q-55 37 -84 73t-29 85q0 77 56.5 124.5t146.5 47.5q82 0 136 -42t54 -115zM416 117q0 25 -10 48t-22.5 39.5
t-38 36.5t-42 30.5t-50.5 31t-48 29.5q-64 -57 -64 -162q0 -79 37.5 -124t110.5 -45q55 0 91 32.5t36 83.5zM172 544q0 -28 12 -51.5t40.5 -45.5t48 -34t62.5 -36q52 49 52 135q0 64 -30.5 104.5t-85.5 40.5q-45 0 -72 -29.5t-27 -83.5z" />
    <glyph glyph-name="nine" unicode="9" 
d="M43 451q0 93 63 156t173 63q116 0 173 -68.5t57 -173.5q0 -150 -109 -266t-282 -168l-4 10q138 61 206.5 170.5t68.5 252.5q0 230 -117 230q-58 0 -83.5 -57.5t-25.5 -144.5q0 -70 32.5 -120t104.5 -50q7 0 25 2l3 -10q-43 -19 -95 -19q-84 0 -137 52t-53 141z" />
    <glyph glyph-name="colon" unicode=":" horiz-adv-x="221" 
d="M48 54q0 27 18 45t44 18t44.5 -18t18.5 -45q0 -26 -18.5 -44t-44.5 -18t-44 18t-18 44zM48 342q0 26 18 44.5t44 18.5t44.5 -18.5t18.5 -44.5t-18.5 -44t-44.5 -18t-44 18t-18 44z" />
    <glyph glyph-name="semicolon" unicode=";" horiz-adv-x="221" 
d="M48 342q0 26 18 44.5t44 18.5t44.5 -18.5t18.5 -44.5t-18.5 -44t-44.5 -18t-44 18t-18 44zM106 117q33 0 51 -23t18 -59q0 -47 -31 -107t-75 -97l-9 9q35 32 61.5 81t28.5 86q-20 -14 -43 -14q-26 0 -44 17t-18 45q0 25 17.5 43.5t43.5 18.5z" />
    <glyph glyph-name="less" unicode="&#x3c;" 
d="M499 66l-446 212v21q11 5 205 97t241 113v-30l-406 -190l406 -191v-32z" />
    <glyph glyph-name="equal" unicode="=" 
d="M489 194h-414v26h414v-26zM489 353h-414v26h414v-26z" />
    <glyph glyph-name="greater" unicode="&#x3e;" 
d="M499 278l-446 -212v32q38 17 208.5 97.5t197.5 93.5l-406 190v30q47 -21 241 -113t205 -97v-21z" />
    <glyph glyph-name="question" unicode="?" horiz-adv-x="524" 
d="M111 307q0 33 36.5 72.5t80 70.5t80 71t36.5 75q0 43 -29 63.5t-72 20.5q-37 0 -67 -11q16 -25 16 -60q0 -34 -17.5 -57.5t-50.5 -23.5q-20 0 -35 14.5t-15 39.5q0 52 52.5 83.5t141.5 31.5q53 0 95.5 -10.5t73.5 -41t31 -77.5q0 -35 -25.5 -71t-62 -65t-72.5 -56.5
t-61.5 -56.5t-25.5 -54q0 -41 50 -85l-7 -12q-69 17 -111 55t-42 84zM175 50q0 26 18 44.5t44 18.5t44 -18.5t18 -44.5t-18 -43.5t-44 -17.5t-44 18t-18 43z" />
    <glyph glyph-name="at" unicode="@" horiz-adv-x="973" 
d="M565 187h-5q-53 -58 -141 -58q-46 0 -76.5 24.5t-30.5 69.5q0 49 32 81t75 43.5t95 11.5q25 0 46 -3v57q0 103 -77 103q-39 0 -68 -20q25 -22 25 -55q0 -23 -14 -39t-40 -16q-20 0 -31.5 12.5t-11.5 30.5q0 36 41 68.5t122 32.5q49 0 81.5 -13t47 -38t19.5 -48.5t5 -55.5
v-153q0 -39 11.5 -58t42.5 -19q76 0 131.5 66.5t55.5 164.5q0 157 -111.5 248t-280.5 91q-187 0 -311.5 -118.5t-124.5 -293.5q0 -182 113.5 -300t290.5 -118q86 0 144 18l4 -17q-59 -20 -153 -20q-181 0 -299.5 124t-118.5 310q0 183 128.5 307.5t326.5 124.5
q178 0 294.5 -94.5t116.5 -260.5q0 -111 -66.5 -183t-167.5 -72q-41 0 -75.5 16t-44.5 49zM471 160q25 0 50 13t39 34v137q-1 0 -13.5 0.5t-15.5 0.5q-62 -1 -90.5 -30.5t-28.5 -75.5q0 -38 15.5 -58.5t43.5 -20.5z" />
    <glyph glyph-name="A" unicode="A" horiz-adv-x="737" 
d="M136 115q26 71 80 212t81 212q16 41 16 61q0 27 -22 39t-44 16t-22 12v7h188l219 -581q15 -40 39 -57t40.5 -20t16.5 -11v-5h-290v6q0 7 18 10t35.5 13.5t17.5 33.5q0 11 -8.5 36t-23 62t-20.5 54h-263l-31 -86q-13 -39 -13 -52q0 -31 23.5 -44t47 -16.5t23.5 -11.5v-5
h-239v5q0 7 14.5 11.5t34 9t43.5 27.5t39 62zM323 563l-122 -332h249l-123 332h-4z" />
    <glyph glyph-name="B" unicode="B" horiz-adv-x="701" 
d="M263 656v-281h77q59 0 104 35t45 111q0 62 -41 98.5t-115 36.5h-70zM443 371l-1 -3q107 -11 162 -63t55 -118q0 -34 -13 -65t-41.5 -59.5t-81.5 -45.5t-124 -17h-366v6q0 7 16 10.5t35 7.5t35 25.5t16 60.5v464q0 34 -16 53t-34.5 22t-34.5 6.5t-16 11.5v7h352
q125 0 181 -46t56 -111q0 -58 -50 -96.5t-130 -49.5zM263 359v-239q0 -53 16.5 -79t68.5 -26h14q71 0 115.5 44.5t44.5 125.5q0 48 -17.5 84t-46 54.5t-57 27t-57.5 8.5h-81z" />
    <glyph glyph-name="C" unicode="C" horiz-adv-x="685" 
d="M390 683q100 0 190 -30l31 47h12l9 -246h-6q-8 0 -19 30q-13 36 -24.5 59.5t-35.5 56.5t-61.5 50t-86.5 17q-56 0 -97.5 -27t-66 -75.5t-36.5 -108.5t-12 -132q0 -148 54.5 -233.5t159.5 -85.5q94 0 144.5 50t78.5 142q2 7 4.5 16t4 14t3 11.5t3.5 10l4 7t4 5t5 1.5h5
q-4 -94 -10 -280h-13l-30 47q-112 -40 -217 -40q-161 0 -252 93.5t-91 243.5q0 152 94 254.5t252 102.5z" />
    <glyph glyph-name="D" unicode="D" horiz-adv-x="792" 
d="M33 0v6q0 7 16 10.5t35 7.5t35 25.5t16 60.5v464q0 34 -16 53t-34.5 22t-34.5 6.5t-16 11.5v7h299q180 0 295.5 -85t115.5 -250q0 -41 -9.5 -83t-36.5 -89.5t-69 -83.5t-113 -59.5t-161 -23.5h-322zM263 656v-556q0 -85 83 -85h21q107 0 171 76.5t64 236.5
q0 163 -64.5 245.5t-212.5 82.5h-62z" />
    <glyph glyph-name="E" unicode="E" horiz-adv-x="687" 
d="M351 16h50q89 0 145.5 50t103.5 166q6 17 16 17q1 0 3 -0.5t3 -0.5l-57 -267q-78 19 -209 19h-373v6q0 7 16 11t35.5 7.5t35.5 25t16 60.5v464q0 34 -16 53t-35.5 22t-35.5 6.5t-16 11.5v7h358q131 0 197 27l27 -231h-4l-3 -1q-5 0 -8.5 4.5t-8.5 16t-5 12.5
q-32 88 -77 121.5t-129 33.5h-116v-296h91q41 0 65.5 19.5t30.5 43t11.5 43t13.5 19.5h5v-275h-5q-9 0 -14.5 21t-9.5 45.5t-27.5 45.5t-64.5 21h-96v-246q0 -82 87 -82z" />
    <glyph glyph-name="F" unicode="F" horiz-adv-x="635" 
d="M139 574q0 34 -16.5 53t-35.5 22t-35.5 6.5t-16.5 11.5v7h367q132 0 195 27l27 -230q-4 -2 -7 -2q-2 0 -4 1t-3.5 3l-3 4t-3 5.5t-2.5 6l-3 7.5t-3 7q-40 89 -82.5 121.5t-125.5 32.5h-120v-309h102q33 0 55.5 13t31.5 31.5t13.5 37t9 31.5t11.5 13h5v-275h-6
q-9 0 -14 20.5t-9 45.5t-27.5 45.5t-64.5 20.5h-107v-225q0 -37 16.5 -57.5t36 -24.5t36 -8t16.5 -11v-5h-335v5q0 8 16 12t35 8t35 27t16 64v458z" />
    <glyph glyph-name="G" unicode="G" horiz-adv-x="766" 
d="M398 683q78 0 190 -32l41 48h13l10 -253h-5q-8 0 -11.5 7.5t-11.5 33.5q-57 180 -214 180q-112 0 -167.5 -94t-55.5 -248q0 -321 208 -321q51 0 94 22.5t67 55.5v152q0 30 -16 47.5t-35.5 20.5t-35.5 7.5t-16 11.5v6h306v-6q0 -7 -13.5 -10t-29 -6t-29 -21t-13.5 -51
v-224l-12 -4l-50 37q-130 -53 -224 -53q-159 0 -252 93.5t-93 245.5q0 151 97 253t258 102z" />
    <glyph glyph-name="H" unicode="H" horiz-adv-x="838" 
d="M698 579v-460q0 -43 16.5 -66.5t36 -27.5t36 -8t16.5 -12v-5h-330v5q0 7 15.5 11t33.5 8.5t33.5 26.5t15.5 61v235h-309v-240q0 -26 7.5 -44t19 -26t24.5 -13t24.5 -6t19 -4t7.5 -9v-5h-331v5q0 8 16 12t35 8t35 27.5t16 65.5v460q0 32 -16 50t-35 21t-35 7t-16 11v6h332
v-6q0 -7 -16 -11t-35.5 -7t-35.5 -21t-16 -49v-216h309v215q0 32 -15.5 50t-33.5 21t-33.5 7t-15.5 11v6h329v-6q0 -7 -16 -11t-36 -7t-36 -20.5t-16 -49.5z" />
    <glyph glyph-name="I" unicode="I" horiz-adv-x="417" 
d="M270 579v-472q0 -38 16.5 -58.5t36 -24t36 -7.5t16.5 -12v-5h-334v5q0 7 16 11t34.5 7.5t34.5 24.5t16 59v471q0 32 -16 50t-34.5 21t-34.5 7t-16 11v7h334v-7q0 -7 -16.5 -11t-36 -7t-36 -21t-16.5 -49z" />
    <glyph glyph-name="J" unicode="J" horiz-adv-x="383" 
d="M51 -187q52 26 66.5 72.5t14.5 164.5v528q0 32 -16 50.5t-35.5 21.5t-35.5 6.5t-16 10.5v7h338v-7q0 -7 -16.5 -11t-37 -7t-37 -21t-16.5 -49v-382q0 -205 -67 -288q-98 -124 -205 -124q-28 0 -56 17.5t-28 50.5q0 29 19 46t48 17q33 0 56 -27t24 -76z" />
    <glyph glyph-name="K" unicode="K" horiz-adv-x="758" 
d="M319 335h-59v-229q0 -37 16 -58t34.5 -24.5t34.5 -7.5t16 -11v-5h-328v5q0 8 15.5 11.5t34 7.5t34 27.5t15.5 65.5v461q0 32 -15.5 49.5t-34 21t-34 7.5t-15.5 11v6h330v-6q0 -7 -16 -11t-35.5 -7.5t-35.5 -21t-16 -48.5v-227h80l172 201q34 40 34 62q0 16 -12 25
t-26 10.5t-26 5.5t-12 11v7h265v-6q0 -9 -25 -13.5t-75 -28.5t-97 -77l-126 -141l208 -305q24 -35 50.5 -55t44 -24t29.5 -8t12 -11v-5h-308v6q0 5 9 8.5t20 5t20 8.5t9 19q0 16 -16 40z" />
    <glyph glyph-name="L" unicode="L" horiz-adv-x="685" 
d="M361 16h45q91 0 144 49t105 172q7 16 15 16q2 0 4 -0.5t3 -0.5l-54 -266q-46 14 -182 14h-399v6q0 7 16 10.5t36 7.5t36 25.5t16 60.5v468q0 32 -16 49.5t-35 21t-35 7.5t-16 11v6h335v-6q0 -7 -16.5 -11t-36 -7.5t-36 -21.5t-16.5 -49q0 -67 -0.5 -240t-0.5 -240
q0 -40 20.5 -61t67.5 -21z" />
    <glyph glyph-name="M" unicode="M" horiz-adv-x="957" 
d="M688 607l-2 2l-181 -402l63 -126l-14 -7q-50 58 -145 60q-80 168 -152.5 302.5t-85.5 162.5h-2l-9 -460q0 -1 -0.5 -3.5t-0.5 -3.5q0 -36 12 -60t29 -34t34 -15t29 -8.5t12 -9.5v-5h-249v5q0 7 17.5 12l38.5 11t39.5 35.5t19.5 80.5l10 429q0 33 -16 51.5t-35.5 22.5
t-35.5 8t-16 11v8h217q77 -150 229 -450q35 77 102 226.5t101 223.5h224v-9q0 -7 -16.5 -11t-36 -7.5t-36 -22.5t-16.5 -52l9 -467q1 -36 17.5 -56.5t36 -24.5t35.5 -8t16 -11v-5h-328v5q0 8 15.5 12.5t33.5 8t33.5 24t15.5 57.5q0 205 -12 500z" />
    <glyph glyph-name="N" unicode="N" horiz-adv-x="801" 
d="M262 674l377 -486v342q0 40 -12 66t-29.5 36t-35 15t-29.5 8.5t-12 10.5v7h253v-7q0 -8 -18.5 -12.5t-40 -10.5t-40 -36.5t-18.5 -83.5v-536l-19 -3q-38 49 -209.5 271t-266.5 340v-453q0 -49 18.5 -78t40.5 -35t40.5 -11.5t18.5 -12.5v-5h-252v5q0 7 12 10t29 8t34 15.5
t29 39t12 71.5v424q0 33 -16 52t-35 22.5t-35 7.5t-16 11v8h220z" />
    <glyph glyph-name="O" unicode="O" horiz-adv-x="787" 
d="M44 336q0 147 96 247.5t251 100.5q163 0 257.5 -100t94.5 -246t-96.5 -247.5t-255.5 -101.5q-164 0 -255.5 98.5t-91.5 248.5zM189 337q0 -67 10 -123.5t32.5 -105.5t64 -77t99.5 -28q73 0 120.5 48.5t65 119t17.5 161.5q0 54 -6 101t-20.5 91.5t-37.5 75.5t-59.5 50
t-83.5 19q-71 0 -118.5 -51t-65.5 -122.5t-18 -158.5z" />
    <glyph glyph-name="P" unicode="P" horiz-adv-x="646" 
d="M135 107v467q0 34 -16 53t-34.5 22t-34.5 6.5t-16 11.5v7h309q130 0 205 -51.5t75 -144.5q0 -69 -39.5 -116.5t-97 -67t-127.5 -19.5q-54 0 -95 7v-176q0 -37 16 -58t36 -24.5t36 -7.5t16 -11v-5h-334v5q0 7 16 11t34.5 8t34.5 25t16 58zM264 657v-360q19 -4 52 -4
q78 0 123 49.5t45 132.5q0 86 -49 134t-121 48h-50z" />
    <glyph glyph-name="Q" unicode="Q" horiz-adv-x="787" 
d="M44 336q0 147 96 247.5t251 100.5q163 0 257.5 -100t94.5 -246q0 -142 -92.5 -242.5t-244.5 -105.5q38 -37 129 -28q11 -8 44 -31.5t51 -35t46 -22.5t52 -11q28 0 65 28l9 -10q-33 -37 -74 -61.5t-77 -24.5q-34 0 -76.5 22.5t-80 56t-66 63.5t-44.5 53
q-161 2 -250.5 100.5t-89.5 246.5zM189 337q0 -67 10 -123.5t32.5 -105.5t64 -77t99.5 -28q73 0 120.5 48.5t65 119t17.5 161.5q0 54 -6 101t-20.5 91.5t-37.5 75.5t-59.5 50t-83.5 19q-71 0 -118.5 -51t-65.5 -122.5t-18 -158.5z" />
    <glyph glyph-name="R" unicode="R" horiz-adv-x="731" 
d="M267 657v-321h41q80 0 125.5 44.5t45.5 115.5q0 74 -47.5 117.5t-122.5 43.5h-42zM290 320h-23v-214q0 -37 16.5 -58t36 -24.5t36 -7.5t16.5 -11v-5h-335v5q0 8 16 12t35.5 8t35.5 27.5t16 65.5v460q0 32 -16 50t-35 21t-35 6.5t-16 11.5v7h291q135 0 210.5 -43
t75.5 -133q0 -78 -72.5 -129t-204.5 -51q-4 0 -15 0.5t-14 0.5q42 -50 158 -48l129 -183q28 -39 60 -54.5t49 -18t17 -11.5v-4h-205z" />
    <glyph glyph-name="S" unicode="S" horiz-adv-x="590" 
d="M270 -11q-104 0 -171 37t-67 92q0 29 18 46t41 17q37 0 57 -25t20 -62t-17 -67q47 -23 111 -23q73 0 124.5 39t51.5 102q0 47 -39 83t-95 61t-112 51t-95 66t-39 93q0 88 69.5 136.5t174.5 48.5q92 0 153.5 -34.5t61.5 -87.5q0 -28 -16 -43.5t-39 -15.5q-33 0 -53.5 23
t-20.5 59q0 35 15 68q-45 15 -95 15q-53 0 -91.5 -32.5t-38.5 -86.5q0 -38 39 -69t94.5 -55.5t111.5 -51.5t95 -72.5t39 -104.5q0 -100 -82.5 -153.5t-204.5 -53.5z" />
    <glyph glyph-name="T" unicode="T" horiz-adv-x="664" 
d="M36 695q94 -21 295 -21q210 0 295 22q18 -158 26 -236q-2 -1 -5 -1q-9 0 -15 15l-3 8q-37 104 -77.5 139.5t-131.5 35.5h-26v-552q0 -36 16.5 -56.5t37 -24t37 -8t16.5 -11.5v-5h-338v5q0 7 16 11.5t35.5 8t35.5 24t16 57.5v551h-24q-92 0 -134.5 -39t-77.5 -144
q-5 -15 -17 -15q-2 0 -3 1q18 156 26 235z" />
    <glyph glyph-name="U" unicode="U" horiz-adv-x="823" 
d="M684 283q0 -294 -264 -294q-291 0 -291 250v339q0 32 -15.5 49.5t-34.5 21t-34.5 7.5t-15.5 11v6h333v-6q0 -7 -12.5 -10.5t-28.5 -6t-31.5 -14.5t-20.5 -33q-12 -31 -12 -72v-299q0 -109 42 -165.5t154 -56.5q98 0 155.5 67t57.5 192v277q0 43 -18.5 68t-40.5 30.5
t-40.5 10.5t-18.5 12v6h252v-6q0 -7 -18 -12t-40 -10.5t-40 -30.5t-18 -68v-263z" />
    <glyph glyph-name="V" unicode="V" horiz-adv-x="727" 
d="M410 152l3 -1l148 394q12 28 12 52q0 29 -22 41.5t-44 16t-22 12.5v6h234v-6q0 -7 -14.5 -11t-34.5 -9.5t-45.5 -33.5t-44.5 -76l-211 -544q-2 -1 -9 -1t-9 -1l-244 593q-12 28 -29.5 44.5t-32.5 20t-25.5 7.5t-10.5 12v5h301v-6q0 -7 -12 -10.5t-27 -6t-27 -12.5
t-12 -27q0 -8 10 -36z" />
    <glyph glyph-name="W" unicode="W" horiz-adv-x="1045" 
d="M371 178l5 -1l127 392q5 14 5 29q0 21 -14 33.5t-31 16t-31 8.5t-14 12v6h277v-5q0 -8 -12.5 -12.5t-27.5 -7t-27.5 -14t-12.5 -31.5q0 -14 6 -30l150 -400h2l117 377q10 35 10 48q0 20 -12 33q-10 11 -29.5 16.5t-33 8.5t-13.5 10v7h226v-7q0 -7 -14.5 -10.5t-34 -8
t-42 -27t-35.5 -63.5q-139 -437 -181 -565q-12 0 -18 -1l-120 319q-54 143 -82 219h-2q-33 -98 -94.5 -286.5t-82.5 -250.5q-6 -1 -18 -1l-210 591q-13 38 -38 54.5t-42.5 19.5t-17.5 11v6h297v-7q0 -7 -19.5 -10t-39 -13t-19.5 -34q0 -12 6 -30q124 -359 140 -402z" />
    <glyph glyph-name="X" unicode="X" horiz-adv-x="730" 
d="M444 107l-123 190l-90 -129q-56 -81 -56 -106q0 -17 13 -27t28 -12.5t28 -6.5t13 -11v-5h-250v5q0 7 8.5 10t26 7.5t38.5 14t50 34.5t56 64l126 177l-155 241q-19 30 -40 51.5t-36.5 31t-28.5 15t-19.5 9t-6.5 7.5v6h322v-6q0 -7 -12 -11t-26.5 -7t-26.5 -12t-12 -25
q0 -14 19.5 -47.5t58 -90.5t49.5 -75l87 129q39 58 39 82q0 17 -11 26.5t-24.5 11.5t-24.5 6.5t-11 12.5v6h244v-6q0 -8 -15.5 -13t-39.5 -11.5t-62 -36.5t-74 -81l-99 -140l194 -296q20 -28 43.5 -45t39 -20.5t26.5 -7.5t11 -10v-6h-337v5q0 6 12 10.5t27 7.5t27 12.5
t12 24.5q0 20 -18 47z" />
    <glyph glyph-name="Y" unicode="Y" horiz-adv-x="681" 
d="M392 325l3 1l100 195q29 55 29 81t-21.5 37.5t-43 15.5t-21.5 11v7h237v-7q0 -7 -14 -11.5t-34.5 -9t-48 -29t-49.5 -66.5q-55 -103 -128 -245v-199q0 -37 16.5 -58t36 -24.5t36 -7.5t16.5 -11v-5h-334v5q0 7 16 11t34.5 8t34.5 25t16 58v179l-167 297q-16 28 -35.5 44.5
t-33.5 20.5t-23.5 8t-9.5 11v6h311v-7q0 -6 -12.5 -10t-27 -6.5t-27 -12t-12.5 -24.5q0 -13 8 -26z" />
    <glyph glyph-name="Z" unicode="Z" horiz-adv-x="669" 
d="M457 656h-159q-93 0 -138 -38.5t-79 -142.5q-7 -15 -14 -15q-1 0 -3 0.5t-3 0.5l31 238q75 -25 216 -25h302v-16q-47 -70 -204 -305.5t-224 -336.5h178q104 0 156 44.5t109 182.5q7 16 16 16q1 -1 5 -1q-23 -132 -56 -280q-82 22 -199 22h-370v14q26 37 218 321t218 321z
" />
    <glyph glyph-name="bracketleft" unicode="[" horiz-adv-x="287" 
d="M70 -186v913h187v-15h-88v-885h88v-13h-187z" />
    <glyph glyph-name="backslash" unicode="\" horiz-adv-x="298" 
d="M270 -50l-270 774h25l271 -774h-26z" />
    <glyph glyph-name="bracketright" unicode="]" horiz-adv-x="287" 
d="M217 727v-913h-187v13h88v885h-88v15h187z" />
    <glyph glyph-name="asciicircum" unicode="^" horiz-adv-x="557" 
d="M493 362h-31l-185 299l-184 -299h-29q76 126 204 330h19z" />
    <glyph glyph-name="underscore" unicode="_" horiz-adv-x="500" 
d="M500 -98h-500v24h500v-24z" />
    <glyph glyph-name="grave" unicode="`" horiz-adv-x="502" 
d="M329 519l-5 -10q-91 24 -142.5 66.5t-51.5 70.5q0 15 11 27t30 12q18 0 31 -15t23 -36.5t37 -54t67 -60.5z" />
    <glyph glyph-name="a" unicode="a" horiz-adv-x="505" 
d="M247 449q182 0 182 -169v-198q0 -38 10 -49.5t46 -12.5q0 -1 0.5 -6t0.5 -6q-38 -19 -83 -19q-78 0 -83 66h-4q-63 -67 -163 -67q-52 0 -87.5 28t-35.5 80q0 56 37 93t86.5 50t109.5 13q29 0 54 -3v65q0 119 -90 119q-47 0 -79 -23q29 -23 29 -64q0 -26 -17 -44t-46 -18
q-22 0 -35 14t-13 35q0 41 44.5 78.5t136.5 37.5zM213 21q30 0 58 15.5t46 39.5v158q-16 2 -28 2q-74 0 -108.5 -33.5t-34.5 -88.5q0 -44 17.5 -68.5t49.5 -24.5z" />
    <glyph glyph-name="b" unicode="b" horiz-adv-x="576" 
d="M77 -17v647q0 35 -18 48t-36 15t-18 9v7l179 23l5 -3v-209q0 -81 -14 -138h1l2 -1q59 68 157 68q84 0 145.5 -57.5t61.5 -166.5q0 -98 -55.5 -167t-157.5 -69q-98 0 -151 52q-46 -12 -90 -58h-11zM293 418q-62 -2 -108 -48v-318q49 -38 111 -38q125 0 125 203
q0 201 -128 201z" />
    <glyph glyph-name="c" unicode="c" horiz-adv-x="455" 
d="M281 450q82 0 117 -31t35 -69q0 -23 -14 -39t-36 -16q-28 0 -41.5 17.5t-13.5 44.5q0 35 20 65q-22 8 -47 8q-65 0 -105.5 -55t-40.5 -155q0 -99 39.5 -149t112.5 -50q70 0 126 35l6 -12q-72 -56 -173 -56q-110 0 -171 60t-61 163q0 105 67.5 172t179.5 67z" />
    <glyph glyph-name="d" unicode="d" horiz-adv-x="582" 
d="M284 429q-67 0 -98 -60t-31 -153t32 -145.5t91 -52.5q65 0 111 60v318q-48 33 -105 33zM399 64h-4q-54 -76 -154 -76q-101 0 -154 58t-53 161q0 114 62.5 178t160.5 64q79 0 128 -34q1 0 2.5 0.5t2.5 0.5v215q0 28 -11 42.5t-24.5 16.5t-24.5 5t-11 10v7l178 21l5 -5
v-639q0 -36 18 -49.5t36 -15.5t18 -10v-6q-29 -4 -88 -10t-88 -10l-5 5z" />
    <glyph glyph-name="e" unicode="e" horiz-adv-x="502" 
d="M473 246l-9 -8h-310q0 -108 36.5 -162.5t117.5 -54.5q78 0 146 55l8 -8q-71 -79 -186 -79q-114 0 -178 63.5t-64 165.5q0 99 64 165t169 66q96 0 151 -60t55 -143zM264 435q-47 0 -75.5 -50.5t-33.5 -131.5l204 7v24q0 35 -8 67.5t-30.5 58t-56.5 25.5z" />
    <glyph glyph-name="f" unicode="f" horiz-adv-x="325" 
d="M299 739q31 0 53.5 -15.5t22.5 -44.5q0 -22 -16 -36.5t-39 -14.5q-33 0 -52.5 23t-19.5 62q-44 -13 -44 -82v-195h110v-15h-110v-343q0 -27 13 -41t29 -16t29 -5t13 -10v-6h-271v6q0 7 11.5 10t26 5t26 17.5t11.5 45.5v337h-69v14l70 3v19q2 120 39 178q67 104 167 104z
" />
    <glyph glyph-name="g" unicode="g" horiz-adv-x="507" 
d="M459 406q-21 0 -40 13.5t-25 44.5q-27 -9 -51 -34q47 -21 73 -60t26 -87q0 -70 -55.5 -118.5t-148.5 -48.5q-66 0 -112 23q-22 -7 -40 -24t-18 -30q0 -20 43.5 -27t105 -9t123 -8t105 -32.5t43.5 -74.5q0 -66 -68.5 -114.5t-188.5 -48.5q-103 0 -161 39t-58 94
q0 29 17 49t41 20q25 0 38 -17.5t13 -36.5q0 -58 -52 -83q48 -50 147 -50q69 0 106.5 39t37.5 94q0 32 -23.5 51.5t-59 26.5t-77 12.5t-77 9.5t-59 17t-23.5 35q0 18 19 39t52 34l-1 4q-73 40 -73 131q0 73 55 122t147 49q48 0 91 -15q21 28 52 44.5t61 16.5q24 0 42 -12
t18 -37q0 -19 -13.5 -30t-31.5 -11zM153 282q0 -66 20.5 -110t68.5 -44q84 0 84 158q0 151 -85 151q-46 0 -67 -45.5t-21 -109.5z" />
    <glyph glyph-name="h" unicode="h" horiz-adv-x="582" 
d="M485 316v-238q0 -27 11.5 -41t25.5 -16t25.5 -5t11.5 -10v-6h-251v6q0 8 16 10t32.5 16t16.5 52v250q0 40 -18.5 60.5t-48.5 20.5t-60.5 -17t-44.5 -44v-276q0 -27 10.5 -41t22.5 -16t22.5 -5t10.5 -10v-6h-252v6q0 7 11.5 10t25 5t25 17.5t11.5 45.5v546q0 28 -11 43
t-24.5 17t-24.5 5t-11 10v7l179 21l5 -5v-248q0 -68 -15 -114h2q2 -1 3 -1q27 42 70 63t90 21q57 0 95.5 -32t38.5 -101z" />
    <glyph glyph-name="i" unicode="i" horiz-adv-x="321" 
d="M107 81v266q0 28 -11.5 42.5t-25 16.5t-25 5t-11.5 10v7l180 21l2 -2q2 -2 3 -2v-369q0 -26 12 -39.5t26 -15.5t26 -5t12 -10v-6h-259v6q0 7 11 10t24.5 5t24.5 17t11 43zM158 684q28 0 47.5 -19.5t19.5 -46.5q0 -29 -19.5 -48.5t-47.5 -19.5t-47.5 19.5t-19.5 48.5
q0 27 19.5 46.5t47.5 19.5z" />
    <glyph glyph-name="j" unicode="j" horiz-adv-x="282" 
d="M16 -229q-29 0 -51.5 15t-22.5 43q0 20 16 34.5t38 14.5q33 0 50.5 -24.5t17.5 -59.5q33 12 33 64v489q0 28 -12 42.5t-27 16.5t-27 5t-12 10v7l186 22l4 -5v-430q0 -115 -50 -170q-24 -31 -64 -52.5t-79 -21.5zM148 684q29 0 48.5 -19.5t19.5 -46.5q0 -29 -19.5 -49
t-48.5 -20q-28 0 -47.5 20t-19.5 49q0 26 19.5 46t47.5 20z" />
    <glyph glyph-name="k" unicode="k" horiz-adv-x="556" 
d="M200 730v-492h45l88 92q35 37 35 55q0 15 -18 22t-36.5 10.5t-18.5 10.5v8h228v-7q0 -3 -2 -5.5t-7 -4.5t-9.5 -3t-13.5 -2.5t-15 -3.5q-56 -14 -120 -81l-40 -42l121 -195q24 -39 53 -56t45 -20t16 -10v-6h-179q-89 145 -138 222h-34v-139q0 -34 17.5 -48.5t35 -18.5
t17.5 -10v-6h-256v6q0 7 11.5 10.5t25 6t25 18.5t11.5 45v545q0 27 -11.5 41.5t-25 16.5t-25 5t-11.5 9v7l182 23z" />
    <glyph glyph-name="l" unicode="l" horiz-adv-x="314" 
d="M99 81v550q0 36 -18.5 49t-37.5 15t-19 10v7l183 21l5 -4v-653q0 -26 12.5 -39.5t27.5 -15.5t27.5 -5t12.5 -10v-6h-267v6q0 7 11.5 10t25.5 5t25.5 17t11.5 43z" />
    <glyph glyph-name="m" unicode="m" horiz-adv-x="843" 
d="M307 6q0 7 9.5 10t21.5 5t21.5 17.5t9.5 45.5v251q0 79 -62 79q-29 0 -55 -16t-40 -44v-276q0 -34 15 -47t30.5 -15t15.5 -10v-6h-245v6q0 7 11 10t24.5 5t24.5 17.5t11 45.5v261q0 36 -18 49.5t-36 15.5t-18 10v6l173 23l5 -5q-4 -52 -7 -78h2q1 -1 2 -1q53 84 149 84
q43 0 76.5 -19.5t46.5 -61.5q52 81 145 81q57 0 94 -31.5t37 -101.5v-238q0 -27 11 -41t24 -16t24 -5t11 -10v-6h-242v6q0 8 15 10t30 16t15 52v252q0 38 -16.5 58.5t-44.5 20.5q-63 0 -97 -61q1 -11 1 -36v-240q0 -27 9.5 -41t21.5 -16t21.5 -5t9.5 -10v-6h-236v6z" />
    <glyph glyph-name="n" unicode="n" horiz-adv-x="594" 
d="M497 315v-237q0 -27 11.5 -41t25.5 -16t25.5 -5t11.5 -10v-6h-250v6q0 8 16 10t32 16t16 52v251q0 40 -18 60t-49 20q-30 0 -60 -16.5t-45 -43.5v-277q0 -27 10.5 -41t22.5 -16t22.5 -5t10.5 -10v-6h-251v6q0 7 11.5 10t25 5t25 17.5t11.5 45.5v261q0 36 -18 49.5
t-36 15.5t-18 10v6q16 2 86.5 11t87.5 12l5 -5q-2 -15 -7 -76q3 -1 4 -1q54 81 152 81q60 0 100 -31t40 -102z" />
    <glyph glyph-name="o" unicode="o" horiz-adv-x="553" 
d="M34 220q0 99 65 164.5t176 65.5q118 0 181 -64.5t63 -163.5q0 -98 -65.5 -166t-178.5 -68q-116 0 -178.5 66t-62.5 166zM156 221q0 -42 6 -78.5t19 -70t37.5 -52.5t58.5 -19q62 0 91 64t29 152q0 42 -6 78.5t-19 69t-37.5 51.5t-58.5 19q-42 0 -70.5 -34.5t-39 -80.5
t-10.5 -99z" />
    <glyph glyph-name="p" unicode="p" horiz-adv-x="587" 
d="M432 220q0 93 -32 146t-91 53q-31 0 -62 -14.5t-50 -41.5v-321q49 -33 105 -33q68 0 99 59t31 152zM343 450q96 0 153 -60t57 -162q0 -116 -62 -178t-163 -62q-76 0 -127 34l-5 -1v-158q0 -27 10.5 -41t23.5 -16t23.5 -5t10.5 -10v-6h-251v6q0 7 11.5 10t24.5 5
t24.5 17.5t11.5 45.5v477q0 28 -11.5 42.5t-24.5 16.5t-24.5 5t-11.5 10v7l169 22l5 -5l-7 -74l4 -1q59 81 159 81z" />
    <glyph glyph-name="q" unicode="q" horiz-adv-x="571" 
d="M390 45h-3q-57 -57 -146 -57q-86 0 -146.5 54.5t-60.5 166.5q0 101 57 170t162 69q88 0 143 -52q55 17 95 58h11v-583q0 -35 18 -49.5t36 -18t18 -10.5v-7h-258v7q0 7 18.5 10t37 18.5t18.5 53.5v170zM283 16q58 0 106 51v317q-47 38 -106 38q-128 0 -128 -207
q0 -199 128 -199z" />
    <glyph glyph-name="r" unicode="r" horiz-adv-x="423" 
d="M108 81v270q0 27 -12 41t-26 15.5t-26 5t-12 10.5v6l175 21l5 -5l-7 -101l4 -1q57 107 136 107q30 0 52 -17t22 -44q0 -24 -16 -38.5t-39 -14.5q-28 0 -50 21.5t-22 55.5q-42 -18 -71 -80v-256q0 -26 12.5 -39.5t28 -15.5t28 -5t12.5 -10v-7h-266v7q0 7 18 9t36 15.5
t18 49.5z" />
    <glyph glyph-name="s" unicode="s" horiz-adv-x="431" 
d="M46 318q0 60 47.5 96t126.5 36q70 0 113.5 -24.5t43.5 -65.5q-1 -22 -14.5 -34.5t-31.5 -12.5q-24 0 -40 16.5t-16 42.5q0 29 11 54q-24 9 -51 9q-34 0 -61 -20t-27 -62q0 -26 26.5 -46t63.5 -35.5t74.5 -33.5t64 -48t26.5 -70q0 -64 -57.5 -98t-140.5 -34
q-77 0 -125.5 26t-48.5 67q0 23 14.5 36t34.5 13q27 0 43.5 -17.5t16.5 -45.5q0 -32 -14 -53q27 -12 68 -12t71.5 24t30.5 68q0 34 -39 60.5t-85.5 42.5t-85.5 47t-39 74z" />
    <glyph glyph-name="t" unicode="t" horiz-adv-x="335" 
d="M329 31q-65 -42 -138 -42q-66 0 -90 28t-24 82v321h-63v15l64 3q35 14 62 55.5t35 84.5h14v-142h130v-16h-130v-322q0 -39 13 -58t44 -19q35 0 78 21z" />
    <glyph glyph-name="u" unicode="u" horiz-adv-x="588" 
d="M487 450l4 -4v-357q0 -36 18.5 -49.5t36.5 -15.5t18 -10v-6q-30 -4 -89 -10t-88 -10l-5 5l6 71h-4q-54 -75 -149 -75q-58 0 -98 31.5t-40 101.5v226q0 28 -11 42.5t-24 16.5t-24 5t-11 10v7l178 21q2 -3 5 -5v-343q0 -41 18.5 -62t52.5 -21q58 0 98 66v263q0 28 -11 42.5
t-24 17t-24 5.5t-11 10v6z" />
    <glyph glyph-name="v" unicode="v" horiz-adv-x="540" 
d="M280 436v-7q0 -6 -11 -9.5t-23.5 -5.5t-23.5 -11t-11 -24q0 -12 8 -31l98 -220h2l78 197q11 29 11 47q0 23 -17.5 33.5t-35 13.5t-17.5 10v7h194v-6q0 -6 -12 -9.5t-28.5 -8t-38.5 -27t-38 -60.5l-139 -333h-11l-169 356q-17 35 -39 51.5t-35.5 19.5t-13.5 10v7h272z" />
    <glyph glyph-name="w" unicode="w" horiz-adv-x="770" 
d="M481 346l87 -210h1l62 188q12 36 12 47q0 24 -17.5 34.5t-35 13.5t-17.5 9v8h191v-8q0 -6 -12.5 -9t-29.5 -6.5t-37.5 -24.5t-33.5 -58l-119 -337q-5 -1 -14 -1q-39 89 -140 331h-3q-26 -69 -124 -331h-15l-143 354q-15 37 -36.5 53t-35.5 19.5t-14 11.5v6h260v-8
q0 -6 -10.5 -9t-22.5 -5.5t-22.5 -11.5t-10.5 -25q0 -12 7 -32l81 -212l72 199q7 20 7 36q0 22 -17.5 33.5t-35 17t-17.5 12.5v5h237v-6q0 -7 -9.5 -9.5t-21 -3.5t-21 -11.5t-9.5 -32.5q2 -16 7 -27z" />
    <glyph glyph-name="x" unicode="x" horiz-adv-x="539" 
d="M218 199l-116 166q-19 27 -40 39.5t-31.5 15.5t-10.5 10v6h260v-6q0 -7 -14.5 -10.5t-29 -10.5t-14.5 -22q0 -7 5 -18t15.5 -26.5t18.5 -27.5t22.5 -31t19.5 -27l55 74q23 30 23 51q0 17 -16.5 25t-33.5 12t-17 11v6h202v-6q0 -6 -11.5 -11t-29 -10.5t-46 -26.5
t-55.5 -56l-63 -81q23 -32 65 -91.5t51 -72.5q23 -34 50 -48.5t41.5 -17.5t14.5 -10v-5h-279v5q0 6 30 14.5t30 25.5q0 16 -22 47l-66 94l-66 -88q-19 -26 -19 -41q0 -22 17 -30.5t34.5 -11.5t17.5 -10v-5h-201v4q0 7 14 11t43 18t56 45q14 14 30 34.5t35.5 46.5t30.5 40z
" />
    <glyph glyph-name="y" unicode="y" horiz-adv-x="533" 
d="M82 -225q-34 0 -54.5 16t-20.5 44q0 23 16.5 38t39.5 15q33 0 54.5 -23t26.5 -54q55 26 103 143l13 36h-13l-159 358q-16 35 -38 50.5t-35.5 18.5t-13.5 11v7h269v-7q0 -7 -17 -10t-34.5 -11.5t-17.5 -28.5q0 -10 8 -32l99 -233h3l78 215q11 30 11 45q0 18 -11 28.5
t-24.5 12.5t-24.5 5t-11 9v7h198v-6q0 -5 -13 -8.5t-30.5 -8.5t-40 -29t-38.5 -65l-143 -367q-69 -176 -180 -176z" />
    <glyph glyph-name="z" unicode="z" horiz-adv-x="472" 
d="M302 420h-55q-80 0 -115.5 -23.5t-66.5 -101.5q-5 -14 -14 -14h-6q25 168 25 169q53 -15 160 -15h203v-14l-277 -407h90q41 0 67 6.5t47 27.5t34.5 44.5t36.5 71.5q8 17 14 16q1 0 3 -0.5t3 -0.5l-34 -195q-62 16 -182 16h-215v12q23 34 141 204t141 204z" />
    <glyph glyph-name="braceleft" unicode="{" horiz-adv-x="354" 
d="M230 141v-212q0 -44 19 -71t75 -30v-12q-192 -14 -192 161v190q0 28 -2.5 46.5t-10 38.5t-25 31t-44.5 14v15q24 4 39.5 12.5t24 17.5t12.5 27t5 32.5t1 41.5v116q0 182 192 167v-13q-31 -1 -51.5 -11t-29 -28t-11 -33.5t-2.5 -37.5v-127q0 -157 -132 -168v-4
q132 -11 132 -163z" />
    <glyph glyph-name="bar" unicode="|" horiz-adv-x="318" 
d="M174 -141h-30v885h30v-885z" />
    <glyph glyph-name="braceright" unicode="}" horiz-adv-x="354" 
d="M124 -71v212q0 152 132 163v4q-132 11 -132 168v127q0 22 -2.5 37.5t-11 33.5t-29 28t-51.5 11v13q192 15 192 -167v-116q0 -27 1 -41.5t5 -32.5t12.5 -27t24 -17.5t39.5 -12.5v-15q-27 -3 -44.5 -14t-25 -31t-10 -38.5t-2.5 -46.5v-190q0 -175 -192 -161v12q56 3 75 30
t19 71z" />
    <glyph glyph-name="asciitilde" unicode="~" 
d="M493 356l12 -3q-11 -55 -46 -93.5t-95 -38.5q-38 0 -102 17.5t-90 17.5q-78 0 -107 -55l-13 4q3 19 11 39t23 42t41 36t59 14q31 0 104 -19.5t100 -19.5q35 0 59.5 13t43.5 46z" />
    <glyph glyph-name="exclamdown" unicode="&#xa1;" horiz-adv-x="296" 
d="M141 251h15l57 -431q4 -33 -11 -57.5t-55 -24.5t-56.5 26t-10.5 54zM87 386q0 26 18 44t43 18q26 0 44.5 -18t18.5 -44t-18.5 -44.5t-44.5 -18.5q-25 0 -43 18.5t-18 44.5z" />
    <glyph glyph-name="cent" unicode="&#xa2;" 
d="M471 140l7 -11q-71 -55 -186 -56l-11 -104h-18l12 106q-96 8 -148.5 66.5t-52.5 153.5q0 104 68 170.5t184 66.5l12 99h17l-12 -100q69 -5 99.5 -34t30.5 -62q0 -22 -13.5 -38t-33.5 -16q-53 0 -53 61q0 32 19 63q-23 8 -51 9l-45 -405q16 -4 37 -4q73 0 138 35zM190 298
q0 -152 90 -182q14 132 44 396q-61 -6 -97.5 -62t-36.5 -152z" />
    <glyph glyph-name="sterling" unicode="&#xa3;" 
d="M333 668q67 0 111 -28.5t44 -70.5q0 -26 -15 -41.5t-37 -15.5q-31 0 -45.5 19.5t-14.5 50.5q0 34 15 63q-16 5 -49 5q-60 0 -94.5 -40.5t-34.5 -102.5q0 -68 38 -167h189v-18h-184q12 -34 12 -69q-1 -47 -25.5 -90.5t-71.5 -70.5l1 -4h186q51 0 78 10.5t41.5 31
t37.5 71.5q5 11 12 10l5 -1l-49 -210h-429v16q124 79 124 165q0 54 -40 141h-100v18h92q-32 62 -32 115q0 102 69.5 157.5t165.5 55.5z" />
    <glyph glyph-name="currency" unicode="&#xa4;" 
d="M281 106q-54 0 -110 35l-60 -58l-33 32l59 58q-38 54 -38 111q0 53 38 106l-59 57l35 36l59 -57q57 35 109 35q58 0 107 -30l57 52l35 -34l-55 -55q36 -61 36 -109q0 -53 -37 -110l57 -57l-34 -35l-59 59q-52 -36 -107 -36zM281 409q-53 0 -90 -36t-37 -88
q0 -53 37 -90.5t90 -37.5t90 37.5t37 90.5q0 52 -37 88t-90 36z" />
    <glyph glyph-name="yen" unicode="&#xa5;" 
d="M28 232h498v-17h-196v-130q0 -30 14 -46t30 -18.5t30 -5.5t14 -10v-5h-297v5q0 8 13.5 11t30.5 5t30.5 18t13.5 46v130h-181v17zM526 295h-498v16h170l-122 243q-13 25 -34 53q-10 14 -22.5 22.5t-21 10.5t-14.5 5t-6 9v5h272v-5q0 -7 -10 -10.5t-22.5 -4.5t-22.5 -9
t-10 -23q0 -11 11 -33l125 -248h2l102 220q21 44 21 65q0 13 -9.5 20t-21 7.5t-21 4t-9.5 10.5v6h180v-6q0 -7 -12 -10t-28 -5t-36.5 -19t-35.5 -48q-101 -214 -122 -260h195v-16z" />
    <glyph glyph-name="brokenbar" unicode="&#xa6;" horiz-adv-x="318" 
d="M174 388h-30v356h30v-356zM144 272h30v-413h-30v413z" />
    <glyph glyph-name="section" unicode="&#xa7;" 
d="M177 621l-4 3q-58 -55 -58 -120q0 -45 29 -94.5t70 -94.5t82.5 -89.5t70.5 -94t29 -94.5q0 -49 -38 -97l4 -5q88 50 88 136q0 67 -46 135t-122 145q-36 37 -57.5 62t-43 66.5t-21.5 78.5q0 35 17 63zM321 -14q0 33 -27 74t-66 81.5t-78 83.5t-66 94.5t-27 101.5
q0 115 74 193t201 78q58 0 99.5 -26t41.5 -73q0 -22 -15 -38t-35 -16q-31 0 -48 21t-17 53q0 30 13 56q-22 5 -41 5q-42 0 -68 -20.5t-26 -61.5q0 -31 20.5 -63.5t50.5 -58.5t66 -60t66 -67.5t50.5 -82t20.5 -102.5q0 -105 -76 -186t-213 -81q-57 0 -96 25.5t-39 71.5
q0 25 16.5 40.5t36.5 15.5q32 0 49.5 -22t17.5 -54q0 -29 -14 -57q16 -3 32 -3q41 0 69 20.5t28 57.5z" />
    <glyph glyph-name="dieresis" unicode="&#xa8;" horiz-adv-x="502" 
d="M157 650q23 0 40 -16.5t17 -39.5q0 -24 -17 -40.5t-40 -16.5t-39.5 16.5t-16.5 40.5q0 23 16.5 39.5t39.5 16.5zM343 650q23 0 40 -16.5t17 -39.5q0 -24 -17 -40.5t-40 -16.5q-24 0 -40 16.5t-16 40.5q0 23 16 39.5t40 16.5z" />
    <glyph glyph-name="copyright" unicode="&#xa9;" horiz-adv-x="830" 
d="M419 581q71 0 128 -36q2 3 10.5 18.5t9.5 17.5h9v-150h-5q-9 0 -16 21t-14 46t-37.5 46t-81.5 21q-142 0 -142 -228q0 -101 35.5 -156.5t108.5 -55.5q44 0 74.5 16t43.5 39t20 46.5t12 39.5t12 16h6v-172h-9l-24 40q-72 -42 -144 -42q-106 0 -169.5 64.5t-63.5 166.5
q0 103 65 172.5t172 69.5zM416 15q144 0 241 97t97 236q0 140 -97 237t-241 97q-145 0 -241.5 -97t-96.5 -237q0 -142 93 -237.5t245 -95.5zM416 -8q-164 0 -264 102t-100 254q0 150 104 253.5t260 103.5t260 -103.5t104 -253.5t-104 -253t-260 -103z" />
    <glyph glyph-name="ordfeminine" unicode="&#xaa;" horiz-adv-x="351" 
d="M170 594q120 0 126 -102v-137q0 -22 7 -28.5t32 -7.5q0 -2 0.5 -6t0.5 -7q-33 -14 -60 -14q-51 0 -61 40q-41 -40 -109 -40q-37 0 -62 19t-25 53q0 54 48 79t112 25q13 0 35 -2v38q0 74 -58 74q-28 0 -47 -12q16 -15 16 -41q0 -18 -11.5 -30.5t-33.5 -12.5q-17 0 -26 10
t-9 25q0 27 30 52t95 25zM146 320q43 0 68 33v98q-110 0 -110 -75q0 -26 11 -41t31 -15z" />
    <glyph glyph-name="guillemotleft" unicode="&#xab;" horiz-adv-x="462" 
d="M254 409l9 -8q-100 -152 -126 -194l123 -196l-10 -8l-176 165q-26 24 -26 38q0 15 25 39zM406 409l9 -8q-100 -152 -126 -194l123 -196l-10 -8l-176 165q-26 24 -26 38q0 15 25 39z" />
    <glyph glyph-name="logicalnot" unicode="&#xac;" 
d="M73 281v27h416v-224h-27v197h-389z" />
    <glyph glyph-name="sfthyphen" unicode="&#xad;" horiz-adv-x="311" 
d="M279 232h-247v31h247v-31z" />
    <glyph glyph-name="registered" unicode="&#xae;" horiz-adv-x="586" 
d="M288 451h-17q19 -14 48 -16q13 0 20 1l61 -80q10 -13 24 -20.5t22 -10t8 -5.5v-3h-71q-4 0 -7 0.5t-5.5 0.5t-4.5 1l-3 1.5t-2.5 2.5t-2.5 3t-3 3.5t-3 3.5q-81 105 -91 119h-4v-96q0 -16 10 -22t20 -8t10 -6v-3h-134v3q0 4 20 9t20 27v201q0 16 -10 22.5t-20 8t-10 5.5
v4h122q121 0 121 -74q0 -31 -30 -51.5t-88 -20.5zM257 589v-129h14q30 0 53 18t23 46q0 32 -25.5 48.5t-56.5 16.5h-8zM293 201q-113 0 -182 70.5t-69 174.5t71.5 176t179.5 72q109 0 181 -72t72 -176q0 -102 -72.5 -173.5t-180.5 -71.5zM293 220q101 0 166.5 65.5
t65.5 160.5q0 97 -66 163t-166 66q-99 0 -164.5 -66t-65.5 -163t63.5 -161.5t166.5 -64.5z" />
    <glyph glyph-name="macron" unicode="&#xaf;" horiz-adv-x="508" 
d="M393 610l-6 -65q-114 11 -280 0l4 49q68 11 282 16z" />
    <glyph glyph-name="degree" unicode="&#xb0;" horiz-adv-x="397" 
d="M103 572q0 -39 26.5 -66t65.5 -27q40 0 66.5 27t26.5 66q0 40 -26.5 67t-66.5 27q-39 0 -65.5 -27t-26.5 -67zM75 572q0 51 35 86.5t85 35.5t85.5 -35.5t35.5 -86.5q0 -50 -35.5 -84.5t-85.5 -34.5t-85 34.5t-35 84.5z" />
    <glyph glyph-name="plusminus" unicode="&#xb1;" 
d="M73 285v26h196v189h27v-189h193v-26h-193v-194h-27v194h-196zM73 34h416v-27h-416v27z" />
    <glyph glyph-name="twosuperior" unicode="&#xb2;" horiz-adv-x="360" 
d="M8 300l-3 9q27 33 70.5 72t72.5 64t51 61.5t22 75.5q0 38 -23 62t-60 24q-29 0 -51 -13q21 -17 21 -45q0 -18 -10.5 -31.5t-30.5 -13.5q-18 0 -28 10.5t-10 25.5q0 28 34 56t98 28q77 0 112 -27t35 -67q0 -41 -38 -77.5t-115 -88.5q-54 -36 -88 -70h133q56 0 78.5 11
t43.5 53q5 9 11 8l5 -1l-40 -126h-290z" />
    <glyph glyph-name="threesuperior" unicode="&#xb3;" horiz-adv-x="360" 
d="M191 513v-4q60 -2 97 -30t37 -73q0 -50 -46.5 -81.5t-114.5 -31.5q-63 0 -104 24t-41 61q0 23 19 39t51 22q1 -1 4.5 -4t4.5 -4q-9 -17 -9 -42q0 -35 18 -58.5t52 -23.5q41 0 59.5 27t18.5 66q0 48 -29.5 72.5t-78.5 24.5q-13 0 -36 -3l-2 13q64 15 95 37.5t31 59.5
q0 31 -19.5 47.5t-51.5 16.5q-24 0 -42 -9q16 -16 16 -42q0 -17 -11.5 -30t-30.5 -13q-18 0 -28.5 11t-10.5 26q0 26 32 50t94 24q73 0 106.5 -27t33.5 -59q0 -75 -114 -86z" />
    <glyph glyph-name="acute" unicode="&#xb4;" horiz-adv-x="502" 
d="M184 508l-6 10q40 28 67 61t37 54.5t23 36.5t31 15q20 0 30.5 -11.5t10.5 -27.5q0 -28 -51 -70.5t-142 -67.5z" />
    <glyph glyph-name="mu" unicode="&#xb5;" horiz-adv-x="600" 
d="M499 450l4 -4v-357q0 -36 18.5 -49.5t36.5 -15.5t18 -10v-6q-29 -4 -88.5 -10t-88.5 -10l-5 5l6 71h-4q-27 -38 -68 -56.5t-82 -18.5q-19 0 -34 3v-129q0 -27 10.5 -41t23.5 -15.5t23.5 -4.5t10.5 -10v-7h-251v7q0 7 11.5 9.5t24.5 4.5t24.5 17.5t11.5 45.5
q0 94 -0.5 236.5t-0.5 242.5q0 28 -11 42.5t-24.5 16.5t-24.5 5t-11 10v7l178 21l5 -5v-347q0 -79 75 -79q29 0 57.5 18t46.5 48v263q0 28 -11 42.5t-24 17t-24 5.5t-11 10v6z" />
    <glyph glyph-name="paragraph" unicode="&#xb6;" horiz-adv-x="631" 
d="M251 674h351v-7q0 -7 -15.5 -10t-34 -5t-34 -19t-15.5 -48v-457q0 -70 -13 -123.5t-45 -99.5t-93 -70.5t-149 -24.5q-59 0 -97 25t-38 71q0 28 20 44.5t42 16.5q31 0 46.5 -22t15.5 -54q0 -34 -14 -62q40 0 66 19t37 55.5t14 67t3 75.5v249h-47q-88 0 -144 55t-56 136
q0 79 56.5 133.5t143.5 54.5zM371 657v-638q0 -143 -92 -180l2 -7q46 9 77 30t46 51t20.5 59.5t5.5 66.5v618h-59z" />
    <glyph glyph-name="periodcentered" unicode="&#xb7;" horiz-adv-x="253" 
d="M64 258q0 26 18 44.5t44 18.5t44.5 -18.5t18.5 -44.5t-18.5 -44t-44.5 -18t-44 18t-18 44z" />
    <glyph glyph-name="cedilla" unicode="&#xb8;" horiz-adv-x="458" 
d="M242 -1l-23 -65q79 4 119 -21.5t40 -64.5q0 -40 -44.5 -68.5t-125.5 -28.5q-29 0 -46 2v14q65 0 98 24t33 50t-27 42t-77 17l39 102z" />
    <glyph glyph-name="onesuperior" unicode="&#xb9;" horiz-adv-x="321" 
d="M199 683v-334q0 -14 9 -21.5t19.5 -8.5t19.5 -4t9 -9v-6h-196v5q0 6 9 9.5t20 5.5t20 10t9 22v251q0 23 -8.5 28.5t-43.5 5.5q-18 0 -19 6l-1 7l149 36z" />
    <glyph glyph-name="ordmasculine" unicode="&#xba;" horiz-adv-x="382" 
d="M21 444q0 65 45 107.5t124 42.5q81 0 125 -42t44 -107q0 -64 -46 -108.5t-124 -44.5q-81 0 -124.5 43t-43.5 109zM111 445q0 -58 18.5 -98t61.5 -40q41 0 59.5 40t18.5 95q0 58 -18 97.5t-61 39.5q-28 0 -46.5 -21.5t-25.5 -50.5t-7 -62z" />
    <glyph glyph-name="guillemotright" unicode="&#xbb;" horiz-adv-x="462" 
d="M48 401l9 8l181 -164q25 -24 25 -39q0 -14 -26 -38l-176 -165l-10 8l123 196q-100 152 -126 194zM200 401l9 8l181 -164q25 -24 25 -39q0 -14 -26 -38l-176 -165l-10 8l123 196q-100 152 -126 194z" />
    <glyph glyph-name="onequarter" unicode="&#xbc;" horiz-adv-x="784" 
d="M573 720l-354 -759h-21l355 759h20zM206 683v-334q0 -14 9 -21.5t19.5 -8.5t19.5 -4t9 -9v-6h-196v5q0 6 9 9.5t20 5.5t20 10t9 22v251q0 23 -8.5 28.5t-43.5 5.5q-18 0 -19 6l-1 7l149 36zM593 119v90q43 8 78 38h4v-128h61v-15h-61v-55q0 -14 9 -21.5t19.5 -8.5
t19.5 -4.5t9 -9.5v-5h-196v5q0 6 9 9.5t19.5 5.5t19.5 10t9 22v52h-185v12q77 95 170 263h99q-90 -128 -244 -260h160z" />
    <glyph glyph-name="onehalf" unicode="&#xbd;" horiz-adv-x="784" 
d="M550 720l-354 -759h-21l355 759h20zM203 683v-334q0 -14 9 -21.5t19.5 -8.5t19.5 -4t9 -9v-6h-196v5q0 6 9 9.5t20 5.5t20 10t9 22v251q0 23 -8.5 28.5t-43.5 5.5q-18 0 -19 6l-1 7l149 36zM415 0l-3 9q27 33 70.5 72t72.5 64t51 61.5t22 75.5q0 38 -23 62t-60 24
q-29 0 -51 -13q21 -17 21 -45q0 -18 -10.5 -31.5t-30.5 -13.5q-18 0 -28 10.5t-10 25.5q0 28 34 56t98 28q77 0 112 -27t35 -67q0 -41 -38 -77.5t-115 -88.5q-54 -36 -88 -70h133q56 0 78.5 11t43.5 53q5 9 11 8l5 -1l-40 -126h-290z" />
    <glyph glyph-name="threequarters" unicode="&#xbe;" horiz-adv-x="784" 
d="M604 720l-354 -759h-21l355 759h20zM208 513v-4q60 -2 97 -30t37 -73q0 -50 -46.5 -81.5t-114.5 -31.5q-63 0 -104 24t-41 61q0 23 19 39t51 22q1 -1 4.5 -4t4.5 -4q-9 -17 -9 -42q0 -35 18 -58.5t52 -23.5q41 0 59.5 27t18.5 66q0 48 -29.5 72.5t-78.5 24.5
q-14 0 -36 -3l-2 13q64 15 95 37.5t31 59.5q0 31 -19.5 47.5t-51.5 16.5q-24 0 -42 -9q16 -16 16 -42q0 -17 -11.5 -30t-30.5 -13q-18 0 -28.5 11t-10.5 26q0 26 32 50t94 24q73 0 106.5 -27t33.5 -59q0 -75 -114 -86zM606 119v90q43 8 78 38h4v-128h61v-15h-61v-55
q0 -14 9 -21.5t19.5 -8.5t19.5 -4.5t9 -9.5v-5h-196v5q0 6 9 9.5t19.5 5.5t19.5 10t9 22v52h-185v12q77 95 170 263h99q-90 -128 -244 -260h160z" />
    <glyph glyph-name="questiondown" unicode="&#xbf;" horiz-adv-x="524" 
d="M424 129q0 -27 -24 -57.5t-58 -57.5t-68 -54.5t-58 -58.5t-24 -60q0 -43 29 -64t71 -21q32 0 67 11q-16 29 -16 60q0 34 17.5 57.5t50.5 23.5q20 0 35 -14t15 -40q0 -52 -52 -83t-141 -31q-84 0 -142.5 29.5t-58.5 96.5q0 36 25.5 72t62 65.5t73 57t62 56.5t25.5 54
q0 40 -50 85l7 12q69 -17 110.5 -54.5t41.5 -84.5zM360 386q0 -26 -18 -44.5t-43 -18.5q-26 0 -44.5 18.5t-18.5 44.5t18.5 44t44.5 18q25 0 43 -18t18 -44z" />
    <glyph glyph-name="Agrave" unicode="&#xc0;" horiz-adv-x="737" 
d="M136 115q26 71 80 212t81 212q16 41 16 61q0 27 -22 39t-44 16t-22 12v7h188l219 -581q15 -40 39 -57t40.5 -20t16.5 -11v-5h-290v6q0 7 18 10t35.5 13.5t17.5 33.5q0 11 -8.5 36t-23 62t-20.5 54h-263l-31 -86q-13 -39 -13 -52q0 -31 23.5 -44t47 -16.5t23.5 -11.5v-5
h-239v5q0 7 14.5 11.5t34 9t43.5 27.5t39 62zM323 563l-122 -332h249l-123 332h-4zM439 745l-4 -11q-55 5 -99 19.5t-68 31.5t-36 32.5t-12 26.5q0 15 11 26.5t31 11.5q15 0 30 -13.5t28.5 -32.5t45 -45.5t73.5 -45.5z" />
    <glyph glyph-name="Aacute" unicode="&#xc1;" horiz-adv-x="737" 
d="M136 115q26 71 80 212t81 212q16 41 16 61q0 27 -22 39t-44 16t-22 12v7h188l219 -581q15 -40 39 -57t40.5 -20t16.5 -11v-5h-290v6q0 7 18 10t35.5 13.5t17.5 33.5q0 11 -8.5 36t-23 62t-20.5 54h-263l-31 -86q-13 -39 -13 -52q0 -31 23.5 -44t47 -16.5t23.5 -11.5v-5
h-239v5q0 7 14.5 11.5t34 9t43.5 27.5t39 62zM323 563l-122 -332h249l-123 332h-4zM272 732l-4 11q41 20 73 46t46 45t29 32.5t30 13.5q20 0 30.5 -11.5t10.5 -25.5q0 -11 -12 -26.5t-36 -33t-68 -32t-99 -19.5z" />
    <glyph glyph-name="Acircumflex" unicode="&#xc2;" horiz-adv-x="737" 
d="M136 115q26 71 80 212t81 212q16 41 16 61q0 27 -22 39t-44 16t-22 12v7h188l219 -581q15 -40 39 -57t40.5 -20t16.5 -11v-5h-290v6q0 7 18 10t35.5 13.5t17.5 33.5q0 11 -8.5 36t-23 62t-20.5 54h-263l-31 -86q-13 -39 -13 -52q0 -31 23.5 -44t47 -16.5t23.5 -11.5v-5
h-239v5q0 7 14.5 11.5t34 9t43.5 27.5t39 62zM323 563l-122 -332h249l-123 332h-4zM504 721l-153 86l-154 -85l-7 9l116 117q33 33 46 33q15 0 46 -32l113 -120z" />
    <glyph glyph-name="Atilde" unicode="&#xc3;" horiz-adv-x="737" 
d="M136 115q26 71 80 212t81 212q16 41 16 61q0 27 -22 39t-44 16t-22 12v7h188l219 -581q15 -40 39 -57t40.5 -20t16.5 -11v-5h-290v6q0 7 18 10t35.5 13.5t17.5 33.5q0 11 -8.5 36t-23 62t-20.5 54h-263l-31 -86q-13 -39 -13 -52q0 -31 23.5 -44t47 -16.5t23.5 -11.5v-5
h-239v5q0 7 14.5 11.5t34 9t43.5 27.5t39 62zM323 563l-122 -332h249l-123 332h-4zM501 835l8 -3q-8 -41 -32.5 -68.5t-61.5 -27.5q-22 0 -75.5 17.5t-74.5 17.5q-44 0 -69 -41l-9 3q9 39 31.5 70t61.5 31q20 0 76 -19t80 -19q41 0 65 39z" />
    <glyph glyph-name="Adieresis" unicode="&#xc4;" horiz-adv-x="737" 
d="M136 115q26 71 80 212t81 212q16 41 16 61q0 27 -22 39t-44 16t-22 12v7h188l219 -581q15 -40 39 -57t40.5 -20t16.5 -11v-5h-290v6q0 7 18 10t35.5 13.5t17.5 33.5q0 11 -8.5 36t-23 62t-20.5 54h-263l-31 -86q-13 -39 -13 -52q0 -31 23.5 -44t47 -16.5t23.5 -11.5v-5
h-239v5q0 7 14.5 11.5t34 9t43.5 27.5t39 62zM323 563l-122 -332h249l-123 332h-4zM260 849q23 0 40 -16.5t17 -39.5t-17 -40t-40 -17t-39.5 17t-16.5 40t16.5 39.5t39.5 16.5zM446 849q23 0 40 -16.5t17 -39.5t-17 -40t-40 -17q-24 0 -40 16.5t-16 40.5q0 23 16 39.5
t40 16.5z" />
    <glyph glyph-name="Aring" unicode="&#xc5;" horiz-adv-x="737" 
d="M136 115q26 71 80 212t81 212q16 41 16 61q0 27 -22 39t-44 16t-22 12v7h188l219 -581q15 -40 39 -57t40.5 -20t16.5 -11v-5h-290v6q0 7 18 10t35.5 13.5t17.5 33.5q0 11 -8.5 36t-23 62t-20.5 54h-263l-31 -86q-13 -39 -13 -52q0 -31 23.5 -44t47 -16.5t23.5 -11.5v-5
h-239v5q0 7 14.5 11.5t34 9t43.5 27.5t39 62zM323 563l-122 -332h249l-123 332h-4zM355 700q-43 0 -72.5 28.5t-29.5 68.5q0 41 29.5 71t72.5 30q41 0 70.5 -29.5t29.5 -71.5q0 -40 -29.5 -68.5t-70.5 -28.5zM355 873q-31 0 -52.5 -22.5t-21.5 -53.5q0 -30 21.5 -51.5
t52.5 -21.5q29 0 50 22t21 51t-21 52.5t-50 23.5z" />
    <glyph glyph-name="AE" unicode="&#xc6;" horiz-adv-x="1011" 
d="M707 16h19q89 0 145.5 50t103.5 166q6 17 16 17q1 0 3 -0.5t3 -0.5l-57 -267q-78 19 -209 19h-344v6q0 7 15.5 10.5t34 7t35 23.5t18.5 55v156h-240l-113 -156q-23 -32 -23 -55q0 -12 11.5 -18.5t25 -8t25 -4.5t11.5 -9v-7h-205v4q0 9 10 13t27.5 8t48 29t63.5 70
l354 482q-7 21 -23.5 32t-33 13t-29 5.5t-12.5 10.5v7h329q131 0 197 27l27 -231h-4l-3 -1q-5 0 -8.5 4.5t-8.5 16t-5 12.5q-32 88 -77 121.5t-129 33.5h-85v-296h60q41 0 65.5 19.5t30.5 43t11.5 43t13.5 19.5h5v-275h-5q-9 0 -14.5 21t-9.5 45.5t-27.5 45.5t-64.5 21h-65
v-246q0 -82 87 -82zM260 273h230v301q0 10 -1 14l-1 -2z" />
    <glyph glyph-name="Ccedilla" unicode="&#xc7;" horiz-adv-x="685" 
d="M390 683q100 0 190 -30l31 47h12l9 -246h-6q-8 0 -19 30q-13 36 -24.5 59.5t-35.5 56.5t-61.5 50t-86.5 17q-56 0 -97.5 -27t-66 -75.5t-36.5 -108.5t-12 -132q0 -148 54.5 -233.5t159.5 -85.5q94 0 144.5 50t78.5 142q2 7 4.5 16t4 14t3 11.5t3.5 10l4 7t4 5t5 1.5h5
q-4 -94 -10 -280h-13l-30 47q-112 -40 -217 -40q-2 0 -6.5 0.5t-6.5 0.5l-19 -56q79 4 119 -21.5t40 -64.5q0 -40 -44.5 -68.5t-125.5 -28.5q-29 0 -46 2v14q65 0 98 24t33 50t-27 42t-77 17l34 90q-149 8 -232 100t-83 236q0 152 94 254.5t252 102.5z" />
    <glyph glyph-name="Egrave" unicode="&#xc8;" horiz-adv-x="687" 
d="M351 16h50q89 0 145.5 50t103.5 166q6 17 16 17q1 0 3 -0.5t3 -0.5l-57 -267q-78 19 -209 19h-373v6q0 7 16 11t35.5 7.5t35.5 25t16 60.5v464q0 34 -16 53t-35.5 22t-35.5 6.5t-16 11.5v7h358q131 0 197 27l27 -231h-4l-3 -1q-5 0 -8.5 4.5t-8.5 16t-5 12.5
q-32 88 -77 121.5t-129 33.5h-116v-296h91q41 0 65.5 19.5t30.5 43t11.5 43t13.5 19.5h5v-275h-5q-9 0 -14.5 21t-9.5 45.5t-27.5 45.5t-64.5 21h-96v-246q0 -82 87 -82zM397 745l-4 -11q-55 5 -99 19.5t-68 31.5t-36 32.5t-12 26.5q0 15 11 26.5t31 11.5q15 0 30 -13.5
t28.5 -32.5t45 -45.5t73.5 -45.5z" />
    <glyph glyph-name="Eacute" unicode="&#xc9;" horiz-adv-x="687" 
d="M351 16h50q89 0 145.5 50t103.5 166q6 17 16 17q1 0 3 -0.5t3 -0.5l-57 -267q-78 19 -209 19h-373v6q0 7 16 11t35.5 7.5t35.5 25t16 60.5v464q0 34 -16 53t-35.5 22t-35.5 6.5t-16 11.5v7h358q131 0 197 27l27 -231h-4l-3 -1q-5 0 -8.5 4.5t-8.5 16t-5 12.5
q-32 88 -77 121.5t-129 33.5h-116v-296h91q41 0 65.5 19.5t30.5 43t11.5 43t13.5 19.5h5v-275h-5q-9 0 -14.5 21t-9.5 45.5t-27.5 45.5t-64.5 21h-96v-246q0 -82 87 -82zM246 732l-4 11q41 20 73 46t46 45t29 32.5t30 13.5q20 0 30.5 -11.5t10.5 -25.5q0 -11 -12 -26.5
t-36 -33t-68 -32t-99 -19.5z" />
    <glyph glyph-name="Ecircumflex" unicode="&#xca;" horiz-adv-x="687" 
d="M351 16h50q89 0 145.5 50t103.5 166q6 17 16 17q1 0 3 -0.5t3 -0.5l-57 -267q-78 19 -209 19h-373v6q0 7 16 11t35.5 7.5t35.5 25t16 60.5v464q0 34 -16 53t-35.5 22t-35.5 6.5t-16 11.5v7h358q131 0 197 27l27 -231h-4l-3 -1q-5 0 -8.5 4.5t-8.5 16t-5 12.5
q-32 88 -77 121.5t-129 33.5h-116v-296h91q41 0 65.5 19.5t30.5 43t11.5 43t13.5 19.5h5v-275h-5q-9 0 -14.5 21t-9.5 45.5t-27.5 45.5t-64.5 21h-96v-246q0 -82 87 -82zM477 731l-153 86l-154 -85l-7 9l116 117q33 33 46 33q15 0 46 -32l113 -120z" />
    <glyph glyph-name="Edieresis" unicode="&#xcb;" horiz-adv-x="687" 
d="M351 16h50q89 0 145.5 50t103.5 166q6 17 16 17q1 0 3 -0.5t3 -0.5l-57 -267q-78 19 -209 19h-373v6q0 7 16 11t35.5 7.5t35.5 25t16 60.5v464q0 34 -16 53t-35.5 22t-35.5 6.5t-16 11.5v7h358q131 0 197 27l27 -231h-4l-3 -1q-5 0 -8.5 4.5t-8.5 16t-5 12.5
q-32 88 -77 121.5t-129 33.5h-116v-296h91q41 0 65.5 19.5t30.5 43t11.5 43t13.5 19.5h5v-275h-5q-9 0 -14.5 21t-9.5 45.5t-27.5 45.5t-64.5 21h-96v-246q0 -82 87 -82zM228 849q23 0 40 -16.5t17 -39.5t-17 -40t-40 -17t-39.5 17t-16.5 40t16.5 39.5t39.5 16.5zM414 849
q23 0 40 -16.5t17 -39.5t-17 -40t-40 -17q-24 0 -40 16.5t-16 40.5q0 23 16 39.5t40 16.5z" />
    <glyph glyph-name="Igrave" unicode="&#xcc;" horiz-adv-x="407" 
d="M270 579v-472q0 -38 16.5 -58.5t36 -24t36 -7.5t16.5 -12v-5h-334v5q0 7 16 11t34.5 7.5t34.5 24.5t16 59v471q0 32 -16 50t-34.5 21t-34.5 7t-16 11v7h334v-7q0 -7 -16.5 -11t-36 -7t-36 -21t-16.5 -49zM297 745l-4 -11q-55 5 -99 19.5t-68 31.5t-36 32.5t-12 26.5
q0 15 11 26.5t31 11.5q15 0 30 -13.5t28.5 -32.5t45 -45.5t73.5 -45.5z" />
    <glyph glyph-name="Iacute" unicode="&#xcd;" horiz-adv-x="407" 
d="M270 579v-472q0 -38 16.5 -58.5t36 -24t36 -7.5t16.5 -12v-5h-334v5q0 7 16 11t34.5 7.5t34.5 24.5t16 59v471q0 32 -16 50t-34.5 21t-34.5 7t-16 11v7h334v-7q0 -7 -16.5 -11t-36 -7t-36 -21t-16.5 -49zM126 732l-4 11q41 20 73 46t46 45t29 32.5t30 13.5
q20 0 30.5 -11.5t10.5 -25.5q0 -11 -12 -26.5t-36 -33t-68 -32t-99 -19.5z" />
    <glyph glyph-name="Icircumflex" unicode="&#xce;" horiz-adv-x="407" 
d="M270 579v-472q0 -38 16.5 -58.5t36 -24t36 -7.5t16.5 -12v-5h-334v5q0 7 16 11t34.5 7.5t34.5 24.5t16 59v471q0 32 -16 50t-34.5 21t-34.5 7t-16 11v7h334v-7q0 -7 -16.5 -11t-36 -7t-36 -21t-16.5 -49zM359 731l-153 86l-154 -85l-7 9l116 117q33 33 46 33q15 0 46 -32
l113 -120z" />
    <glyph glyph-name="Idieresis" unicode="&#xcf;" horiz-adv-x="407" 
d="M270 579v-472q0 -38 16.5 -58.5t36 -24t36 -7.5t16.5 -12v-5h-334v5q0 7 16 11t34.5 7.5t34.5 24.5t16 59v471q0 32 -16 50t-34.5 21t-34.5 7t-16 11v7h334v-7q0 -7 -16.5 -11t-36 -7t-36 -21t-16.5 -49zM111 849q23 0 40 -16.5t17 -39.5t-17 -40t-40 -17t-39.5 17
t-16.5 40t16.5 39.5t39.5 16.5zM297 849q23 0 40 -16.5t17 -39.5t-17 -40t-40 -17q-24 0 -40 16.5t-16 40.5q0 23 16 39.5t40 16.5z" />
    <glyph glyph-name="Eth" unicode="&#xd0;" horiz-adv-x="779" 
d="M357 0h-319v6q0 9 13.5 12t30 4.5t30 18.5t13.5 50v253h-76v17h76v218q0 32 -13.5 49.5t-30 20t-30 6t-13.5 12.5v7h283q117 0 208.5 -34.5t148.5 -112t57 -189.5q0 -40 -9.5 -81.5t-35.5 -89t-66.5 -83.5t-109.5 -60t-157 -24zM254 659v-298h154v-17h-154v-270
q0 -28 15 -44t55 -16h20q52 0 94.5 16.5t77.5 51.5t54.5 98t19.5 149q0 162 -64.5 246t-211.5 84h-60z" />
    <glyph glyph-name="Ntilde" unicode="&#xd1;" horiz-adv-x="801" 
d="M262 674l377 -486v342q0 40 -12 66t-29.5 36t-35 15t-29.5 8.5t-12 10.5v7h253v-7q0 -8 -18.5 -12.5t-40 -10.5t-40 -36.5t-18.5 -83.5v-536l-19 -3q-38 49 -209.5 271t-266.5 340v-453q0 -49 18.5 -78t40.5 -35t40.5 -11.5t18.5 -12.5v-5h-252v5q0 7 12 10t29 8t34 15.5
t29 39t12 71.5v424q0 33 -16 52t-35 22.5t-35 7.5t-16 11v8h220zM563 851l8 -3q-8 -41 -32.5 -68.5t-61.5 -27.5q-22 0 -75.5 17.5t-74.5 17.5q-44 0 -69 -41l-9 3q9 39 31.5 70t61.5 31q20 0 76 -19t80 -19q41 0 65 39z" />
    <glyph glyph-name="Ograve" unicode="&#xd2;" horiz-adv-x="787" 
d="M44 336q0 147 96 247.5t251 100.5q163 0 257.5 -100t94.5 -246t-96.5 -247.5t-255.5 -101.5q-164 0 -255.5 98.5t-91.5 248.5zM189 337q0 -67 10 -123.5t32.5 -105.5t64 -77t99.5 -28q73 0 120.5 48.5t65 119t17.5 161.5q0 54 -6 101t-20.5 91.5t-37.5 75.5t-59.5 50
t-83.5 19q-71 0 -118.5 -51t-65.5 -122.5t-18 -158.5zM476 748l-4 -11q-55 5 -99 19.5t-68 31.5t-36 32.5t-12 26.5q0 15 11 26.5t31 11.5q15 0 30 -13.5t28.5 -32.5t45 -45.5t73.5 -45.5z" />
    <glyph glyph-name="Oacute" unicode="&#xd3;" horiz-adv-x="787" 
d="M44 336q0 147 96 247.5t251 100.5q163 0 257.5 -100t94.5 -246t-96.5 -247.5t-255.5 -101.5q-164 0 -255.5 98.5t-91.5 248.5zM189 337q0 -67 10 -123.5t32.5 -105.5t64 -77t99.5 -28q73 0 120.5 48.5t65 119t17.5 161.5q0 54 -6 101t-20.5 91.5t-37.5 75.5t-59.5 50
t-83.5 19q-71 0 -118.5 -51t-65.5 -122.5t-18 -158.5zM316 736l-4 11q41 20 73 46t46 45t29 32.5t30 13.5q20 0 30.5 -11.5t10.5 -25.5q0 -11 -12 -26.5t-36 -33t-68 -32t-99 -19.5z" />
    <glyph glyph-name="Ocircumflex" unicode="&#xd4;" horiz-adv-x="787" 
d="M44 336q0 147 96 247.5t251 100.5q163 0 257.5 -100t94.5 -246t-96.5 -247.5t-255.5 -101.5q-164 0 -255.5 98.5t-91.5 248.5zM189 337q0 -67 10 -123.5t32.5 -105.5t64 -77t99.5 -28q73 0 120.5 48.5t65 119t17.5 161.5q0 54 -6 101t-20.5 91.5t-37.5 75.5t-59.5 50
t-83.5 19q-71 0 -118.5 -51t-65.5 -122.5t-18 -158.5zM547 731l-153 86l-154 -85l-7 9l116 117q33 33 46 33q15 0 46 -32l113 -120z" />
    <glyph glyph-name="Otilde" unicode="&#xd5;" horiz-adv-x="787" 
d="M44 336q0 147 96 247.5t251 100.5q163 0 257.5 -100t94.5 -246t-96.5 -247.5t-255.5 -101.5q-164 0 -255.5 98.5t-91.5 248.5zM189 337q0 -67 10 -123.5t32.5 -105.5t64 -77t99.5 -28q73 0 120.5 48.5t65 119t17.5 161.5q0 54 -6 101t-20.5 91.5t-37.5 75.5t-59.5 50
t-83.5 19q-71 0 -118.5 -51t-65.5 -122.5t-18 -158.5zM545 862l8 -3q-8 -41 -32.5 -68.5t-61.5 -27.5q-22 0 -75.5 17.5t-74.5 17.5q-44 0 -69 -41l-9 3q9 39 31.5 70t61.5 31q20 0 76 -19t80 -19q41 0 65 39z" />
    <glyph glyph-name="Odieresis" unicode="&#xd6;" horiz-adv-x="787" 
d="M44 336q0 147 96 247.5t251 100.5q163 0 257.5 -100t94.5 -246t-96.5 -247.5t-255.5 -101.5q-164 0 -255.5 98.5t-91.5 248.5zM189 337q0 -67 10 -123.5t32.5 -105.5t64 -77t99.5 -28q73 0 120.5 48.5t65 119t17.5 161.5q0 54 -6 101t-20.5 91.5t-37.5 75.5t-59.5 50
t-83.5 19q-71 0 -118.5 -51t-65.5 -122.5t-18 -158.5zM296 849q23 0 40 -16.5t17 -39.5t-17 -40t-40 -17t-39.5 17t-16.5 40t16.5 39.5t39.5 16.5zM482 849q23 0 40 -16.5t17 -39.5t-17 -40t-40 -17q-24 0 -40 16.5t-16 40.5q0 23 16 39.5t40 16.5z" />
    <glyph glyph-name="multiply" unicode="&#xd7;" 
d="M103 136l147 147l-145 146l18 19l146 -146l147 147l18 -19l-146 -147q5 -5 40.5 -40t65.5 -65t40 -41l-19 -20l-73.5 73.5t-72.5 73.5l-147 -147z" />
    <glyph glyph-name="Oslash" unicode="&#xd8;" horiz-adv-x="780" 
d="M391 684q110 0 195 -53q2 2 45 64q1 -1 6.5 -4.5t6.5 -4.5q-3 -4 -12 -17t-19.5 -28.5t-12.5 -17.5q69 -46 105.5 -121t36.5 -164q0 -146 -96 -247.5t-255 -101.5q-117 0 -200 53l-50 -71l-13 10q4 6 25 35.5t24 34.5q-66 46 -99.5 120.5t-33.5 164.5q0 147 96 247.5
t251 100.5zM598 332q0 139 -48 221q-26 -39 -161.5 -231t-149.5 -212q51 -108 156 -108q56 0 96.5 27t63 75t33 104.5t10.5 123.5zM391 669q-70 0 -117 -48t-66 -116.5t-19 -150.5q0 -146 42 -226l311 441q-48 100 -151 100z" />
    <glyph glyph-name="Ugrave" unicode="&#xd9;" horiz-adv-x="823" 
d="M684 283q0 -294 -264 -294q-291 0 -291 250v339q0 32 -15.5 49.5t-34.5 21t-34.5 7.5t-15.5 11v6h333v-6q0 -7 -12.5 -10.5t-28.5 -6t-31.5 -14.5t-20.5 -33q-12 -31 -12 -72v-299q0 -109 42 -165.5t154 -56.5q98 0 155.5 67t57.5 192v277q0 43 -18.5 68t-40.5 30.5
t-40.5 10.5t-18.5 12v6h252v-6q0 -7 -18 -12t-40 -10.5t-40 -30.5t-18 -68v-263zM504 745l-4 -11q-55 5 -99 19.5t-68 31.5t-36 32.5t-12 26.5q0 15 11 26.5t31 11.5q15 0 30 -13.5t28.5 -32.5t45 -45.5t73.5 -45.5z" />
    <glyph glyph-name="Uacute" unicode="&#xda;" horiz-adv-x="823" 
d="M684 283q0 -294 -264 -294q-291 0 -291 250v339q0 32 -15.5 49.5t-34.5 21t-34.5 7.5t-15.5 11v6h333v-6q0 -7 -12.5 -10.5t-28.5 -6t-31.5 -14.5t-20.5 -33q-12 -31 -12 -72v-299q0 -109 42 -165.5t154 -56.5q98 0 155.5 67t57.5 192v277q0 43 -18.5 68t-40.5 30.5
t-40.5 10.5t-18.5 12v6h252v-6q0 -7 -18 -12t-40 -10.5t-40 -30.5t-18 -68v-263zM341 732l-4 11q41 20 73 46t46 45t29 32.5t30 13.5q20 0 30.5 -11.5t10.5 -25.5q0 -11 -12 -26.5t-36 -33t-68 -32t-99 -19.5z" />
    <glyph glyph-name="Ucircumflex" unicode="&#xdb;" horiz-adv-x="823" 
d="M684 283q0 -294 -264 -294q-291 0 -291 250v339q0 32 -15.5 49.5t-34.5 21t-34.5 7.5t-15.5 11v6h333v-6q0 -7 -12.5 -10.5t-28.5 -6t-31.5 -14.5t-20.5 -33q-12 -31 -12 -72v-299q0 -109 42 -165.5t154 -56.5q98 0 155.5 67t57.5 192v277q0 43 -18.5 68t-40.5 30.5
t-40.5 10.5t-18.5 12v6h252v-6q0 -7 -18 -12t-40 -10.5t-40 -30.5t-18 -68v-263zM597 731l-153 86l-154 -85l-7 9l116 117q33 33 46 33q15 0 46 -32l113 -120z" />
    <glyph glyph-name="Udieresis" unicode="&#xdc;" horiz-adv-x="823" 
d="M684 283q0 -294 -264 -294q-291 0 -291 250v339q0 32 -15.5 49.5t-34.5 21t-34.5 7.5t-15.5 11v6h333v-6q0 -7 -12.5 -10.5t-28.5 -6t-31.5 -14.5t-20.5 -33q-12 -31 -12 -72v-299q0 -109 42 -165.5t154 -56.5q98 0 155.5 67t57.5 192v277q0 43 -18.5 68t-40.5 30.5
t-40.5 10.5t-18.5 12v6h252v-6q0 -7 -18 -12t-40 -10.5t-40 -30.5t-18 -68v-263zM333 849q23 0 40 -16.5t17 -39.5t-17 -40t-40 -17t-39.5 17t-16.5 40t16.5 39.5t39.5 16.5zM519 849q23 0 40 -16.5t17 -39.5t-17 -40t-40 -17q-24 0 -40 16.5t-16 40.5q0 23 16 39.5t40 16.5
z" />
    <glyph glyph-name="Yacute" unicode="&#xdd;" horiz-adv-x="681" 
d="M392 325l3 1l100 195q29 55 29 81t-21.5 37.5t-43 15.5t-21.5 11v7h237v-7q0 -7 -14 -11.5t-34.5 -9t-48 -29t-49.5 -66.5q-55 -103 -128 -245v-199q0 -37 16.5 -58t36 -24.5t36 -7.5t16.5 -11v-5h-334v5q0 7 16 11t34.5 8t34.5 25t16 58v179l-167 297q-16 28 -35.5 44.5
t-33.5 20.5t-23.5 8t-9.5 11v6h311v-7q0 -6 -12.5 -10t-27 -6.5t-27 -12t-12.5 -24.5q0 -13 8 -26zM276 732l-4 11q41 20 73 46t46 45t29 32.5t30 13.5q20 0 30.5 -11.5t10.5 -25.5q0 -11 -12 -26.5t-36 -33t-68 -32t-99 -19.5z" />
    <glyph glyph-name="Thorn" unicode="&#xde;" horiz-adv-x="643" 
d="M263 579v-31q49 7 92 7q50 0 94.5 -10.5t84 -33t62.5 -62t23 -92.5q0 -101 -76.5 -152t-186.5 -51q-59 0 -93 5v-52q0 -38 16.5 -58.5t36 -24t36 -7.5t16.5 -12v-5h-335v5q0 6 7.5 9t19 4t24.5 6t24.5 13t19 26t7.5 44v471q0 32 -16 50t-35 21t-35 7t-16 11v7h335v-7
q0 -7 -16.5 -11t-36 -7t-36 -21t-16.5 -49zM317 537q-38 0 -54 -4v-358q20 -5 55 -5q73 0 117 52t44 133t-42.5 131.5t-119.5 50.5z" />
    <glyph glyph-name="germandbls" unicode="&#xdf;" horiz-adv-x="594" 
d="M298 732q98 0 151 -46.5t53 -112.5q0 -59 -48 -106t-133 -53v-4q120 -4 177.5 -65t57.5 -140q0 -90 -58.5 -154.5t-159.5 -64.5q-45 0 -78.5 19.5t-33.5 57.5q0 21 14.5 34t33.5 13q24 0 41 -22.5t17 -53.5q0 -18 -9 -30q113 10 113 197q0 88 -41.5 143t-128.5 57l-2 13
q127 25 127 163q0 69 -30 105t-72 36q-98 0 -98 -135v-578l-5 -5h-181v7q0 7 18.5 9t37 15.5t18.5 49.5v407q0 110 60 177t159 67z" />
    <glyph glyph-name="agrave" unicode="&#xe0;" horiz-adv-x="505" 
d="M247 449q182 0 182 -169v-198q0 -38 10 -49.5t46 -12.5q0 -1 0.5 -6t0.5 -6q-38 -19 -83 -19q-78 0 -83 66h-4q-63 -67 -163 -67q-52 0 -87.5 28t-35.5 80q0 56 37 93t86.5 50t109.5 13q29 0 54 -3v65q0 119 -90 119q-47 0 -79 -23q29 -23 29 -64q0 -26 -17 -44t-46 -18
q-22 0 -35 14t-13 35q0 41 44.5 78.5t136.5 37.5zM213 21q30 0 58 15.5t46 39.5v158q-16 2 -28 2q-74 0 -108.5 -33.5t-34.5 -88.5q0 -44 17.5 -68.5t49.5 -24.5zM333 519l-5 -10q-91 24 -142.5 66.5t-51.5 70.5q0 15 11 27t30 12q18 0 31 -15t23 -36.5t37 -54t67 -60.5z
" />
    <glyph glyph-name="aacute" unicode="&#xe1;" horiz-adv-x="505" 
d="M247 449q182 0 182 -169v-198q0 -38 10 -49.5t46 -12.5q0 -1 0.5 -6t0.5 -6q-38 -19 -83 -19q-78 0 -83 66h-4q-63 -67 -163 -67q-52 0 -87.5 28t-35.5 80q0 56 37 93t86.5 50t109.5 13q29 0 54 -3v65q0 119 -90 119q-47 0 -79 -23q29 -23 29 -64q0 -26 -17 -44t-46 -18
q-22 0 -35 14t-13 35q0 41 44.5 78.5t136.5 37.5zM213 21q30 0 58 15.5t46 39.5v158q-16 2 -28 2q-74 0 -108.5 -33.5t-34.5 -88.5q0 -44 17.5 -68.5t49.5 -24.5zM181 508l-6 10q40 28 67 61t37 54.5t23 36.5t31 15q20 0 30.5 -11.5t10.5 -27.5q0 -28 -51 -70.5t-142 -67.5z
" />
    <glyph glyph-name="acircumflex" unicode="&#xe2;" horiz-adv-x="505" 
d="M247 449q182 0 182 -169v-198q0 -38 10 -49.5t46 -12.5q0 -1 0.5 -6t0.5 -6q-38 -19 -83 -19q-78 0 -83 66h-4q-63 -67 -163 -67q-52 0 -87.5 28t-35.5 80q0 56 37 93t86.5 50t109.5 13q29 0 54 -3v65q0 119 -90 119q-47 0 -79 -23q29 -23 29 -64q0 -26 -17 -44t-46 -18
q-22 0 -35 14t-13 35q0 41 44.5 78.5t136.5 37.5zM213 21q30 0 58 15.5t46 39.5v158q-16 2 -28 2q-74 0 -108.5 -33.5t-34.5 -88.5q0 -44 17.5 -68.5t49.5 -24.5zM401 508l-148 94l-147 -93l-8 10l125 139q18 20 32 20t31 -19l123 -143z" />
    <glyph glyph-name="atilde" unicode="&#xe3;" horiz-adv-x="505" 
d="M247 449q182 0 182 -169v-198q0 -38 10 -49.5t46 -12.5q0 -1 0.5 -6t0.5 -6q-38 -19 -83 -19q-78 0 -83 66h-4q-63 -67 -163 -67q-52 0 -87.5 28t-35.5 80q0 56 37 93t86.5 50t109.5 13q29 0 54 -3v65q0 119 -90 119q-47 0 -79 -23q29 -23 29 -64q0 -26 -17 -44t-46 -18
q-22 0 -35 14t-13 35q0 41 44.5 78.5t136.5 37.5zM213 21q30 0 58 15.5t46 39.5v158q-16 2 -28 2q-74 0 -108.5 -33.5t-34.5 -88.5q0 -44 17.5 -68.5t49.5 -24.5zM402 638l8 -3q-8 -41 -32.5 -68.5t-61.5 -27.5q-22 0 -75.5 17.5t-74.5 17.5q-44 0 -69 -41l-9 3
q9 39 31.5 70t61.5 31q20 0 76 -19t80 -19q41 0 65 39z" />
    <glyph glyph-name="adieresis" unicode="&#xe4;" horiz-adv-x="505" 
d="M247 449q182 0 182 -169v-198q0 -38 10 -49.5t46 -12.5q0 -1 0.5 -6t0.5 -6q-38 -19 -83 -19q-78 0 -83 66h-4q-63 -67 -163 -67q-52 0 -87.5 28t-35.5 80q0 56 37 93t86.5 50t109.5 13q29 0 54 -3v65q0 119 -90 119q-47 0 -79 -23q29 -23 29 -64q0 -26 -17 -44t-46 -18
q-22 0 -35 14t-13 35q0 41 44.5 78.5t136.5 37.5zM213 21q30 0 58 15.5t46 39.5v158q-16 2 -28 2q-74 0 -108.5 -33.5t-34.5 -88.5q0 -44 17.5 -68.5t49.5 -24.5zM161 650q23 0 40 -16.5t17 -39.5q0 -24 -17 -40.5t-40 -16.5t-39.5 16.5t-16.5 40.5q0 23 16.5 39.5
t39.5 16.5zM347 650q23 0 40 -16.5t17 -39.5q0 -24 -17 -40.5t-40 -16.5q-24 0 -40 16.5t-16 40.5q0 23 16 39.5t40 16.5z" />
    <glyph glyph-name="aring" unicode="&#xe5;" horiz-adv-x="505" 
d="M247 449q182 0 182 -169v-198q0 -38 10 -49.5t46 -12.5q0 -1 0.5 -6t0.5 -6q-38 -19 -83 -19q-78 0 -83 66h-4q-63 -67 -163 -67q-52 0 -87.5 28t-35.5 80q0 56 37 93t86.5 50t109.5 13q29 0 54 -3v65q0 119 -90 119q-47 0 -79 -23q29 -23 29 -64q0 -26 -17 -44t-46 -18
q-22 0 -35 14t-13 35q0 41 44.5 78.5t136.5 37.5zM213 21q30 0 58 15.5t46 39.5v158q-16 2 -28 2q-74 0 -108.5 -33.5t-34.5 -88.5q0 -44 17.5 -68.5t49.5 -24.5zM250 500q-43 0 -72.5 28.5t-29.5 68.5q0 41 30 71t72 30q41 0 70.5 -29.5t29.5 -71.5q0 -40 -29.5 -68.5
t-70.5 -28.5zM250 673q-31 0 -52.5 -22.5t-21.5 -53.5q0 -30 21.5 -51.5t52.5 -21.5q29 0 50 22t21 51t-21 52.5t-50 23.5z" />
    <glyph glyph-name="ae" unicode="&#xe6;" horiz-adv-x="780" 
d="M750 249l-8 -8h-306q0 -108 35 -163t114 -55t146 55l8 -8q-71 -79 -186 -79q-126 0 -190 81q-94 -87 -210 -87q-56 0 -91.5 28.5t-35.5 84.5q0 43 21.5 75t57 49t75 25t83.5 8q28 0 52 -3q1 9 1 65q0 116 -89 116q-47 0 -79 -23q29 -23 29 -64q0 -26 -16 -44.5t-46 -18.5
q-22 0 -35.5 14.5t-13.5 35.5q0 41 43 78.5t132 37.5q117 0 151 -80q55 80 154 80q93 0 145.5 -50.5t57.5 -129.5zM214 20q67 0 140 65q-38 56 -38 152q-8 1 -28 1q-74 0 -109.5 -33.5t-35.5 -88.5q0 -96 71 -96zM541 435q-47 0 -73 -48.5t-31 -130.5l200 7v21
q0 57 -23.5 104t-72.5 47z" />
    <glyph glyph-name="ccedilla" unicode="&#xe7;" horiz-adv-x="455" 
d="M281 450q82 0 117 -31t35 -69q0 -23 -14 -39t-36 -16q-28 0 -41.5 17.5t-13.5 44.5q0 35 20 65q-27 8 -63 5q-58 -7 -94 -60.5t-36 -146.5q0 -99 39.5 -149t112.5 -50q70 0 126 35l6 -12q-72 -56 -173 -56q-19 0 -22 1l-19 -55q79 4 119 -21.5t40 -64.5
q0 -40 -44.5 -68.5t-125.5 -28.5q-28 0 -45 2v14q64 0 97.5 24t33.5 50q0 25 -27.5 41.5t-76.5 17.5l33 90q-93 10 -144 68.5t-51 152.5q0 105 67.5 172t179.5 67z" />
    <glyph glyph-name="egrave" unicode="&#xe8;" horiz-adv-x="502" 
d="M473 246l-9 -8h-310q0 -108 36.5 -162.5t117.5 -54.5q78 0 146 55l8 -8q-71 -79 -186 -79q-114 0 -178 63.5t-64 165.5q0 99 64 165t169 66q96 0 151 -60t55 -143zM264 435q-47 0 -75.5 -50.5t-33.5 -131.5l204 7v24q0 35 -8 67.5t-30.5 58t-56.5 25.5zM333 519l-5 -10
q-91 24 -142.5 66.5t-51.5 70.5q0 15 11 27t30 12q18 0 31 -15t23 -36.5t37 -54t67 -60.5z" />
    <glyph glyph-name="eacute" unicode="&#xe9;" horiz-adv-x="502" 
d="M473 246l-9 -8h-310q0 -108 36.5 -162.5t117.5 -54.5q78 0 146 55l8 -8q-71 -79 -186 -79q-114 0 -178 63.5t-64 165.5q0 99 64 165t169 66q96 0 151 -60t55 -143zM264 435q-47 0 -75.5 -50.5t-33.5 -131.5l204 7v24q0 35 -8 67.5t-30.5 58t-56.5 25.5zM184 508l-6 10
q40 28 67 61t37 54.5t23 36.5t31 15q20 0 30.5 -11.5t10.5 -27.5q0 -28 -51 -70.5t-142 -67.5z" />
    <glyph glyph-name="ecircumflex" unicode="&#xea;" horiz-adv-x="502" 
d="M473 246l-9 -8h-310q0 -108 36.5 -162.5t117.5 -54.5q78 0 146 55l8 -8q-71 -79 -186 -79q-114 0 -178 63.5t-64 165.5q0 99 64 165t169 66q96 0 151 -60t55 -143zM264 435q-47 0 -75.5 -50.5t-33.5 -131.5l204 7v24q0 35 -8 67.5t-30.5 58t-56.5 25.5zM407 508l-148 94
l-147 -93l-8 10l125 139q18 20 32 20t31 -19l123 -143z" />
    <glyph glyph-name="edieresis" unicode="&#xeb;" horiz-adv-x="502" 
d="M473 246l-9 -8h-310q0 -108 36.5 -162.5t117.5 -54.5q78 0 146 55l8 -8q-71 -79 -186 -79q-114 0 -178 63.5t-64 165.5q0 99 64 165t169 66q96 0 151 -60t55 -143zM264 435q-47 0 -75.5 -50.5t-33.5 -131.5l204 7v24q0 35 -8 67.5t-30.5 58t-56.5 25.5zM165 650
q23 0 40 -16.5t17 -39.5q0 -24 -17 -40.5t-40 -16.5t-39.5 16.5t-16.5 40.5q0 23 16.5 39.5t39.5 16.5zM351 650q23 0 40 -16.5t17 -39.5q0 -24 -17 -40.5t-40 -16.5q-24 0 -40 16.5t-16 40.5q0 23 16 39.5t40 16.5z" />
    <glyph glyph-name="igrave" unicode="&#xec;" horiz-adv-x="321" 
d="M237 519l-5 -10q-91 24 -142.5 66.5t-51.5 70.5q0 15 11 27t30 12q18 0 31 -15t23 -36.5t37 -54t67 -60.5zM107 81v266q0 28 -11.5 42.5t-25 16.5t-25 5t-11.5 10v7l180 21l2 -2q2 -2 3 -2v-369q0 -26 12 -39.5t26 -15.5t26 -5t12 -10v-6h-259v6q0 7 11 10t24.5 5
t24.5 17t11 43z" />
    <glyph glyph-name="iacute" unicode="&#xed;" horiz-adv-x="321" 
d="M60 508l-6 10q40 28 67 61t37 54.5t23 36.5t31 15q20 0 30.5 -11.5t10.5 -27.5q0 -28 -51 -70.5t-142 -67.5zM107 81v266q0 28 -11.5 42.5t-25 16.5t-25 5t-11.5 10v7l180 21l2 -2q2 -2 3 -2v-369q0 -26 12 -39.5t26 -15.5t26 -5t12 -10v-6h-259v6q0 7 11 10t24.5 5
t24.5 17t11 43z" />
    <glyph glyph-name="icircumflex" unicode="&#xee;" horiz-adv-x="321" 
d="M107 81v266q0 28 -11.5 42.5t-25 16.5t-25 5t-11.5 10v7l180 21l2 -2q2 -2 3 -2v-369q0 -26 12 -39.5t26 -15.5t26 -5t12 -10v-6h-259v6q0 7 11 10t24.5 5t24.5 17t11 43zM308 508l-148 94l-147 -93l-8 10l125 139q18 20 32 20t31 -19l123 -143z" />
    <glyph glyph-name="idieresis" unicode="&#xef;" horiz-adv-x="321" 
d="M46 650q23 0 40 -16.5t17 -39.5q0 -24 -17 -40.5t-40 -16.5t-39.5 16.5t-16.5 40.5q0 23 16.5 39.5t39.5 16.5zM232 650q23 0 40 -16.5t17 -39.5q0 -24 -17 -40.5t-40 -16.5q-24 0 -40 16.5t-16 40.5q0 23 16 39.5t40 16.5zM107 81v266q0 28 -11.5 42.5t-25 16.5t-25 5
t-11.5 10v7l180 21l2 -2q2 -2 3 -2v-369q0 -26 12 -39.5t26 -15.5t26 -5t12 -10v-6h-259v6q0 7 11 10t24.5 5t24.5 17t11 43z" />
    <glyph glyph-name="eth" unicode="&#xf0;" horiz-adv-x="550" 
d="M421 696l-97 -65q194 -155 194 -385q0 -110 -66 -184t-179 -74t-176 66.5t-63 165.5q0 97 65 164t170 67q81 0 128 -44l4 3q-32 103 -118 194q-33 -21 -99 -66l-9 14l97 64q-62 65 -137 105l7 15q94 -38 168 -95l102 68zM274 436q-42 0 -70 -34.5t-38.5 -80.5t-10.5 -100
q0 -220 124 -220q43 0 71 34t38.5 80t10.5 102q0 59 -10 105t-39 80t-76 34z" />
    <glyph glyph-name="ntilde" unicode="&#xf1;" horiz-adv-x="594" 
d="M497 315v-237q0 -27 11.5 -41t25.5 -16t25.5 -5t11.5 -10v-6h-250v6q0 8 16 10t32 16t16 52v251q0 40 -18 60t-49 20q-30 0 -60 -16.5t-45 -43.5v-277q0 -27 10.5 -41t22.5 -16t22.5 -5t10.5 -10v-6h-251v6q0 7 11.5 10t25 5t25 17.5t11.5 45.5v261q0 36 -18 49.5
t-36 15.5t-18 10v6q16 2 86.5 11t87.5 12l5 -5q-2 -15 -7 -76q3 -1 4 -1q54 81 152 81q60 0 100 -31t40 -102zM438 638l8 -3q-8 -41 -32.5 -68.5t-61.5 -27.5q-22 0 -75.5 17.5t-74.5 17.5q-44 0 -69 -41l-9 3q9 39 31.5 70t61.5 31q20 0 76 -19t80 -19q41 0 65 39z" />
    <glyph glyph-name="ograve" unicode="&#xf2;" horiz-adv-x="553" 
d="M34 220q0 99 65 164.5t176 65.5q118 0 181 -64.5t63 -163.5q0 -98 -65.5 -166t-178.5 -68q-116 0 -178.5 66t-62.5 166zM156 221q0 -42 6 -78.5t19 -70t37.5 -52.5t58.5 -19q62 0 91 64t29 152q0 42 -6 78.5t-19 69t-37.5 51.5t-58.5 19q-42 0 -70.5 -34.5t-39 -80.5
t-10.5 -99zM349 519l-5 -10q-91 24 -142.5 66.5t-51.5 70.5q0 15 11 27t30 12q18 0 31 -15t23 -36.5t37 -54t67 -60.5z" />
    <glyph glyph-name="oacute" unicode="&#xf3;" horiz-adv-x="553" 
d="M34 220q0 99 65 164.5t176 65.5q118 0 181 -64.5t63 -163.5q0 -98 -65.5 -166t-178.5 -68q-116 0 -178.5 66t-62.5 166zM156 221q0 -42 6 -78.5t19 -70t37.5 -52.5t58.5 -19q62 0 91 64t29 152q0 42 -6 78.5t-19 69t-37.5 51.5t-58.5 19q-42 0 -70.5 -34.5t-39 -80.5
t-10.5 -99zM198 508l-6 10q40 28 67 61t37 54.5t23 36.5t31 15q20 0 30.5 -11.5t10.5 -27.5q0 -28 -51 -70.5t-142 -67.5z" />
    <glyph glyph-name="ocircumflex" unicode="&#xf4;" horiz-adv-x="553" 
d="M34 220q0 99 65 164.5t176 65.5q118 0 181 -64.5t63 -163.5q0 -98 -65.5 -166t-178.5 -68q-116 0 -178.5 66t-62.5 166zM156 221q0 -42 6 -78.5t19 -70t37.5 -52.5t58.5 -19q62 0 91 64t29 152q0 42 -6 78.5t-19 69t-37.5 51.5t-58.5 19q-42 0 -70.5 -34.5t-39 -80.5
t-10.5 -99zM426 508l-148 94l-147 -93l-8 10l125 139q18 20 32 20t31 -19l123 -143z" />
    <glyph glyph-name="otilde" unicode="&#xf5;" horiz-adv-x="553" 
d="M34 220q0 99 65 164.5t176 65.5q118 0 181 -64.5t63 -163.5q0 -98 -65.5 -166t-178.5 -68q-116 0 -178.5 66t-62.5 166zM156 221q0 -42 6 -78.5t19 -70t37.5 -52.5t58.5 -19q62 0 91 64t29 152q0 42 -6 78.5t-19 69t-37.5 51.5t-58.5 19q-42 0 -70.5 -34.5t-39 -80.5
t-10.5 -99zM433 638l8 -3q-8 -41 -32.5 -68.5t-61.5 -27.5q-22 0 -75.5 17.5t-74.5 17.5q-44 0 -69 -41l-9 3q9 39 31.5 70t61.5 31q20 0 76 -19t80 -19q41 0 65 39z" />
    <glyph glyph-name="odieresis" unicode="&#xf6;" horiz-adv-x="553" 
d="M34 220q0 99 65 164.5t176 65.5q118 0 181 -64.5t63 -163.5q0 -98 -65.5 -166t-178.5 -68q-116 0 -178.5 66t-62.5 166zM156 221q0 -42 6 -78.5t19 -70t37.5 -52.5t58.5 -19q62 0 91 64t29 152q0 42 -6 78.5t-19 69t-37.5 51.5t-58.5 19q-42 0 -70.5 -34.5t-39 -80.5
t-10.5 -99zM178 650q23 0 40 -16.5t17 -39.5q0 -24 -17 -40.5t-40 -16.5t-39.5 16.5t-16.5 40.5q0 23 16.5 39.5t39.5 16.5zM364 650q23 0 40 -16.5t17 -39.5q0 -24 -17 -40.5t-40 -16.5q-24 0 -40 16.5t-16 40.5q0 23 16 39.5t40 16.5z" />
    <glyph glyph-name="divide" unicode="&#xf7;" 
d="M281 385q-23 0 -39 16.5t-16 38.5q0 23 16 39.5t39 16.5t39.5 -16.5t16.5 -39.5t-16.5 -39t-39.5 -16zM281 89q-23 0 -39 16t-16 39t16.5 39.5t38.5 16.5q24 0 40 -16.5t16 -39.5t-16 -39t-40 -16zM70 281v29h416v-29h-416z" />
    <glyph glyph-name="oslash" unicode="&#xf8;" horiz-adv-x="553" 
d="M275 449q78 0 133 -32l31 45l13 -9l-31 -44q98 -61 98 -187q0 -98 -65.5 -166t-178.5 -68q-75 0 -132 31l-36 -50l-13 10l35 48q-95 62 -95 193q0 99 65 164t176 65zM275 435q-42 0 -70.5 -34t-39 -79t-10.5 -98q0 -73 22 -129l192 268q-30 72 -94 72zM397 217
q0 77 -22 128l-191 -269q28 -75 93 -75q62 0 91 64t29 152z" />
    <glyph glyph-name="ugrave" unicode="&#xf9;" horiz-adv-x="588" 
d="M487 450l4 -4v-357q0 -36 18.5 -49.5t36.5 -15.5t18 -10v-6q-30 -4 -89 -10t-88 -10l-5 5l6 71h-4q-54 -75 -149 -75q-58 0 -98 31.5t-40 101.5v226q0 28 -11 42.5t-24 16.5t-24 5t-11 10v7l178 21q2 -3 5 -5v-343q0 -41 18.5 -62t52.5 -21q58 0 98 66v263q0 28 -11 42.5
t-24 17t-24 5.5t-11 10v6zM358 519l-5 -10q-91 24 -142.5 66.5t-51.5 70.5q0 15 11 27t30 12q18 0 31 -15t23 -36.5t37 -54t67 -60.5z" />
    <glyph glyph-name="uacute" unicode="&#xfa;" horiz-adv-x="588" 
d="M487 450l4 -4v-357q0 -36 18.5 -49.5t36.5 -15.5t18 -10v-6q-30 -4 -89 -10t-88 -10l-5 5l6 71h-4q-54 -75 -149 -75q-58 0 -98 31.5t-40 101.5v226q0 28 -11 42.5t-24 16.5t-24 5t-11 10v7l178 21q2 -3 5 -5v-343q0 -41 18.5 -62t52.5 -21q58 0 98 66v263q0 28 -11 42.5
t-24 17t-24 5.5t-11 10v6zM216 508l-6 10q40 28 67 61t37 54.5t23 36.5t31 15q20 0 30.5 -11.5t10.5 -27.5q0 -28 -51 -70.5t-142 -67.5z" />
    <glyph glyph-name="ucircumflex" unicode="&#xfb;" horiz-adv-x="588" 
d="M487 450l4 -4v-357q0 -36 18.5 -49.5t36.5 -15.5t18 -10v-6q-30 -4 -89 -10t-88 -10l-5 5l6 71h-4q-54 -75 -149 -75q-58 0 -98 31.5t-40 101.5v226q0 28 -11 42.5t-24 16.5t-24 5t-11 10v7l178 21q2 -3 5 -5v-343q0 -41 18.5 -62t52.5 -21q58 0 98 66v263q0 28 -11 42.5
t-24 17t-24 5.5t-11 10v6zM432 508l-148 94l-147 -93l-8 10l125 139q18 20 32 20t31 -19l123 -143z" />
    <glyph glyph-name="udieresis" unicode="&#xfc;" horiz-adv-x="588" 
d="M487 450l4 -4v-357q0 -36 18.5 -49.5t36.5 -15.5t18 -10v-6q-30 -4 -89 -10t-88 -10l-5 5l6 71h-4q-54 -75 -149 -75q-58 0 -98 31.5t-40 101.5v226q0 28 -11 42.5t-24 16.5t-24 5t-11 10v7l178 21q2 -3 5 -5v-343q0 -41 18.5 -62t52.5 -21q58 0 98 66v263q0 28 -11 42.5
t-24 17t-24 5.5t-11 10v6zM190 650q23 0 40 -16.5t17 -39.5q0 -24 -17 -40.5t-40 -16.5t-39.5 16.5t-16.5 40.5q0 23 16.5 39.5t39.5 16.5zM376 650q23 0 40 -16.5t17 -39.5q0 -24 -17 -40.5t-40 -16.5q-24 0 -40 16.5t-16 40.5q0 23 16 39.5t40 16.5z" />
    <glyph glyph-name="yacute" unicode="&#xfd;" horiz-adv-x="533" 
d="M82 -225q-34 0 -54.5 16t-20.5 44q0 23 16.5 38t39.5 15q33 0 54.5 -23t26.5 -54q55 26 103 143l13 36h-13l-159 358q-16 35 -38 50.5t-35.5 18.5t-13.5 11v7h269v-7q0 -7 -17 -10t-34.5 -11.5t-17.5 -28.5q0 -10 8 -32l99 -233h3l78 215q11 30 11 45q0 18 -11 28.5
t-24.5 12.5t-24.5 5t-11 9v7h198v-6q0 -5 -13 -8.5t-30.5 -8.5t-40 -29t-38.5 -65l-143 -367q-69 -176 -180 -176zM226 508l-6 10q40 28 67 61t37 54.5t23 36.5t31 15q20 0 30.5 -11.5t10.5 -27.5q0 -28 -51 -70.5t-142 -67.5z" />
    <glyph glyph-name="thorn" unicode="&#xfe;" horiz-adv-x="585" 
d="M301 8q67 0 98 59.5t31 152.5t-32 146t-91 53q-31 0 -62 -15t-49 -41v-321q50 -34 105 -34zM551 227q0 -115 -61.5 -176.5t-160.5 -61.5q-80 0 -129 33h-2q-2 -1 -3 -1v-158q0 -35 17 -47.5t34 -14t17 -9.5v-7h-252v7q0 7 11.5 9.5t24.5 4.5t24.5 17.5t11.5 45.5v761
q0 28 -11 43t-24.5 17t-24.5 5t-11 10v7l178 21l5 -5v-236q0 -73 -18 -122q1 0 2 -0.5t2 -0.5q60 80 154 80q100 0 158 -59t58 -163z" />
    <glyph glyph-name="ydieresis" unicode="&#xff;" horiz-adv-x="533" 
d="M82 -225q-34 0 -54.5 16t-20.5 44q0 23 16.5 38t39.5 15q33 0 54.5 -23t26.5 -54q55 26 103 143l13 36h-13l-159 358q-16 35 -38 50.5t-35.5 18.5t-13.5 11v7h269v-7q0 -7 -17 -10t-34.5 -11.5t-17.5 -28.5q0 -10 8 -32l99 -233h3l78 215q11 30 11 45q0 18 -11 28.5
t-24.5 12.5t-24.5 5t-11 9v7h198v-6q0 -5 -13 -8.5t-30.5 -8.5t-40 -29t-38.5 -65l-143 -367q-69 -176 -180 -176zM193 650q23 0 40 -16.5t17 -39.5q0 -24 -17 -40.5t-40 -16.5t-39.5 16.5t-16.5 40.5q0 23 16.5 39.5t39.5 16.5zM379 650q23 0 40 -16.5t17 -39.5
q0 -24 -17 -40.5t-40 -16.5q-24 0 -40 16.5t-16 40.5q0 23 16 39.5t40 16.5z" />
    <glyph glyph-name="dotlessi" unicode="&#x131;" horiz-adv-x="321" 
d="M107 81v266q0 28 -11.5 42.5t-25 16.5t-25 5t-11.5 10v7l180 21l2 -2q2 -2 3 -2v-369q0 -26 12 -39.5t26 -15.5t26 -5t12 -10v-6h-259v6q0 7 11 10t24.5 5t24.5 17t11 43z" />
    <glyph glyph-name="OE" unicode="&#x152;" horiz-adv-x="1038" 
d="M482 674h237q152 0 219 27l27 -231l-7 -1q-5 0 -8.5 4.5t-8.5 16t-5 12.5q-41 90 -82 122.5t-124 32.5h-88v-296h63q41 0 65.5 19.5t30.5 43t11.5 43t13.5 19.5h5v-275h-5q-9 0 -14.5 21t-9.5 45.5t-27.5 45.5t-64.5 21h-68v-246q0 -82 87 -82h22q89 0 147 50t102 166
q6 17 16 17l3 -1h3l-57 -268q-82 20 -191 20h-287q-46 -11 -96 -11q-164 0 -255.5 98.5t-91.5 248.5q0 147 96 247.5t251 100.5q52 0 91 -10zM395 3q48 0 83.5 21t35.5 67v489q0 44 -36.5 66.5t-86.5 22.5q-71 0 -118.5 -51t-65.5 -122.5t-18 -158.5q0 -67 10 -123.5
t32.5 -105.5t64 -77t99.5 -28z" />
    <glyph glyph-name="oe" unicode="&#x153;" horiz-adv-x="870" 
d="M841 246l-9 -8h-309q0 -108 36 -162.5t117 -54.5q79 0 146 55l8 -8q-71 -79 -186 -79q-132 0 -187 91q-63 -91 -182 -91q-116 0 -178.5 65.5t-62.5 165.5q0 99 65 164t176 65q127 0 186 -90q64 90 174 90q96 0 151 -60t55 -143zM275 435q-42 0 -70.5 -34.5t-39 -80.5
t-10.5 -99q0 -42 6 -78.5t19 -70t37.5 -52.5t58.5 -19q62 0 91 64t29 152q0 42 -6 78.5t-19 69t-37.5 51.5t-58.5 19zM632 435q-47 0 -75.5 -50.5t-33.5 -131.5q66 3 205 7q0 28 -3.5 53.5t-12.5 55.5t-29.5 48t-50.5 18z" />
    <glyph glyph-name="circumflex" unicode="&#x2c6;" horiz-adv-x="502" 
d="M395 508l-148 94l-147 -93l-8 10l125 139q18 20 32 20t31 -19l123 -143z" />
    <glyph glyph-name="ring" unicode="&#x2da;" horiz-adv-x="502" 
d="M251 500q-43 0 -72.5 28.5t-29.5 68.5q0 41 29.5 71t72.5 30q41 0 70.5 -29.5t29.5 -71.5q0 -40 -29.5 -68.5t-70.5 -28.5zM251 673q-31 0 -52.5 -22.5t-21.5 -53.5q0 -30 21.5 -51.5t52.5 -21.5q29 0 50 22t21 51t-21 52.5t-50 23.5z" />
    <glyph glyph-name="tilde" unicode="&#x2dc;" horiz-adv-x="513" 
d="M406 638l8 -3q-8 -41 -32.5 -68.5t-61.5 -27.5q-22 0 -75.5 17.5t-74.5 17.5q-44 0 -69 -41l-9 3q9 39 31.5 70t61.5 31q20 0 76 -19t80 -19q41 0 65 39z" />
    <glyph glyph-name="afii10023" unicode="&#x401;" horiz-adv-x="687" 
d="M351 16h50q89 0 145.5 50t103.5 166q6 17 16 17q1 0 3 -0.5t3 -0.5l-57 -267q-78 19 -209 19h-373v6q0 7 16 11t35.5 7.5t35.5 25t16 60.5v464q0 34 -16 53t-35.5 22t-35.5 6.5t-16 11.5v7h358q131 0 197 27l27 -231h-4l-3 -1q-5 0 -8.5 4.5t-8.5 16t-5 12.5
q-32 88 -77 121.5t-129 33.5h-116v-296h91q41 0 65.5 19.5t30.5 43t11.5 43t13.5 19.5h5v-275h-5q-9 0 -14.5 21t-9.5 45.5t-27.5 45.5t-64.5 21h-96v-246q0 -82 87 -82zM242 849q23 0 40 -16.5t17 -39.5t-17 -40t-40 -17t-39.5 17t-16.5 40t16.5 39.5t39.5 16.5zM428 849
q23 0 40 -16.5t17 -39.5t-17 -40t-40 -17q-24 0 -40 16.5t-16 40.5q0 23 16 39.5t40 16.5z" />
    <glyph glyph-name="afii10051" unicode="&#x402;" horiz-adv-x="851" 
d="M30 696q92 -22 285 -22q125 0 193 4t117 19q1 0 1 -1l25 -237q-1 0 -3 -0.5t-3 -0.5q-10 0 -17 24q-32 103 -77 138.5t-133 35.5h-41q0 -49 0.5 -147t0.5 -147q76 33 161 33q119 0 194.5 -75.5t75.5 -194.5q0 -103 -61 -180t-178 -77q-51 0 -85 18.5t-34 60.5q0 22 14 37
t36 15q30 0 45.5 -20t15.5 -51q0 -29 -9 -43q58 0 86.5 65t28.5 164q0 122 -54 187.5t-137 65.5q-45 0 -100 -19v-244q0 -29 7 -48t17 -25.5t20 -9.5t17 -6.5t7 -9.5v-5h-297v5q0 8 15.5 12t34.5 7.5t34.5 24t15.5 55.5v552h-11q-92 0 -134.5 -38t-79.5 -145q-6 -16 -15 -16
q-3 0 -4 1z" />
    <glyph glyph-name="afii10052" unicode="&#x403;" horiz-adv-x="624" 
d="M267 657v-551q0 -37 16.5 -58t36 -24.5t36 -7.5t16.5 -11v-5h-335v5q0 8 16 12t35 8t35 27t16 64v458q0 34 -16.5 53t-35.5 22t-35.5 6.5t-16.5 11.5v7h333q157 0 218 27l27 -230q-4 -2 -7 -2t-5.5 1.5t-4.5 5.5t-3.5 7.5t-4 9.5t-4.5 10q-39 89 -82 121.5t-126 32.5
h-109zM255 732l-4 11q41 20 73 46t46 45t29 32.5t30 13.5q20 0 30.5 -11.5t10.5 -25.5q0 -11 -12 -26.5t-36 -33t-68 -32t-99 -19.5z" />
    <glyph glyph-name="afii10053" unicode="&#x404;" horiz-adv-x="685" 
d="M386 683q94 0 193 -30l34 47q1 0 4 -0.5t5 -0.5l9 -246h-3q-9 0 -16 19q-11 32 -17.5 47.5t-25.5 49t-39 51t-55.5 32.5t-78.5 15q-104 0 -155.5 -93t-53.5 -238q45 49 113 49q21 0 64 -8t64 -8q25 0 41 28l9 -3q-23 -83 -107 -83q-25 0 -71.5 13t-66.5 13q-26 0 -46 -20
q0 -145 54.5 -228.5t158.5 -83.5q92 0 144.5 50.5t79.5 142.5q2 8 5.5 21t5 19t4.5 13t5.5 9.5t6.5 2.5h5q-4 -91 -10 -281h-10l-34 47q-113 -39 -219 -39q-160 0 -250 93t-90 243q0 151 93.5 254t249.5 103z" />
    <glyph glyph-name="afii10054" unicode="&#x405;" horiz-adv-x="590" 
d="M270 -11q-104 0 -171 37t-67 92q0 29 18 46t41 17q37 0 57 -25t20 -62t-17 -67q47 -23 111 -23q73 0 124.5 39t51.5 102q0 47 -39 83t-95 61t-112 51t-95 66t-39 93q0 88 69.5 136.5t174.5 48.5q92 0 153.5 -34.5t61.5 -87.5q0 -28 -16 -43.5t-39 -15.5q-33 0 -53.5 23
t-20.5 59q0 35 15 68q-45 15 -95 15q-53 0 -91.5 -32.5t-38.5 -86.5q0 -38 39 -69t94.5 -55.5t111.5 -51.5t95 -72.5t39 -104.5q0 -100 -82.5 -153.5t-204.5 -53.5z" />
    <glyph glyph-name="afii10055" unicode="&#x406;" horiz-adv-x="417" 
d="M270 579v-472q0 -38 16.5 -58.5t36 -24t36 -7.5t16.5 -12v-5h-334v5q0 7 16 11t34.5 7.5t34.5 24.5t16 59v471q0 32 -16 50t-34.5 21t-34.5 7t-16 11v7h334v-7q0 -7 -16.5 -11t-36 -7t-36 -21t-16.5 -49z" />
    <glyph glyph-name="afii10056" unicode="&#x407;" horiz-adv-x="417" 
d="M270 579v-472q0 -38 16.5 -58.5t36 -24t36 -7.5t16.5 -12v-5h-334v5q0 7 16 11t34.5 7.5t34.5 24.5t16 59v471q0 32 -16 50t-34.5 21t-34.5 7t-16 11v7h334v-7q0 -7 -16.5 -11t-36 -7t-36 -21t-16.5 -49zM116 829q23 0 40 -16.5t17 -39.5q0 -24 -17 -40.5t-40 -16.5
t-39.5 16.5t-16.5 40.5q0 23 16.5 39.5t39.5 16.5zM302 829q23 0 40 -16.5t17 -39.5q0 -24 -17 -40.5t-40 -16.5q-24 0 -40 16.5t-16 40.5q0 23 16 39.5t40 16.5z" />
    <glyph glyph-name="afii10057" unicode="&#x408;" horiz-adv-x="383" 
d="M51 -187q52 26 66.5 72.5t14.5 164.5v528q0 32 -16 50.5t-35.5 21.5t-35.5 6.5t-16 10.5v7h338v-7q0 -7 -16.5 -11t-37 -7t-37 -21t-16.5 -49v-382q0 -205 -67 -288q-98 -124 -205 -124q-28 0 -56 17.5t-28 50.5q0 29 19 46t48 17q33 0 56 -27t24 -76z" />
    <glyph glyph-name="afii10058" unicode="&#x409;" horiz-adv-x="1047" 
d="M496 655q-32 0 -94 0.5t-93 0.5q-1 -152 -11.5 -267t-35.5 -211t-70.5 -146t-110.5 -50q-34 0 -56 18t-22 46t20 44.5t46 16.5q30 0 54.5 -21.5t34.5 -60.5q61 48 92.5 181t35.5 303q2 60 -10 96q-9 26 -37 36.5t-52 13.5t-24 12v7h564v-6q0 -7 -16 -11.5t-35 -8.5
t-35 -27t-16 -64v-172q72 11 119 11q50 0 94.5 -10t86 -31.5t66 -62t24.5 -96.5q0 -33 -13.5 -65.5t-41 -62.5t-79 -49t-118.5 -19h-366v5q0 8 15.5 12.5t34 9t34 31t15.5 73.5v524zM625 369v-257q0 -51 14 -74t61 -23h10q70 0 118 51t48 134q0 172 -197 172q-25 0 -54 -3z
" />
    <glyph glyph-name="afii10059" unicode="&#x40a;" horiz-adv-x="1068" 
d="M133 125v453q0 32 -15.5 49.5t-34 21t-34 7.5t-15.5 11v6h322v-6q0 -7 -15 -11t-32.5 -7.5t-32.5 -21t-15 -48.5v-211h253v210q0 32 -14.5 50t-32 21t-32 7t-14.5 11v6h326v-6q0 -7 -16.5 -11t-35.5 -7t-35.5 -21t-16.5 -49v-201q49 7 118 7q48 0 91.5 -8.5t85.5 -28.5
t67 -60t25 -96q0 -32 -13.5 -64t-41.5 -61.5t-79 -48t-117 -18.5h-358v6q0 6 9.5 8.5t23.5 5.5t27.5 10.5t23 27t9.5 51.5v241h-253v-244q0 -37 15 -58t32.5 -24.5t32.5 -7.5t15 -11v-5h-324v5q0 8 16 11.5t34.5 8t34.5 29.5t16 71zM643 361v-254q0 -47 16.5 -69.5
t62.5 -22.5h10q70 0 115 48.5t45 129.5q0 87 -52.5 129.5t-131.5 42.5q-37 0 -65 -4z" />
    <glyph glyph-name="afii10060" unicode="&#x40b;" horiz-adv-x="890" 
d="M256 656h-11q-94 0 -137 -37t-77 -143q-5 -16 -13 -16q-5 0 -6 1q5 50 23 211q0 3 0.5 7.5t1 8.5t1.5 8q92 -22 285 -22q125 0 192.5 4t117.5 19l25 -235q-1 0 -3 -0.5t-3 -0.5q-8 0 -15 19q-36 106 -79.5 141t-132.5 35h-40q0 -50 -0.5 -150t-0.5 -150q84 42 181 42
q204 0 204 -194v-98q0 -37 16 -57.5t35.5 -24.5t35.5 -8t16 -11v-5h-324v5q0 7 14.5 11.5t31.5 8t31.5 24t14.5 57.5v104q0 157 -134 157q-53 0 -122 -26v-237q0 -36 15.5 -56t33.5 -23.5t33.5 -8t15.5 -11.5v-5h-329v5q0 8 16 12t35.5 7.5t35.5 24t16 55.5v552z" />
    <glyph glyph-name="afii10061" unicode="&#x40c;" horiz-adv-x="731" 
d="M300 732l-4 11q41 20 73 46t46 45t29 32.5t30 13.5q20 0 30.5 -11.5t10.5 -25.5q0 -11 -12 -26.5t-36 -33t-68 -32t-99 -19.5zM260 349v-243q0 -37 16 -57.5t34.5 -24.5t34.5 -8t16 -11v-5h-330v5q0 8 16 12t34.5 8t34.5 28.5t16 67.5v457q0 32 -16 50t-34.5 21t-34.5 7
t-16 11v6h333v-6q0 -7 -16 -11t-36 -7.5t-36 -21t-16 -48.5v-212h35q40 0 70 14t52 45.5t36.5 64t32.5 86.5q18 55 42.5 83t69.5 28q36 0 56.5 -20t20.5 -45q0 -26 -19.5 -43.5t-48.5 -17.5q-25 0 -50 16.5t-30 47.5q-10 -16 -30.5 -77t-50.5 -111.5t-74 -70.5v-5
q91 0 134.5 -34.5t76.5 -125.5q1 -2 9 -26.5t12.5 -35.5t15 -34.5t20.5 -35.5t23.5 -27t30.5 -20.5t36 -4.5q0 -1 3 -16q-43 -16 -97 -16q-63 0 -94 28t-56 86q-13 31 -29 77.5t-25.5 71t-26 51t-40.5 38t-58 11.5h-47z" />
    <glyph glyph-name="afii10062" unicode="&#x40e;" horiz-adv-x="675" 
d="M187 -30q-33 0 -55.5 16.5t-22.5 41.5q0 27 16 44.5t43 17.5q33 0 54 -24.5t25 -59.5q38 27 80 123l-231 453q-15 29 -33.5 45.5t-32.5 20t-23.5 7.5t-9.5 11v7h311v-8q0 -6 -20 -10t-40 -14t-20 -31q0 -13 8 -29l158 -309h2l91 203q3 7 11 24.5t13.5 29t11.5 26.5
t9 26.5t3 18.5q0 27 -22.5 39t-45.5 15.5t-23 11.5v7h233v-7q0 -6 -13.5 -10t-32.5 -9t-44 -28.5t-43 -63.5l-177 -387q-51 -111 -88.5 -154.5t-91.5 -43.5zM344 736q-46 0 -71 23.5t-25 55.5q0 24 16 39.5t39 15.5q26 0 39.5 -19t13.5 -46t-11 -43q54 -4 109.5 22.5
t93.5 71.5l9 -8q-46 -62 -105.5 -87t-107.5 -25z" />
    <glyph glyph-name="afii10145" unicode="&#x40f;" horiz-adv-x="819" 
d="M787 0h-347q-22 -7 -22 -33q0 -12 14.5 -56t14.5 -72q0 -42 -30.5 -61.5t-75.5 -19.5q-41 0 -69 11l4 17q78 -10 87 54q2 13 4 47t4.5 51.5t12.5 36.5t28 25h-377v5q0 8 15.5 12t33.5 9t33.5 30.5t15.5 71.5v429q0 40 -15.5 62.5t-33.5 27t-33.5 9t-15.5 11.5v6h316v-6
q0 -8 -14 -12t-31 -8t-31 -26.5t-14 -63.5v-541h299v541q0 41 -15.5 63.5t-34 26.5t-34 8t-15.5 12v6h325v-6q0 -7 -15 -11.5t-33.5 -9t-33.5 -27t-15 -62.5v-437q0 -42 15.5 -66t33.5 -28.5t33.5 -8.5t15.5 -12v-5z" />
    <glyph glyph-name="afii10017" unicode="&#x410;" horiz-adv-x="737" 
d="M136 115q26 71 80 212t81 212q16 41 16 61q0 27 -22 39t-44 16t-22 12v7h188l219 -581q15 -40 39 -57t40.5 -20t16.5 -11v-5h-290v6q0 7 18 10t35.5 13.5t17.5 33.5q0 11 -8.5 36t-23 62t-20.5 54h-263l-31 -86q-13 -39 -13 -52q0 -31 23.5 -44t47 -16.5t23.5 -11.5v-5
h-239v5q0 7 14.5 11.5t34 9t43.5 27.5t39 62zM323 563l-122 -332h249l-123 332h-4z" />
    <glyph glyph-name="afii10018" unicode="&#x411;" horiz-adv-x="696" 
d="M28 666v8h333q162 0 223 27l27 -230q-4 -2 -7 -2t-5.5 1.5t-4.5 5.5t-3.5 7.5t-4 9.5t-4.5 10q-39 88 -84 121t-129 33h-110v-273q72 11 124 11q50 0 94.5 -9.5t86 -31t66 -62t24.5 -96.5q0 -33 -13.5 -65.5t-41 -62.5t-79 -49t-119.5 -19h-371v5q0 8 16 12t34.5 8
t34.5 28t16 67v453q0 34 -16 53.5t-35.5 22.5t-35.5 6.5t-16 10.5zM259 368v-255q0 -53 13 -75.5t61 -22.5h13q71 0 119.5 50t48.5 134q0 88 -51.5 131t-135.5 43q-31 0 -68 -5z" />
    <glyph glyph-name="afii10019" unicode="&#x412;" horiz-adv-x="701" 
d="M263 656v-281h77q59 0 104 35t45 111q0 62 -41 98.5t-115 36.5h-70zM443 371l-1 -3q107 -11 162 -63t55 -118q0 -34 -13 -65t-41.5 -59.5t-81.5 -45.5t-124 -17h-366v6q0 7 16 10.5t35 7.5t35 25.5t16 60.5v464q0 34 -16 53t-34.5 22t-34.5 6.5t-16 11.5v7h352
q125 0 181 -46t56 -111q0 -58 -50 -96.5t-130 -49.5zM263 359v-239q0 -53 16.5 -79t68.5 -26h14q71 0 115.5 44.5t44.5 125.5q0 48 -17.5 84t-46 54.5t-57 27t-57.5 8.5h-81z" />
    <glyph glyph-name="afii10020" unicode="&#x413;" horiz-adv-x="624" 
d="M267 657v-551q0 -37 16.5 -58t36 -24.5t36 -7.5t16.5 -11v-5h-335v5q0 8 16 12t35 8t35 27t16 64v458q0 34 -16.5 53t-35.5 22t-35.5 6.5t-16.5 11.5v7h333q157 0 218 27l27 -230q-4 -2 -7 -2t-5.5 1.5t-4.5 5.5t-3.5 7.5t-4 9.5t-4.5 10q-39 89 -82 121.5t-126 32.5
h-109z" />
    <glyph glyph-name="afii10021" unicode="&#x414;" horiz-adv-x="749" 
d="M128 16q63 0 185.5 -0.5t184.5 -0.5v641h-230q-2 -235 -33 -393.5t-107 -246.5zM626 17q72 0 114 7l3 -1l-17 -220h-8q-10 0 -12 13l-27 123q-8 39 -29.5 50t-65.5 11h-425q-47 0 -63.5 -12.5t-24.5 -47.5l-27 -124q-2 -13 -12 -13h-6l-17 218l3 2q51 -7 90 -7
q71 74 107.5 228t36.5 337q0 31 -18.5 48t-41 20t-41 6.5t-18.5 11.5v7h600v-6q0 -8 -16 -12t-34.5 -7t-34.5 -20.5t-16 -49.5v-562z" />
    <glyph glyph-name="afii10022" unicode="&#x415;" horiz-adv-x="687" 
d="M351 16h50q89 0 145.5 50t103.5 166q6 17 16 17q1 0 3 -0.5t3 -0.5l-57 -267q-78 19 -209 19h-373v6q0 7 16 11t35.5 7.5t35.5 25t16 60.5v464q0 34 -16 53t-35.5 22t-35.5 6.5t-16 11.5v7h358q131 0 197 27l27 -231h-4l-3 -1q-5 0 -8.5 4.5t-8.5 16t-5 12.5
q-32 88 -77 121.5t-129 33.5h-116v-296h91q41 0 65.5 19.5t30.5 43t11.5 43t13.5 19.5h5v-275h-5q-9 0 -14.5 21t-9.5 45.5t-27.5 45.5t-64.5 21h-96v-246q0 -82 87 -82z" />
    <glyph glyph-name="afii10024" unicode="&#x416;" horiz-adv-x="1043" 
d="M585 578v-212h26q33 0 60 12.5t44 28.5t34.5 50t26.5 57t25 69q9 25 16 40t19.5 32t31 25t42.5 8q35 0 56 -19.5t21 -44.5q0 -26 -17.5 -43.5t-50.5 -17.5q-25 0 -48.5 16t-30.5 47q-9 -15 -24 -56t-28.5 -77.5t-41 -74t-61.5 -53.5v-5q88 0 132.5 -33.5t77.5 -122.5
q44 -120 68.5 -153t77.5 -32q0 -3 2 -9.5t2 -7.5q-42 -16 -92 -16q-66 0 -99.5 29t-57.5 89q-12 30 -28.5 78.5t-26 70.5t-26 48.5t-39 36.5t-54.5 10h-37v-242q0 -37 16.5 -57.5t35.5 -24.5t35.5 -8t16.5 -11v-5h-330v5q0 7 15.5 11t33.5 8t33.5 24.5t15.5 57.5v242h-38
q-55 0 -82 -32.5t-54 -104.5q-6 -16 -16 -44t-15.5 -43t-15 -37t-18 -34.5t-22 -27t-28.5 -22t-35.5 -12.5t-45.5 -5q-51 0 -88 16q0 3 2 9t2 7q22 -2 41.5 7t32 21t25 35.5t19 39t16 42.5t12.5 35q36 93 79 127.5t129 34.5v5q-34 16 -61.5 53.5t-41 74t-28.5 77.5t-24 56
q-7 -31 -29.5 -47t-50.5 -16q-29 0 -48.5 18.5t-19.5 42.5q0 26 21 45t56 19q70 0 98 -69q5 -13 19 -52t22 -58.5t26 -51.5t36 -48.5t46 -29.5t62 -13h17v212q0 31 -15.5 49t-34.5 21.5t-34.5 7.5t-15.5 11v6h332v-6q0 -7 -16.5 -11t-35.5 -7t-35.5 -21t-16.5 -50z" />
    <glyph glyph-name="afii10025" unicode="&#x417;" horiz-adv-x="618" 
d="M280 -11q-97 0 -202 40l-34 -47h-10q-4 131 -10 279h5q3 0 5 -1.5t4 -4.5t3.5 -6.5t3.5 -9.5t3 -11.5t3.5 -14t4.5 -15.5q27 -94 74 -143t141 -49q85 0 124.5 48.5t39.5 115.5q0 92 -56.5 136.5t-155.5 44.5q-10 0 -40 -2l-3 17q108 12 169 55.5t61 116.5q0 63 -44 94.5
t-107 31.5q-81 0 -136 -43q32 -24 32 -69q0 -28 -18 -48.5t-45 -20.5q-25 0 -39 17t-14 40q0 51 69 98.5t179 47.5q63 0 112.5 -11.5t78 -28.5t47 -39.5t24.5 -41.5t6 -37q0 -58 -60.5 -106t-190.5 -54v-2l-1 -2q141 -8 209.5 -54.5t68.5 -123.5q0 -83 -74.5 -140
t-226.5 -57z" />
    <glyph glyph-name="afii10026" unicode="&#x418;" horiz-adv-x="822" 
d="M556 107v426q-41 -52 -146.5 -204t-148.5 -206v-17q0 -37 16 -58t35 -24.5t35 -7.5t16 -11v-5h-329v5q0 8 15.5 12t34 8t34 29t15.5 70v454q0 32 -15.5 49.5t-34 21t-34 7.5t-15.5 11v6h329v-6q0 -7 -16 -11t-35 -7.5t-35 -21t-16 -48.5v-428l295 410v17q0 31 -15 49
t-33.5 21.5t-33.5 7.5t-15 11v6h330v-6q0 -7 -16.5 -11t-35.5 -7t-35.5 -20.5t-16.5 -49.5v-456q0 -45 16.5 -70t35.5 -28t35.5 -7t16.5 -13v-5h-330v5q0 7 15 11.5t33.5 8t33.5 24.5t15 58z" />
    <glyph glyph-name="afii10027" unicode="&#x419;" horiz-adv-x="807" 
d="M389 742q-46 0 -71 23.5t-25 55.5q0 24 16 39.5t39 15.5q26 0 39.5 -19t13.5 -46t-11 -43q54 -4 109.5 22.5t93.5 71.5l9 -8q-46 -62 -105.5 -87t-107.5 -25zM556 107v426q-41 -52 -146.5 -204t-148.5 -206v-17q0 -37 16 -58t35 -24.5t35 -7.5t16 -11v-5h-329v5
q0 8 15.5 12t34 8t34 29t15.5 70v454q0 32 -15.5 49.5t-34 21t-34 7.5t-15.5 11v6h329v-6q0 -7 -16 -11t-35 -7.5t-35 -21t-16 -48.5v-428l295 410v17q0 31 -15 49t-33.5 21.5t-33.5 7.5t-15 11v6h330v-6q0 -7 -16.5 -11t-35.5 -7t-35.5 -20.5t-16.5 -49.5v-456
q0 -45 16.5 -70t35.5 -28t35.5 -7t16.5 -13v-5h-330v5q0 7 15 11.5t33.5 8t33.5 24.5t15 58z" />
    <glyph glyph-name="afii10028" unicode="&#x41a;" horiz-adv-x="731" 
d="M260 349v-243q0 -37 16 -57.5t34.5 -24.5t34.5 -8t16 -11v-5h-330v5q0 8 16 12t34.5 8t34.5 28.5t16 67.5v457q0 32 -16 50t-34.5 21t-34.5 7t-16 11v6h333v-6q0 -7 -16 -11t-36 -7.5t-36 -21t-16 -48.5v-212h35q40 0 70 14t52 45.5t36.5 64t32.5 86.5q18 55 42.5 83
t69.5 28q36 0 56.5 -20t20.5 -45q0 -26 -19.5 -43.5t-48.5 -17.5q-25 0 -50 16.5t-30 47.5q-10 -16 -30.5 -77t-50.5 -111.5t-74 -70.5v-5q91 0 134.5 -34.5t76.5 -125.5q1 -2 9 -26.5t12.5 -35.5t15 -34.5t20.5 -35.5t23.5 -27t30.5 -20.5t36 -4.5q0 -1 3 -16
q-43 -16 -97 -16q-63 0 -94 28t-56 86q-13 31 -29 77.5t-25.5 71t-26 51t-40.5 38t-58 11.5h-47z" />
    <glyph glyph-name="afii10029" unicode="&#x41b;" horiz-adv-x="776" 
d="M310 656q0 -147 -10.5 -260.5t-34 -210.5t-68 -149t-108.5 -52q-33 0 -58.5 17.5t-25.5 44.5q0 28 19.5 44.5t46.5 16.5q29 0 53.5 -21.5t34.5 -60.5q63 50 94 188.5t34 313.5q0 39 -7 66q-7 25 -26.5 39t-39 16.5t-35 6.5t-15.5 12v7h584v-6q0 -7 -16 -11.5t-36 -8.5
t-36 -27t-16 -64v-430q0 -32 7.5 -54t19 -31.5t25 -15.5t25 -7t19 -4.5t7.5 -9.5v-5h-331v5q0 8 15.5 12.5t33.5 9t33.5 31t15.5 73.5v525h-204z" />
    <glyph glyph-name="afii10030" unicode="&#x41c;" horiz-adv-x="957" 
d="M688 607l-2 2l-181 -402l63 -126l-14 -7q-50 58 -145 60q-80 168 -152.5 302.5t-85.5 162.5h-2l-9 -460q0 -1 -0.5 -3.5t-0.5 -3.5q0 -36 12 -60t29 -34t34 -15t29 -8.5t12 -9.5v-5h-249v5q0 7 17.5 12l38.5 11t39.5 35.5t19.5 80.5l10 429q0 33 -16 51.5t-35.5 22.5
t-35.5 8t-16 11v8h217q77 -150 229 -450q35 77 102 226.5t101 223.5h224v-9q0 -7 -16.5 -11t-36 -7.5t-36 -22.5t-16.5 -52l9 -467q1 -36 17.5 -56.5t36 -24.5t35.5 -8t16 -11v-5h-328v5q0 8 15.5 12.5t33.5 8t33.5 24t15.5 57.5q0 205 -12 500z" />
    <glyph glyph-name="afii10031" unicode="&#x41d;" horiz-adv-x="838" 
d="M698 579v-460q0 -43 16.5 -66.5t36 -27.5t36 -8t16.5 -12v-5h-330v5q0 7 15.5 11t33.5 8.5t33.5 26.5t15.5 61v235h-309v-240q0 -26 7.5 -44t19 -26t24.5 -13t24.5 -6t19 -4t7.5 -9v-5h-331v5q0 8 16 12t35 8t35 27.5t16 65.5v460q0 32 -16 50t-35 21t-35 7t-16 11v6h332
v-6q0 -7 -16 -11t-35.5 -7t-35.5 -21t-16 -49v-216h309v215q0 32 -15.5 50t-33.5 21t-33.5 7t-15.5 11v6h329v-6q0 -7 -16 -11t-36 -7t-36 -20.5t-16 -49.5z" />
    <glyph glyph-name="afii10032" unicode="&#x41e;" horiz-adv-x="787" 
d="M44 336q0 147 96 247.5t251 100.5q163 0 257.5 -100t94.5 -246t-96.5 -247.5t-255.5 -101.5q-164 0 -255.5 98.5t-91.5 248.5zM189 337q0 -67 10 -123.5t32.5 -105.5t64 -77t99.5 -28q73 0 120.5 48.5t65 119t17.5 161.5q0 54 -6 101t-20.5 91.5t-37.5 75.5t-59.5 50
t-83.5 19q-71 0 -118.5 -51t-65.5 -122.5t-18 -158.5z" />
    <glyph glyph-name="afii10033" unicode="&#x41f;" horiz-adv-x="835" 
d="M470 5q0 7 15.5 11t33.5 8.5t33.5 26.5t15.5 61v545h-306v-551q0 -37 16 -57.5t35 -24t35 -7.5t16 -12v-5h-330v5q0 7 16 11t34.5 8t34.5 25t16 58v471q0 32 -16 50t-34.5 21.5t-34.5 7t-16 10.5v6h766v-6q0 -7 -16 -11t-36 -7t-36 -21t-16 -49v-458q0 -43 16.5 -67
t36 -28t36 -8.5t16.5 -12.5v-5h-331v5z" />
    <glyph glyph-name="afii10034" unicode="&#x420;" horiz-adv-x="646" 
d="M135 107v467q0 34 -16 53t-34.5 22t-34.5 6.5t-16 11.5v7h309q130 0 205 -51.5t75 -144.5q0 -69 -39.5 -116.5t-97 -67t-127.5 -19.5q-54 0 -95 7v-176q0 -37 16 -58t36 -24.5t36 -7.5t16 -11v-5h-334v5q0 7 16 11t34.5 8t34.5 25t16 58zM264 657v-360q19 -4 52 -4
q78 0 123 49.5t45 132.5q0 86 -49 134t-121 48h-50z" />
    <glyph glyph-name="afii10035" unicode="&#x421;" horiz-adv-x="685" 
d="M390 683q100 0 190 -30l31 47h12l9 -246h-6q-8 0 -19 30q-13 36 -24.5 59.5t-35.5 56.5t-61.5 50t-86.5 17q-56 0 -97.5 -27t-66 -75.5t-36.5 -108.5t-12 -132q0 -148 54.5 -233.5t159.5 -85.5q94 0 144.5 50t78.5 142q2 7 4.5 16t4 14t3 11.5t3.5 10l4 7t4 5t5 1.5h5
q-4 -94 -10 -280h-13l-30 47q-112 -40 -217 -40q-161 0 -252 93.5t-91 243.5q0 152 94 254.5t252 102.5z" />
    <glyph glyph-name="afii10036" unicode="&#x422;" horiz-adv-x="664" 
d="M36 695q94 -21 295 -21q210 0 295 22q18 -158 26 -236q-2 -1 -5 -1q-9 0 -15 15l-3 8q-37 104 -77.5 139.5t-131.5 35.5h-26v-552q0 -36 16.5 -56.5t37 -24t37 -8t16.5 -11.5v-5h-338v5q0 7 16 11.5t35.5 8t35.5 24t16 57.5v551h-24q-92 0 -134.5 -39t-77.5 -144
q-5 -15 -17 -15q-2 0 -3 1q18 156 26 235z" />
    <glyph glyph-name="afii10037" unicode="&#x423;" horiz-adv-x="675" 
d="M187 -30q-33 0 -55.5 16.5t-22.5 41.5q0 27 16 44.5t43 17.5q33 0 54 -24.5t25 -59.5q38 27 80 123l-231 453q-15 29 -33.5 45.5t-32.5 20t-23.5 7.5t-9.5 11v7h311v-8q0 -6 -20 -10t-40 -14t-20 -31q0 -13 8 -29l158 -309h2l91 203q3 7 11 24.5t13.5 29t11.5 26.5
t9 26.5t3 18.5q0 27 -22.5 39t-45.5 15.5t-23 11.5v7h233v-7q0 -6 -13.5 -10t-32.5 -9t-44 -28.5t-43 -63.5l-177 -387q-51 -111 -88.5 -154.5t-91.5 -43.5z" />
    <glyph glyph-name="afii10038" unicode="&#x424;" horiz-adv-x="881" 
d="M839 345q0 -101 -87 -167.5t-252 -88.5q2 -29 19 -45.5t35.5 -19.5t34 -7t15.5 -11v-6h-332v6q0 7 14.5 11t32.5 7t34 19.5t18 46.5q-330 41 -330 253q0 93 90 164t240 83q-1 26 -17 40.5t-34 18t-33 7.5t-15 11v7h333v-7q0 -7 -15.5 -11t-34.5 -7t-36 -17.5t-19 -39.5
v-2q154 -8 246.5 -77t92.5 -168zM701 340q0 96 -53 162.5t-148 73.5v-467q91 6 146 74t55 157zM180 345q0 -105 51 -167t141 -70v467q-87 -7 -139.5 -71.5t-52.5 -158.5z" />
    <glyph glyph-name="afii10039" unicode="&#x425;" horiz-adv-x="730" 
d="M444 107l-123 190l-90 -129q-56 -81 -56 -106q0 -17 13 -27t28 -12.5t28 -6.5t13 -11v-5h-250v5q0 7 8.5 10t26 7.5t38.5 14t50 34.5t56 64l126 177l-155 241q-19 30 -40 51.5t-36.5 31t-28.5 15t-19.5 9t-6.5 7.5v6h322v-6q0 -7 -12 -11t-26.5 -7t-26.5 -12t-12 -25
q0 -14 19.5 -47.5t58 -90.5t49.5 -75l87 129q39 58 39 82q0 17 -11 26.5t-24.5 11.5t-24.5 6.5t-11 12.5v6h244v-6q0 -8 -15.5 -13t-39.5 -11.5t-62 -36.5t-74 -81l-99 -140l194 -296q20 -28 43.5 -45t39 -20.5t26.5 -7.5t11 -10v-6h-337v5q0 6 12 10.5t27 7.5t27 12.5
t12 24.5q0 20 -18 47z" />
    <glyph glyph-name="afii10040" unicode="&#x426;" horiz-adv-x="820" 
d="M695 0h-661v5q0 8 15.5 12.5t34.5 8.5t34.5 29.5t15.5 70.5v433q0 39 -15.5 61.5t-34 27t-34 8.5t-15.5 11v6h328v-6q0 -7 -16 -11t-34.5 -7t-34.5 -21t-16 -49v-563h297v544q0 31 -10 51t-24.5 27.5t-28.5 11.5t-24 7.5t-10 9.5v6h327v-6q0 -7 -16 -11t-35 -6.5
t-35 -20.5t-16 -50v-562h16q61 0 88.5 -27.5t27.5 -65.5q0 -49 -34 -81t-95 -32q-52 0 -134.5 11t-124.5 11q-35 0 -52 -14t-21 -46h-17q0 62 24.5 107t81.5 45t148.5 -23.5t126.5 -23.5q30 0 46.5 16.5t16.5 38.5q0 28 -20.5 47.5t-69.5 19.5z" />
    <glyph glyph-name="afii10041" unicode="&#x427;" horiz-adv-x="751" 
d="M484 344q-82 -44 -177 -44q-91 0 -147 47t-56 144v88q0 41 -24 57.5t-48.5 19.5t-24.5 11v7h320v-7q0 -7 -14.5 -11t-32.5 -7t-32.5 -21t-14.5 -49v-106q0 -77 32 -109.5t93 -32.5t126 29v219q0 32 -14 49.5t-31.5 21t-31.5 7t-14 10.5v7h324v-7q0 -7 -16.5 -11t-36 -7
t-36 -21t-16.5 -49v-458q0 -44 16 -68.5t36 -28t36 -7.5t16 -12v-5h-333v5q0 7 15.5 11t34.5 8t34.5 25t15.5 58q0 29 0.5 118t0.5 119z" />
    <glyph glyph-name="afii10042" unicode="&#x428;" horiz-adv-x="1091" 
d="M607 579v-563h218v563q0 31 -14 48.5t-30.5 20.5t-30.5 7.5t-14 11.5v6h320v-6q0 -8 -16 -12t-35 -8.5t-35 -27t-16 -63.5v-428q0 -46 16 -72t34.5 -30.5t34.5 -8.5t16 -12v-5h-1021v5q0 8 16 12t34.5 9t34.5 30.5t16 71.5v428q0 40 -16 63t-34.5 27.5t-34.5 9t-16 11.5
v6h318v-6q0 -7 -14 -11t-31 -7.5t-31 -21t-14 -48.5v-563h216v562q0 32 -13.5 49.5t-30 21t-30 7.5t-13.5 11v6h305v-6q0 -7 -14 -11t-30.5 -7.5t-30.5 -21t-14 -48.5z" />
    <glyph glyph-name="afii10043" unicode="&#x429;" horiz-adv-x="1080" 
d="M962 0h-928v5q0 8 16 12t34.5 9t34.5 30.5t16 71.5v429q0 40 -16 62.5t-34.5 27t-34.5 9t-16 11.5v6h318v-6q0 -7 -14 -11t-30.5 -7.5t-30.5 -21t-14 -48.5v-563h216v562q0 32 -13.5 49.5t-30.5 21t-30.5 7.5t-13.5 11v6h305v-6q0 -7 -14 -11t-30 -7.5t-30 -21t-14 -48.5
v-563h217v563q0 31 -14 48.5t-30.5 20.5t-30.5 7.5t-14 11.5v6h320v-6q0 -8 -16 -12t-35 -8.5t-35 -27t-16 -62.5v-540h16q61 0 88.5 -27.5t27.5 -65.5q0 -49 -34 -81t-95 -32q-52 0 -134.5 11t-124.5 11q-35 0 -52 -14t-21 -46h-17q0 62 24.5 107t81.5 45q56 0 147.5 -23.5
t127.5 -23.5q30 0 46.5 16.5t16.5 38.5q0 28 -20.5 47.5t-69.5 19.5z" />
    <glyph glyph-name="afii10044" unicode="&#x42a;" horiz-adv-x="822" 
d="M30 697l2 1l2 1q37 -25 187 -25h279v-8q0 -7 -15.5 -10.5t-34.5 -6.5t-34.5 -22.5t-15.5 -53.5v-189q61 11 116 11q51 0 96.5 -9.5t86.5 -31t65.5 -62.5t24.5 -96q0 -33 -13.5 -65.5t-41.5 -63t-80 -49t-120 -18.5h-360v6q0 7 15 11t33.5 7.5t33.5 25t15 60.5v546h-42
q-83 0 -125.5 -39t-77.5 -139q-6 -17 -17 -17l-1 1h-3q8 70 25 235zM400 368v-251q0 -52 15.5 -76.5t64.5 -24.5h6q70 0 117 50t47 132q0 89 -51 131.5t-135 42.5q-20 0 -64 -4z" />
    <glyph glyph-name="afii10045" unicode="&#x42b;" horiz-adv-x="993" 
d="M855 579v-456q0 -45 16 -69.5t35.5 -28.5t35.5 -8t16 -12v-5h-332v5q0 8 15.5 12t34.5 8t34.5 29t15.5 69v455q0 32 -15.5 50t-34.5 21t-34.5 7t-15.5 11v6h332v-6q0 -7 -16 -11t-35.5 -7.5t-35.5 -21t-16 -48.5zM263 384q71 11 120 11t93.5 -9.5t86 -30.5t66 -62
t24.5 -97q0 -33 -13.5 -65.5t-41 -63t-79.5 -49t-120 -18.5h-365v6q0 6 10.5 8.5t25 6t29 12.5t25 33.5t10.5 63.5v426q0 40 -16 62.5t-34.5 27.5t-34.5 9.5t-16 11.5v6h334v-6q0 -8 -16.5 -12.5t-35.5 -9t-35.5 -26.5t-16.5 -61v-174zM263 368v-251q0 -52 15.5 -77
t64.5 -25h6q72 0 119 50.5t47 132.5q0 88 -52 131.5t-136 43.5q-29 0 -64 -5z" />
    <glyph glyph-name="afii10046" unicode="&#x42c;" horiz-adv-x="688" 
d="M263 384q71 11 120 11t93.5 -9.5t86.5 -30.5t66.5 -62t24.5 -97q0 -33 -13.5 -65.5t-41 -63t-79.5 -49t-121 -18.5h-365v6q0 7 15.5 10.5t34.5 8.5t34.5 31.5t15.5 74.5v425q0 40 -16 63t-34.5 27.5t-34.5 9t-16 11.5v6h334v-6q0 -7 -16.5 -11.5t-35.5 -9t-35.5 -27
t-16.5 -61.5v-174zM263 368v-251q0 -52 15.5 -76.5t64.5 -24.5h6q72 0 119 50t47 132q0 89 -51 132t-134 43q-30 0 -67 -5z" />
    <glyph glyph-name="afii10047" unicode="&#x42d;" horiz-adv-x="684" 
d="M300 -11q-89 0 -205 40l-34 -47h-10q-6 186 -10 281h5q4 0 6.5 -2.5t5.5 -9.5t4.5 -13t5 -19t5.5 -21q26 -91 75 -142t135 -51q70 0 118.5 47.5t70 118.5t21.5 157q0 24 -1 36q-33 -52 -95 -52q-25 0 -63.5 9t-56.5 9q-39 0 -58 -30q-2 0 -12 5q40 83 121 83
q26 0 67.5 -8.5t56.5 -8.5q32 0 40 14q-14 281 -199 281q-94 0 -153 -47q32 -27 32 -72q0 -27 -17 -46.5t-45 -19.5q-25 0 -39 16t-14 38q0 53 69 101.5t180 48.5q159 0 246.5 -92.5t87.5 -246.5q0 -153 -89.5 -255t-250.5 -102z" />
    <glyph glyph-name="afii10048" unicode="&#x42e;" horiz-adv-x="1110" 
d="M261 579v-219h130q8 138 98.5 231t235.5 93q108 0 186.5 -49.5t115.5 -126.5t37 -171q0 -93 -38.5 -171.5t-117.5 -128t-184 -49.5q-84 0 -149.5 28.5t-105 78t-59.5 112.5t-20 136h-129v-237q0 -37 16.5 -57.5t35.5 -24t35.5 -7.5t16.5 -12v-5h-333v5q0 7 15.5 11
t34.5 7.5t34.5 24.5t15.5 58v472q0 32 -15.5 50t-34.5 21.5t-34.5 7t-15.5 10.5v7h333v-7q0 -7 -16.5 -11t-35.5 -7t-35.5 -21t-16.5 -49zM725 667q-52 0 -90.5 -29t-59.5 -78.5t-30.5 -105t-9.5 -117.5q0 -334 194 -334q190 0 190 328q0 336 -194 336z" />
    <glyph glyph-name="afii10049" unicode="&#x42f;" horiz-adv-x="723" 
d="M459 335v321h-42q-71 0 -117.5 -43t-46.5 -119q0 -74 48.5 -116.5t130.5 -42.5h27zM368 673h320v-7q0 -7 -15.5 -10.5t-34.5 -6.5t-34.5 -21.5t-15.5 -50.5v-444q0 -40 10.5 -65t25 -34t29 -13t25 -6.5t10.5 -9.5v-5h-332v5q0 7 16 11t35.5 7.5t35.5 24.5t16 58v212h-39
q-23 0 -41 -7.5t-29.5 -16t-27 -33t-22 -37.5t-24.5 -51q-6 -13 -17 -38.5t-18 -39.5t-18.5 -34.5t-23.5 -32t-28.5 -23.5t-37.5 -17t-47 -5q-48 0 -95 17l3 15q17 0 32 5t26 10t22.5 18.5t17.5 20.5t16 26.5t13 25.5t12.5 29t11.5 27q32 75 69 108t112 37v4
q-94 5 -150.5 51.5t-56.5 113.5q0 86 65 134t184 48z" />
    <glyph glyph-name="afii10065" unicode="&#x430;" horiz-adv-x="505" 
d="M247 449q182 0 182 -169v-198q0 -38 10 -49.5t46 -12.5q0 -1 0.5 -6t0.5 -6q-38 -19 -83 -19q-78 0 -83 66h-4q-63 -67 -163 -67q-52 0 -87.5 28t-35.5 80q0 56 37 93t86.5 50t109.5 13q29 0 54 -3v65q0 119 -90 119q-47 0 -79 -23q29 -23 29 -64q0 -26 -17 -44t-46 -18
q-22 0 -35 14t-13 35q0 41 44.5 78.5t136.5 37.5zM213 21q30 0 58 15.5t46 39.5v158q-16 2 -28 2q-74 0 -108.5 -33.5t-34.5 -88.5q0 -44 17.5 -68.5t49.5 -24.5z" />
    <glyph glyph-name="afii10066" unicode="&#x431;" horiz-adv-x="546" 
d="M33 247q0 89 18 157t48 107t68 67t78.5 40t79.5 23.5t70 19.5t51.5 25t23.5 43h13q6 -19 6 -47q0 -53 -34 -82t-79 -36.5t-109.5 -22.5t-105.5 -39q-49 -29 -77.5 -82.5t-33.5 -118.5h5q30 66 96 97.5t130 31.5q104 0 167.5 -59t63.5 -160q0 -87 -61.5 -154.5
t-174.5 -67.5q-129 0 -186 73.5t-57 184.5zM274 414q-42 0 -69.5 -33.5t-38 -77t-10.5 -93.5q0 -39 5.5 -73t18 -66t37 -50.5t58.5 -18.5q32 0 56 18.5t36.5 49.5t18 64.5t5.5 71.5q0 55 -8.5 98t-36 76.5t-72.5 33.5z" />
    <glyph glyph-name="afii10067" unicode="&#x432;" horiz-adv-x="534" 
d="M210 421v-176h58q38 0 65 24t27 67q0 38 -24.5 61.5t-66.5 23.5h-59zM329 0h-303v6q0 7 11 10.5t24.5 6t24.5 18.5t11 44v264q0 29 -11 45t-24.5 18.5t-24.5 6t-11 10.5v7h301q77 0 112 -28.5t35 -70.5q0 -38 -35.5 -66t-93.5 -30v-3q78 0 117 -35t39 -79
q0 -49 -42 -86.5t-130 -37.5zM210 229v-159q0 -29 11 -42.5t40 -13.5h19q47 0 74 27.5t27 77.5q0 52 -29 81t-74 29h-68z" />
    <glyph glyph-name="afii10068" unicode="&#x433;" horiz-adv-x="445" 
d="M100 82v268q0 28 -11.5 43.5t-26 19t-26 7.5t-11.5 10v6h205q132 0 188 16l9 -87t8 -87q-1 0 -2.5 -0.5t-2.5 -0.5q-10 0 -14 15q-11 37 -27.5 61.5t-31.5 37.5t-41 19.5t-43.5 7.5t-50.5 1h-9q0 -57 0.5 -171t0.5 -171q0 -26 11.5 -40t25 -16t25 -5t11.5 -10v-6h-258v6
q0 6 11 9t24.5 5.5t24.5 18t11 43.5z" />
    <glyph glyph-name="afii10069" unicode="&#x434;" horiz-adv-x="552" 
d="M458 352v-336q52 0 85 7l1 -1q0 -2 -6 -188h-5q-9 0 -12 16q-13 97 -42.5 123.5t-120.5 26.5h-182q-43 0 -67.5 -6t-40.5 -25t-23.5 -42t-16.5 -71q-5 -22 -13 -22h-4l-6 188l1 1q33 -7 75 -7q43 40 68.5 123t25.5 192q0 37 -13.5 57t-30.5 23.5t-30.5 6.5t-13.5 10v8
h448v-7q0 -8 -19.5 -11t-38.5 -17t-19 -49zM192 419v-69q0 -220 -88 -334h242v403h-154z" />
    <glyph glyph-name="afii10070" unicode="&#x435;" horiz-adv-x="502" 
d="M473 246l-9 -8h-310q0 -108 36.5 -162.5t117.5 -54.5q78 0 146 55l8 -8q-71 -79 -186 -79q-114 0 -178 63.5t-64 165.5q0 99 64 165t169 66q96 0 151 -60t55 -143zM264 435q-47 0 -75.5 -50.5t-33.5 -131.5l204 7v24q0 35 -8 67.5t-30.5 58t-56.5 25.5z" />
    <glyph glyph-name="afii10072" unicode="&#x436;" horiz-adv-x="779" 
d="M444 352v-108h18q45 0 73.5 30.5t55.5 100.5q13 35 31 54.5t52 19.5q30 0 47 -16t17 -37q0 -23 -16 -37.5t-41 -14.5q-48 0 -67 43q-3 -5 -17.5 -44t-32 -63t-45.5 -37v-4q64 0 96 -23.5t57 -83.5q1 -2 6 -15t7.5 -18.5t9 -18.5t11 -20t12 -16.5t15 -15t17 -9.5t19.5 -5
l2 -14q-36 -10 -66 -10q-53 0 -77 17t-42 58q-9 20 -19.5 49.5t-17.5 46t-18 34t-27.5 25.5t-39.5 8h-20v-145q0 -35 18 -49t35.5 -17t17.5 -11v-6h-256v6q0 7 11.5 10t25 5.5t25 18.5t11.5 45v143h-20q-23 0 -38 -5.5t-26 -20.5t-16.5 -27.5t-15.5 -41.5
q-9 -26 -12.5 -35.5t-12 -29.5t-15 -28t-17.5 -20.5t-23 -17t-29 -8.5t-38 -4q-35 0 -65 10l3 14q14 -1 27.5 5.5t22 16t18 26.5t14 27t11.5 29t9 23q22 53 53.5 75.5t94.5 22.5v4q-27 13 -44.5 37t-33 63t-17.5 44q-19 -43 -67 -43q-24 0 -40 15.5t-16 37.5q0 20 16.5 36
t45.5 16q34 0 52.5 -19.5t32.5 -54.5q27 -70 54.5 -100.5t73.5 -30.5h18v103q0 30 -11.5 47t-25 19.5t-25 6t-11.5 10.5v6h256v-6q0 -7 -11 -11t-24.5 -7t-24.5 -18t-11 -42z" />
    <glyph glyph-name="afii10073" unicode="&#x437;" horiz-adv-x="450" 
d="M189 3q49 0 78 32t29 73q0 68 -42.5 95.5t-118.5 25.5v16q149 12 149 106q0 33 -25 56.5t-69 23.5q-47 0 -86 -24q26 -20 26 -58q0 -24 -13 -39.5t-38 -15.5q-22 0 -35 13.5t-13 35.5q0 38 45.5 73t134.5 35q106 0 150.5 -34t44.5 -73q0 -38 -39 -69t-123 -34v-3
q89 -3 131.5 -36t42.5 -82q0 -57 -56.5 -94.5t-162.5 -37.5q-70 0 -138 30l-19 -33h-14q-3 141 -5 198h5q12 0 20 -35l1.5 -3t1 -3t0.5 -4q17 -64 49.5 -99t88.5 -36z" />
    <glyph glyph-name="afii10074" unicode="&#x438;" horiz-adv-x="600" 
d="M386 390h-3l-170 -390h-187v6q0 7 11.5 10.5t25 6t25 19t11.5 46.5v259q0 30 -11.5 47t-24.5 19.5t-24.5 5.5t-11.5 10v7h250v-7q0 -8 -16 -11t-32 -17t-16 -49v-307h2l171 391h187v-7q0 -8 -18.5 -11t-37 -17t-18.5 -49v-269q0 -35 18.5 -49t37 -17t18.5 -11v-6h-250v6
q0 7 10 10t21.5 6t21.5 19.5t10 45.5v303z" />
    <glyph glyph-name="afii10075" unicode="&#x439;" horiz-adv-x="575" 
d="M386 390h-3l-170 -390h-187v6q0 7 11.5 10.5t25 6t25 19t11.5 46.5v259q0 30 -11.5 47t-24.5 19.5t-24.5 5.5t-11.5 10v7h250v-7q0 -8 -16 -11t-32 -17t-16 -49v-307h2l171 391h187v-7q0 -8 -18.5 -11t-37 -17t-18.5 -49v-269q0 -35 18.5 -49t37 -17t18.5 -11v-6h-250v6
q0 7 10 10t21.5 6t21.5 19.5t10 45.5v303zM282 533q-45 0 -69 23t-24 55q0 23 15.5 38.5t38.5 15.5q25 0 38 -19.5t13 -45.5q0 -25 -11 -41q52 -4 105 20.5t92 69.5l9 -7q-44 -60 -102 -84.5t-105 -24.5z" />
    <glyph glyph-name="afii10076" unicode="&#x43a;" horiz-adv-x="552" 
d="M99 86v263q0 28 -11.5 43.5t-24.5 19t-24.5 7.5t-11.5 10v7h256v-8q0 -6 -11 -9.5t-24.5 -7.5t-24.5 -23t-11 -51v-93h20q80 0 117 98q1 3 6.5 17.5t7 19t7.5 17t10 17.5t11.5 13.5t15 12.5t17.5 7t22 3q30 0 47 -16t17 -37q0 -23 -16 -37.5t-41 -14.5q-50 0 -66 43
q-4 -7 -18.5 -44t-32 -62t-45.5 -38v-4q60 0 92.5 -21t53.5 -71q2 -4 11 -29t15 -37t17.5 -30t26.5 -26.5t34 -9.5l3 -15q-36 -10 -84 -10q-71 0 -103 75q-9 22 -22.5 60.5t-21 56t-26.5 32.5t-47 15h-28v-147q0 -32 18 -47.5t35.5 -19t17.5 -9.5v-6h-257v6q0 6 11.5 9.5
t25 7t25 19.5t11.5 44z" />
    <glyph glyph-name="afii10077" unicode="&#x43b;" horiz-adv-x="564" 
d="M349 420h-125q-1 -21 -2.5 -65t-2.5 -72t-5 -70.5t-9.5 -70t-17 -59.5t-26.5 -50.5t-38.5 -31t-53.5 -12.5q-26 0 -46.5 14.5t-20.5 39.5q0 19 14 32.5t35 13.5q56 0 68 -71q46 32 65 111t19 214q0 41 -21.5 57t-43.5 18.5t-22 10.5v7h421v-7q0 -8 -11.5 -11.5t-26 -6
t-26 -17t-11.5 -42.5v-269q0 -28 10.5 -43t23.5 -17.5t23.5 -6t10.5 -10.5v-6h-252v6q0 7 11 10t24.5 5.5t24.5 19t11 46.5v333z" />
    <glyph glyph-name="afii10078" unicode="&#x43c;" horiz-adv-x="716" 
d="M618 356l6 -273q1 -27 12 -42.5t23.5 -18.5t23 -6.5t10.5 -9.5v-6h-247v6q0 6 10.5 9.5t23 7t23 18t9.5 40.5l-7 309h-3q-32 -78 -170 -393h-14l-195 394h-4l-4 -304q0 -30 13 -46.5t28.5 -19t28.5 -6t13 -10.5v-5h-188v6q0 7 21.5 10t43.5 19.5t22 54.5l4 270
q0 31 -18 43.5t-36 15t-18 9.5v8h190l150 -312h4q15 36 63.5 149.5t68.5 162.5h183v-8q0 -6 -18 -10t-35.5 -17.5t-16.5 -44.5z" />
    <glyph glyph-name="afii10079" unicode="&#x43d;" horiz-adv-x="594" 
d="M213 224v-142q0 -27 10 -42t21.5 -17.5t21.5 -6t10 -10.5v-6h-250v6q0 7 11.5 10t25 6t25 19.5t11.5 46.5v259q0 30 -11.5 47t-24.5 19.5t-24.5 5.5t-11.5 10v7h250v-7q0 -8 -16 -11t-32 -17t-16 -49v-111h166v106q0 30 -9.5 46t-21.5 19t-21.5 6.5t-9.5 10.5v7h250v-7
q0 -8 -18.5 -11t-37 -17t-18.5 -49v-269q0 -35 18.5 -49t37 -17t18.5 -11v-6h-250v6q0 7 9.5 10t21.5 6t21.5 19.5t9.5 45.5v137h-166z" />
    <glyph glyph-name="afii10080" unicode="&#x43e;" horiz-adv-x="553" 
d="M34 220q0 99 65 164.5t176 65.5q118 0 181 -64.5t63 -163.5q0 -98 -65.5 -166t-178.5 -68q-116 0 -178.5 66t-62.5 166zM156 221q0 -42 6 -78.5t19 -70t37.5 -52.5t58.5 -19q62 0 91 64t29 152q0 42 -6 78.5t-19 69t-37.5 51.5t-58.5 19q-42 0 -70.5 -34.5t-39 -80.5
t-10.5 -99z" />
    <glyph glyph-name="afii10081" unicode="&#x43f;" horiz-adv-x="597" 
d="M379 87l1 333h-170v-338q0 -27 10 -42t21.5 -17.5t21.5 -6t10 -10.5v-6h-246v6q0 8 17.5 10.5t35 18t17.5 53.5v259q0 39 -18.5 54.5t-36.5 18t-18 10.5v6h543v-6q0 -7 -11.5 -11t-26 -6.5t-26 -17.5t-11.5 -43v-269q0 -27 10.5 -42t23.5 -17.5t23.5 -6.5t10.5 -11v-6
h-247v6q0 8 16.5 10.5t33 17.5t16.5 53z" />
    <glyph glyph-name="afii10082" unicode="&#x440;" horiz-adv-x="587" 
d="M432 220q0 93 -32 146t-91 53q-31 0 -62 -14.5t-50 -41.5v-321q49 -33 105 -33q68 0 99 59t31 152zM343 450q96 0 153 -60t57 -162q0 -116 -62 -178t-163 -62q-76 0 -127 34l-5 -1v-158q0 -27 10.5 -41t23.5 -16t23.5 -5t10.5 -10v-6h-251v6q0 7 11.5 10t24.5 5
t24.5 17.5t11.5 45.5v477q0 28 -11.5 42.5t-24.5 16.5t-24.5 5t-11.5 10v7l169 22l5 -5l-7 -74l4 -1q59 81 159 81z" />
    <glyph glyph-name="afii10083" unicode="&#x441;" horiz-adv-x="455" 
d="M281 450q82 0 117 -31t35 -69q0 -23 -14 -39t-36 -16q-28 0 -41.5 17.5t-13.5 44.5q0 35 20 65q-22 8 -47 8q-65 0 -105.5 -55t-40.5 -155q0 -99 39.5 -149t112.5 -50q70 0 126 35l6 -12q-72 -56 -173 -56q-110 0 -171 60t-61 163q0 105 67.5 172t179.5 67z" />
    <glyph glyph-name="afii10084" unicode="&#x442;" horiz-adv-x="458" 
d="M300 420h-16v-338q0 -32 17.5 -47.5t35 -19.5t17.5 -9v-6h-257v6q0 5 11.5 8.5t26 7.5t26 20t11.5 44v334q-55 0 -85.5 -27t-61.5 -106q-6 -15 -12 -15q-2 0 -4 0.5t-3 0.5q8 94 18 177q69 -14 202 -14q108 0 182 10q2 0 11 1.5t14 1.5q5 -58 17 -176q-1 0 -2.5 -0.5
t-3.5 -0.5q-8 0 -12 15q-25 75 -56.5 104t-75.5 29z" />
    <glyph glyph-name="afii10085" unicode="&#x443;" horiz-adv-x="533" 
d="M82 -225q-34 0 -54.5 16t-20.5 44q0 23 16.5 38t39.5 15q33 0 54.5 -23t26.5 -54q55 26 103 143l13 36h-13l-159 358q-16 35 -38 50.5t-35.5 18.5t-13.5 11v7h269v-7q0 -7 -17 -10t-34.5 -11.5t-17.5 -28.5q0 -10 8 -32l99 -233h3l78 215q11 30 11 45q0 18 -11 28.5
t-24.5 12.5t-24.5 5t-11 9v7h198v-6q0 -5 -13 -8.5t-30.5 -8.5t-40 -29t-38.5 -65l-143 -367q-69 -176 -180 -176z" />
    <glyph glyph-name="afii10086" unicode="&#x444;" horiz-adv-x="791" 
d="M338 -122v138q-50 -29 -100 -29q-97 0 -150.5 61t-53.5 164q0 113 61 174.5t161 61.5q37 0 82 -15v189q0 35 -19 48t-38 14.5t-19 8.5v7q106 18 181 26l5 -4v-305q47 32 107 32q95 0 148 -63t53 -163q0 -114 -61.5 -174t-163.5 -60q-40 0 -82 15v-130q0 -33 18.5 -48
t37.5 -19t19 -11v-6h-259v7q0 6 11.5 9.5t25 7t25 20t11.5 44.5zM516 418q-37 0 -68 -19q0 -32 0.5 -189t0.5 -190q30 -11 59 -11q66 0 97 57t31 154q0 100 -32.5 149t-87.5 49zM271 15q37 0 67 18v382q-32 11 -56 11q-66 0 -97.5 -57t-31.5 -153q0 -102 31.5 -151.5
t86.5 -49.5z" />
    <glyph glyph-name="afii10087" unicode="&#x445;" horiz-adv-x="539" 
d="M218 199l-116 166q-19 27 -40 39.5t-31.5 15.5t-10.5 10v6h260v-6q0 -7 -14.5 -10.5t-29 -10.5t-14.5 -22q0 -7 5 -18t15.5 -26.5t18.5 -27.5t22.5 -31t19.5 -27l55 74q23 30 23 51q0 17 -16.5 25t-33.5 12t-17 11v6h202v-6q0 -6 -11.5 -11t-29 -10.5t-46 -26.5
t-55.5 -56l-63 -81q23 -32 65 -91.5t51 -72.5q23 -34 50 -48.5t41.5 -17.5t14.5 -10v-5h-279v5q0 6 30 14.5t30 25.5q0 16 -22 47l-66 94l-66 -88q-19 -26 -19 -41q0 -22 17 -30.5t34.5 -11.5t17.5 -10v-5h-201v4q0 7 14 11t43 18t56 45q14 14 30 34.5t35.5 46.5t30.5 40z
" />
    <glyph glyph-name="afii10088" unicode="&#x446;" horiz-adv-x="593" 
d="M504 0h-478v6q0 7 11.5 10t25 5.5t25 19.5t11.5 47v259q0 39 -17.5 54t-35.5 18t-18 10v7h248v-7q0 -7 -10 -10.5t-22 -6t-22 -18.5t-10 -44v-333h173v328q0 39 -15.5 54.5t-31 18.5t-15.5 11v7h246v-7q0 -7 -11 -10.5t-24.5 -6t-24.5 -17.5t-11 -42q0 -28 -0.5 -168.5
t-0.5 -168.5h13q54 0 78 -24.5t24 -58.5q0 -46 -31.5 -74t-90.5 -28q-42 0 -112 10t-107 10q-31 0 -45.5 -13t-18.5 -42h-15q0 57 22 97.5t72 40.5q49 0 129.5 -21.5t112.5 -21.5q26 0 40.5 15t14.5 35q0 59 -79 59z" />
    <glyph glyph-name="afii10089" unicode="&#x447;" horiz-adv-x="547" 
d="M333 202l-3 1q-61 -41 -134 -41q-58 0 -96 32t-38 103v53q0 29 -11 44.5t-25 18t-25 6t-11 10.5v7h246v-7q0 -7 -15 -10t-30.5 -17t-15.5 -49v-71q0 -47 15 -68t52 -21q54 0 91 30v134q0 33 -15.5 46t-30.5 15.5t-15 10.5v7h248v-7q0 -7 -11.5 -10.5t-25.5 -6t-25.5 -19
t-11.5 -46.5v-259q0 -39 18.5 -54t37 -17.5t18.5 -10.5v-6h-251v6q0 7 16 10t32 16.5t16 47.5v122z" />
    <glyph glyph-name="afii10090" unicode="&#x448;" horiz-adv-x="812" 
d="M26 0v6q0 7 11.5 10t25 5.5t25 19.5t11.5 47v259q0 39 -17.5 54t-35.5 18t-18 10v7h242v-7q0 -8 -14.5 -11t-29 -17.5t-14.5 -50.5v-333h136v328q0 39 -14 54.5t-28 19t-14 10.5v7h229v-7q0 -8 -15 -10.5t-30 -16.5t-15 -48v-337h138v333q0 28 -9 43.5t-19.5 18
t-19.5 6.5t-9 11v7h241v-7q0 -7 -11 -10t-24 -5.5t-24 -19t-11 -45.5v-265q0 -29 11.5 -44.5t24.5 -18t24.5 -5.5t11.5 -10v-6h-759z" />
    <glyph glyph-name="afii10091" unicode="&#x449;" horiz-adv-x="809" 
d="M720 0h-693v6q0 7 11.5 10t24.5 6t24.5 19.5t11.5 46.5v259q0 30 -11 47t-24.5 19.5t-24.5 6t-11 10.5v6h242v-7q0 -8 -14.5 -11t-29 -17t-14.5 -50q0 -12 0.5 -167.5t0.5 -166.5h135v328q0 30 -9 47t-19 20t-19 6.5t-9 10.5v7h230v-7q0 -8 -15 -10.5t-30.5 -16
t-15.5 -47.5v-338h139v328q0 25 -6 41t-14 21.5t-16 8t-14 5t-6 8.5v7h241v-7q0 -7 -11.5 -10.5t-24.5 -6t-24.5 -17.5t-11.5 -42v-336h13q54 -1 78 -25.5t24 -58.5q0 -44 -30.5 -73.5t-84.5 -29.5q-44 0 -116 10t-110 10q-30 0 -45 -12.5t-19 -41.5h-14q0 56 21.5 97
t71.5 41q49 0 129.5 -21.5t112.5 -21.5q27 0 41 14.5t14 34.5q0 60 -79 60z" />
    <glyph glyph-name="afii10092" unicode="&#x44a;" horiz-adv-x="627" 
d="M200 85q0 55 -0.5 167t-0.5 167q-74 0 -114.5 -23.5t-68.5 -103.5q-5 -14 -14 -14h-3q4 60 16 174q1 0 1 1q53 -17 175 -17h195v-6q0 -7 -11.5 -10.5t-26 -7t-26 -19t-11.5 -43.5v-71q48 6 83 6q64 0 108 -15.5t63.5 -40.5t26.5 -46t7 -42q0 -55 -45.5 -98t-142.5 -43
h-283v6q0 7 11 9.5t25 5t25 18.5t11 46zM311 263v-182q0 -34 11 -50t41 -16h13q46 0 74.5 34.5t28.5 84.5q0 58 -30 95t-96 37q-18 0 -42 -3z" />
    <glyph glyph-name="afii10093" unicode="&#x44b;" horiz-adv-x="779" 
d="M26 0v6q0 6 11 9.5t24.5 6.5t24.5 19t11 44v265q0 28 -11 44t-24.5 19t-24.5 6.5t-11 10.5v6h262v-6q0 -9 -19.5 -12t-39 -16t-19.5 -47v-73q46 6 84 6q62 0 106 -15.5t64 -40t27.5 -45.5t7.5 -42q0 -26 -9 -50t-30 -46t-61 -35.5t-96 -13.5h-277zM210 267v-189
q0 -31 10.5 -47.5t39.5 -16.5h10q51 0 79 37t28 89q0 129 -135 129q-10 0 -32 -2zM676 353v-272q0 -34 19 -47.5t38 -16.5t19 -11v-6h-263v6q0 7 11.5 10.5t25 6t25 18.5t11.5 44v264q0 29 -11.5 45t-25 19t-25 6.5t-11.5 10.5v6h263v-6q0 -7 -12 -11t-26 -6.5t-26 -17.5
t-12 -42z" />
    <glyph glyph-name="afii10094" unicode="&#x44c;" horiz-adv-x="522" 
d="M20 0v6q0 6 11 9.5t25 6.5t25 19t11 44v265q0 36 -18 51t-36 18.5t-18 10.5v6h263v-6q0 -9 -19.5 -12t-39 -16t-19.5 -47v-73q47 6 84 6q62 0 106 -15.5t63.5 -40t27 -45.5t7.5 -42q0 -59 -45 -102t-150 -43h-278zM205 267v-192q0 -31 10.5 -46t39.5 -15h10q50 0 78.5 37
t28.5 89q0 56 -30.5 93.5t-88.5 37.5q-12 0 -48 -4z" />
    <glyph glyph-name="afii10095" unicode="&#x44d;" horiz-adv-x="470" 
d="M201 450q109 0 172 -62.5t63 -164.5q0 -104 -71 -170t-176 -66q-71 0 -135 30l-20 -33h-14l-4 199h4q9 0 13.5 -8.5t11.5 -36.5q36 -135 136 -135q66 0 99 60.5t33 163.5q-27 -39 -68 -39q-20 0 -48 10t-40 10q-20 0 -35 -18l-10 6q28 60 82 60q19 0 50 -7.5t45 -7.5
q12 0 23 9q-3 86 -37.5 133t-98.5 47q-45 0 -76 -25q25 -21 25 -57q0 -25 -14 -42t-40 -17q-22 0 -34 14t-12 37q0 38 44 74t132 36z" />
    <glyph glyph-name="afii10096" unicode="&#x44e;" horiz-adv-x="807" 
d="M537 450q116 0 176 -64.5t60 -163.5t-62.5 -166.5t-173.5 -67.5q-114 0 -173.5 64.5t-60.5 164.5h-91v-136q0 -26 12 -40.5t27 -17.5t27 -6.5t12 -10.5v-6h-263v6q0 6 11.5 9.5t24.5 6.5t24.5 19t11.5 44v264q0 29 -11.5 45t-24.5 19t-24.5 6.5t-11.5 10.5v6h263v-6
q0 -7 -12 -11t-27 -6.5t-27 -17.5t-12 -42v-119h91q4 94 66 155t168 61zM537 435q-31 0 -53.5 -19t-35 -51t-18 -68t-5.5 -76q0 -220 114 -220q60 0 86.5 62.5t26.5 153.5q0 218 -115 218z" />
    <glyph glyph-name="afii10097" unicode="&#x44f;" horiz-adv-x="529" 
d="M69 322q0 114 204 114h233v-7q0 -6 -11.5 -10t-25.5 -7.5t-25.5 -18.5t-11.5 -41v-269q0 -34 18 -48.5t35.5 -18t17.5 -10.5v-6h-257v6q0 6 18.5 9.5t37 20t18.5 54.5v118h-22q-36 0 -54.5 -16.5t-35.5 -60.5q-2 -6 -8.5 -24.5t-9 -24.5t-9 -21.5t-11 -21t-12 -16.5
t-15 -15.5t-18 -10t-22.5 -7.5t-27 -2q-42 0 -80 12l2 14q9 0 17.5 2.5t14.5 5.5t13 11l10.5 12t10 15.5t8.5 15.5t8.5 18.5t7.5 17.5q22 48 48 71.5t80 28.5v4q-73 2 -110 33t-37 73zM320 223v196h-34q-48 0 -76.5 -27.5t-28.5 -70.5q0 -44 28 -71t79 -27h32z" />
    <glyph glyph-name="afii10071" unicode="&#x451;" horiz-adv-x="502" 
d="M473 246l-9 -8h-310q0 -108 36.5 -162.5t117.5 -54.5q78 0 146 55l8 -8q-71 -79 -186 -79q-114 0 -178 63.5t-64 165.5q0 99 64 165t169 66q96 0 151 -60t55 -143zM264 435q-47 0 -75.5 -50.5t-33.5 -131.5l204 7v24q0 35 -8 67.5t-30.5 58t-56.5 25.5zM174 657
q23 0 40 -16.5t17 -39.5q0 -24 -17 -40.5t-40 -16.5t-39.5 16.5t-16.5 40.5q0 23 16.5 39.5t39.5 16.5zM360 657q23 0 40 -16.5t17 -39.5q0 -24 -17 -40.5t-40 -16.5q-24 0 -40 16.5t-16 40.5q0 23 16 39.5t40 16.5z" />
    <glyph glyph-name="afii10099" unicode="&#x452;" horiz-adv-x="550" 
d="M75 553h-64v17h64v59q0 28 -11.5 43.5t-24.5 17.5t-24.5 4.5t-11.5 9.5v7q128 15 181 22q3 -2 5 -5v-158h163v-17h-163v-77q0 -64 -13 -114h1q1 -1 2 -1q57 82 148 82t138 -79t47 -194q0 -89 -29 -169.5t-86.5 -133.5t-129.5 -53q-16 0 -31.5 3.5t-31.5 17t-16 36.5
q0 21 13.5 34.5t32.5 13.5q28 0 44.5 -19t16.5 -53q0 -11 -1 -17q51 14 73.5 92t22.5 242q0 249 -100 249q-29 0 -57 -17.5t-45 -45.5v-270q0 -27 11 -41.5t23.5 -17t23.5 -5.5t11 -10v-6h-252v6q0 7 11 9.5t24 5t24 18.5t11 46v468z" />
    <glyph glyph-name="afii10100" unicode="&#x453;" horiz-adv-x="445" 
d="M173 508l-6 10q40 28 67 61t37 54.5t23 36.5t31 15q20 0 30.5 -11.5t10.5 -27.5q0 -28 -51 -70.5t-142 -67.5zM100 82v268q0 28 -11.5 43.5t-26 19t-26 7.5t-11.5 10v6h205q132 0 188 16l9 -87t8 -87q-1 0 -2.5 -0.5t-2.5 -0.5q-10 0 -14 15q-11 37 -27.5 61.5
t-31.5 37.5t-41 19.5t-43.5 7.5t-50.5 1h-9q0 -57 0.5 -171t0.5 -171q0 -26 11.5 -40t25 -16t25 -5t11.5 -10v-6h-258v6q0 6 11 9t24.5 5.5t24.5 18t11 43.5z" />
    <glyph glyph-name="afii10101" unicode="&#x454;" horiz-adv-x="455" 
d="M281 450q82 0 115.5 -29.5t33.5 -65.5q0 -22 -13 -36.5t-34 -14.5q-25 0 -38 16.5t-13 40.5q0 31 18 60q-19 8 -49 8q-65 0 -105.5 -54t-40.5 -154q28 28 74 28q17 0 43.5 -7.5t39.5 -7.5q19 0 30 17q3 -2 9 -4q-19 -63 -79 -63q-20 0 -48 10t-41 10q-17 0 -28 -5
q9 -178 152 -178q70 0 126 35l6 -12q-72 -56 -173 -56q-110 0 -171 60t-61 163q0 105 67.5 172t179.5 67z" />
    <glyph glyph-name="afii10102" unicode="&#x455;" horiz-adv-x="431" 
d="M46 318q0 60 47.5 96t126.5 36q70 0 113.5 -24.5t43.5 -65.5q-1 -22 -14.5 -34.5t-31.5 -12.5q-24 0 -40 16.5t-16 42.5q0 29 11 54q-24 9 -51 9q-34 0 -61 -20t-27 -62q0 -26 26.5 -46t63.5 -35.5t74.5 -33.5t64 -48t26.5 -70q0 -64 -57.5 -98t-140.5 -34
q-77 0 -125.5 26t-48.5 67q0 23 14.5 36t34.5 13q27 0 43.5 -17.5t16.5 -45.5q0 -32 -14 -53q27 -12 68 -12t71.5 24t30.5 68q0 34 -39 60.5t-85.5 42.5t-85.5 47t-39 74z" />
    <glyph glyph-name="afii10103" unicode="&#x456;" horiz-adv-x="321" 
d="M107 81v266q0 28 -11.5 42.5t-25 16.5t-25 5t-11.5 10v7l180 21l2 -2q2 -2 3 -2v-369q0 -26 12 -39.5t26 -15.5t26 -5t12 -10v-6h-259v6q0 7 11 10t24.5 5t24.5 17t11 43zM158 684q28 0 47.5 -19.5t19.5 -46.5q0 -29 -19.5 -48.5t-47.5 -19.5t-47.5 19.5t-19.5 48.5
q0 27 19.5 46.5t47.5 19.5z" />
    <glyph glyph-name="afii10104" unicode="&#x457;" horiz-adv-x="321" 
d="M62 650q23 0 40 -16.5t17 -39.5q0 -24 -17 -40.5t-40 -16.5t-39.5 16.5t-16.5 40.5q0 23 16.5 39.5t39.5 16.5zM248 650q23 0 40 -16.5t17 -39.5q0 -24 -17 -40.5t-40 -16.5q-24 0 -40 16.5t-16 40.5q0 23 16 39.5t40 16.5zM107 81v266q0 28 -11.5 42.5t-25 16.5t-25 5
t-11.5 10v7l180 21l2 -2q2 -2 3 -2v-369q0 -26 12 -39.5t26 -15.5t26 -5t12 -10v-6h-259v6q0 7 11 10t24.5 5t24.5 17t11 43z" />
    <glyph glyph-name="afii10105" unicode="&#x458;" horiz-adv-x="282" 
d="M16 -229q-29 0 -51.5 15t-22.5 43q0 20 16 34.5t38 14.5q33 0 50.5 -24.5t17.5 -59.5q33 12 33 64v489q0 28 -12 42.5t-27 16.5t-27 5t-12 10v7l186 22l4 -5v-430q0 -115 -50 -170q-24 -31 -64 -52.5t-79 -21.5zM148 684q29 0 48.5 -19.5t19.5 -46.5q0 -29 -19.5 -49
t-48.5 -20q-28 0 -47.5 20t-19.5 49q0 26 19.5 46t47.5 20z" />
    <glyph glyph-name="afii10106" unicode="&#x459;" horiz-adv-x="758" 
d="M523 436v-7q0 -7 -12 -10.5t-27 -5t-27 -16t-12 -41.5v-74q46 6 80 6q63 0 107 -15.5t63.5 -40t27 -45.5t7.5 -42q0 -59 -45.5 -102t-150.5 -43h-274v6q0 7 11 9.5t24.5 5t24.5 17.5t11 44v338h-109q-1 -21 -2.5 -65t-2.5 -72t-5 -70.5t-9.5 -70t-17 -59.5t-26.5 -50.5
t-38.5 -31t-53.5 -12.5q-26 0 -46.5 14.5t-20.5 39.5q0 19 14 32.5t35 13.5q56 0 68 -71q46 32 65 111t19 214q0 41 -21.5 57t-43.5 18.5t-22 10.5v7h409zM445 267v-192q0 -31 10.5 -46t39.5 -15h7q50 0 78.5 37t28.5 89q0 55 -31 93t-88 38q-11 0 -45 -4z" />
    <glyph glyph-name="afii10107" unicode="&#x45a;" horiz-adv-x="797" 
d="M373 248v100q0 38 -15.5 53t-31 18t-15.5 10v7h250v-7q0 -8 -18.5 -11t-37 -17t-18.5 -49v-87q43 7 76 7q63 0 107 -14t63.5 -37t27 -43t7.5 -40q0 -57 -44 -97.5t-145 -40.5h-274v6q0 6 10.5 9.5t23.5 6t23.5 18.5t10.5 44v147h-161v-150q0 -27 10 -41.5t22 -17t22 -6
t10 -10.5v-6h-250v6q0 7 11.5 10.5t25 6t25 19t11.5 46.5v259q0 30 -11.5 46.5t-25 19t-25 6t-11.5 10.5v7h250v-7q0 -8 -16 -10.5t-32 -16.5t-16 -48v-106h161zM487 251v-176q0 -31 10 -46t39 -15h7q50 0 77 34t27 86q0 54 -28.5 87t-84.5 33q-23 0 -47 -3z" />
    <glyph glyph-name="afii10108" unicode="&#x45b;" horiz-adv-x="579" 
d="M484 315v-235q0 -28 11.5 -42.5t25.5 -16.5t25.5 -5t11.5 -10v-6h-252v6q0 7 10 10t22.5 5t22.5 18t10 46v250q0 38 -19.5 60.5t-48.5 22.5t-58 -18t-44 -47v-273q0 -35 16.5 -48.5t33 -15.5t16.5 -10v-6h-253v6q0 7 11.5 9.5t25.5 4.5t25.5 18.5t11.5 46.5v469h-70v16
h70v59q0 28 -11 43.5t-25 17.5t-25 4.5t-11 9.5v7l181 22l5 -5v-158h160v-16h-160q0 -5 -0.5 -36.5t-0.5 -38.5q0 -72 -13 -112l4 -1q55 83 156 83q58 0 97 -32t39 -102z" />
    <glyph glyph-name="afii10109" unicode="&#x45c;" horiz-adv-x="552" 
d="M208 508l-6 10q40 28 67 61t37 54.5t23 36.5t31 15q20 0 30.5 -11.5t10.5 -27.5q0 -28 -51 -70.5t-142 -67.5zM99 86v263q0 28 -11.5 43.5t-24.5 19t-24.5 7.5t-11.5 10v7h256v-8q0 -6 -11 -9.5t-24.5 -7.5t-24.5 -23t-11 -51v-93h20q80 0 117 98q1 3 6.5 17.5t7 19
t7.5 17t10 17.5t11.5 13.5t15 12.5t17.5 7t22 3q30 0 47 -16t17 -37q0 -23 -16 -37.5t-41 -14.5q-50 0 -66 43q-4 -7 -18.5 -44t-32 -62t-45.5 -38v-4q60 0 92.5 -21t53.5 -71q2 -4 11 -29t15 -37t17.5 -30t26.5 -26.5t34 -9.5l3 -15q-36 -10 -84 -10q-71 0 -103 75
q-9 22 -22.5 60.5t-21 56t-26.5 32.5t-47 15h-28v-147q0 -32 18 -47.5t35.5 -19t17.5 -9.5v-6h-257v6q0 6 11.5 9.5t25 7t25 19.5t11.5 44z" />
    <glyph glyph-name="afii10110" unicode="&#x45e;" horiz-adv-x="533" 
d="M82 -225q-34 0 -54.5 16t-20.5 44q0 23 16.5 38t39.5 15q33 0 54.5 -23t26.5 -54q55 26 103 143l13 36h-13l-159 358q-16 35 -38 50.5t-35.5 18.5t-13.5 11v7h269v-7q0 -7 -17 -10t-34.5 -11.5t-17.5 -28.5q0 -10 8 -32l99 -233h3l78 215q11 30 11 45q0 18 -11 28.5
t-24.5 12.5t-24.5 5t-11 9v7h198v-6q0 -5 -13 -8.5t-30.5 -8.5t-40 -29t-38.5 -65l-143 -367q-69 -176 -180 -176zM263 544q-45 0 -69 23t-24 55q0 23 15.5 38.5t38.5 15.5q25 0 38 -19.5t13 -45.5q0 -25 -11 -41q52 -4 105 20.5t92 69.5l9 -7q-44 -60 -102 -84.5
t-105 -24.5z" />
    <glyph glyph-name="afii10193" unicode="&#x45f;" horiz-adv-x="597" 
d="M572 0h-244q-24 -8 -24 -31q0 -11 14 -45t14 -59q0 -73 -96 -73q-35 0 -63 10l3 15q73 -10 80 53q1 11 2.5 33t3.5 33.5t6 26.5t12.5 23.5t21.5 13.5h-277v6q0 7 18.5 10t36.5 18t18 54v259q0 30 -11.5 47t-25 19.5t-25 6t-11.5 10.5v6h247v-7q0 -7 -15 -9.5t-30.5 -17.5
t-15.5 -51v-334h173v328q0 25 -6 40.5t-14.5 21.5t-17.5 9t-15 5.5t-6 7.5v7h246v-7q0 -7 -11.5 -10.5t-25 -6t-25 -17.5t-11.5 -42v-271q0 -27 11.5 -42t25.5 -17.5t25.5 -6t11.5 -10.5v-6z" />
    <glyph glyph-name="afii10050" unicode="&#x490;" horiz-adv-x="600" 
d="M135 573q0 34 -16 53.5t-34.5 22.5t-34.5 6.5t-16 10.5v8h344q82 0 126 34.5t73 125.5q6 17 15 17q4 0 6 -1q-9 -71 -25 -213q-63 19 -191 19h-118v-531q0 -45 16 -70t34.5 -29.5t34.5 -8.5t16 -12v-5h-328v5q0 8 15.5 12.5t33.5 9.5t33.5 33.5t15.5 78.5v434z" />
    <glyph glyph-name="afii10098" unicode="&#x491;" horiz-adv-x="423" 
d="M98 87v263q0 35 -18.5 50t-37.5 18.5t-19 11.5v6h222q64 0 99 24t62 95q4 10 6.5 12.5t7.5 2.5h4q-1 -16 -17 -163q-80 12 -169 12h-27v-337q0 -34 16.5 -48t33 -17.5t16.5 -10.5v-6h-248v6q0 6 11 9.5t23.5 7t23.5 19.5t11 45z" />
    <glyph glyph-name="endash" unicode="&#x2013;" horiz-adv-x="532" 
d="M498 238h-464v30h464v-30z" />
    <glyph glyph-name="emdash" unicode="&#x2014;" horiz-adv-x="831" 
d="M796 238h-762v30h762v-30z" />
    <glyph glyph-name="afii00208" unicode="&#x2015;" horiz-adv-x="831" 
d="M796 238h-762v30h762v-30z" />
    <glyph glyph-name="quoteleft" unicode="&#x2018;" horiz-adv-x="227" 
d="M56 530q0 39 27 90t67 83l9 -9q-31 -28 -55 -68.5t-26 -71.5q21 12 40 12q24 0 40.5 -15t16.5 -39q0 -22 -16 -38t-40 -16q-30 0 -46.5 20t-16.5 52z" />
    <glyph glyph-name="quoteright" unicode="&#x2019;" horiz-adv-x="235" 
d="M171 636q0 -39 -27.5 -89.5t-66.5 -83.5l-3 3t-4 3.5t-2 2.5q32 28 55.5 68.5t24.5 71.5q-19 -12 -39 -12q-24 0 -40.5 15t-16.5 39q0 22 15.5 38t39.5 16q31 0 47.5 -20t16.5 -52z" />
    <glyph glyph-name="quotesinglbase" unicode="&#x201a;" horiz-adv-x="235" 
d="M181 35q0 -39 -27 -90t-67 -83l-9 9q31 29 55 69.5t26 70.5q-19 -11 -40 -11q-24 0 -40.5 15t-16.5 38q0 22 16 38t40 16q30 0 46.5 -20t16.5 -52z" />
    <glyph glyph-name="quotedblleft" unicode="&#x201c;" horiz-adv-x="364" 
d="M51 535q0 39 27.5 89.5t66.5 83.5l9 -9q-31 -28 -55 -69t-25 -72q17 12 39 12q24 0 40.5 -15t16.5 -39q0 -22 -16 -37.5t-40 -15.5q-30 0 -46.5 20t-16.5 52zM195 535q0 39 27.5 89.5t66.5 83.5l9 -9q-31 -28 -55 -69t-25 -72q17 12 39 12q24 0 40.5 -15t16.5 -39
q0 -22 -16 -37.5t-40 -15.5q-30 0 -46.5 20t-16.5 52z" />
    <glyph glyph-name="quotedblright" unicode="&#x201d;" horiz-adv-x="372" 
d="M317 630q0 -40 -27 -90.5t-67 -82.5l-9 8q31 29 55 69.5t26 71.5q-21 -12 -40 -12q-24 0 -40.5 15t-16.5 39q0 22 16 38t40 16q30 0 46.5 -20t16.5 -52zM173 630q0 -40 -27 -90.5t-67 -82.5l-9 8q31 29 55 69.5t26 71.5q-21 -12 -40 -12q-24 0 -40.5 15t-16.5 39
q0 22 16 38t40 16q30 0 46.5 -20t16.5 -52z" />
    <glyph glyph-name="quotedblbase" unicode="&#x201e;" horiz-adv-x="372" 
d="M315 36q0 -39 -27.5 -89.5t-66.5 -83.5l-9 9q31 28 55 69t25 71q-18 -11 -39 -11q-25 0 -41 14.5t-16 38.5q0 22 15.5 38t39.5 16q31 0 47.5 -20t16.5 -52zM171 36q0 -39 -27.5 -89.5t-66.5 -83.5l-9 9q31 28 55 69t25 71q-18 -11 -39 -11q-25 0 -41 14.5t-16 38.5
q0 22 15.5 38t39.5 16q31 0 47.5 -20t16.5 -52z" />
    <glyph glyph-name="dagger" unicode="&#x2020;" horiz-adv-x="524" 
d="M267 510q5 -76 48 -212q-45 -275 -47 -461h-12q0 97 -13.5 230t-33.5 231q31 105 47 212q-108 -50 -151 -50q-24 0 -41 13.5t-17 41.5q0 27 17 41.5t42 14.5q9 0 21.5 -3t29.5 -8.5t30.5 -10.5t36 -13.5t32.5 -12.5q-49 136 -49 160q0 27 14.5 44.5t42.5 17.5
q54 0 54 -60q0 -15 -10.5 -48t-25 -71t-15.5 -43q116 48 149 48q25 0 42 -14.5t17 -41.5q0 -28 -17 -41.5t-41 -13.5q-41 0 -150 50z" />
    <glyph glyph-name="daggerdbl" unicode="&#x2021;" horiz-adv-x="524" 
d="M209 298q31 105 47 212q-108 -50 -151 -50q-24 0 -41 13.5t-17 41.5q0 27 17 41.5t42 14.5q9 0 21.5 -3t29.5 -8.5t30.5 -10.5t36 -13.5t32.5 -12.5q-49 136 -49 160q0 27 14.5 44.5t42.5 17.5q54 0 54 -60q0 -15 -10.5 -48t-25 -71t-15.5 -43q116 48 149 48
q25 0 42 -14.5t17 -41.5q0 -28 -17 -41.5t-41 -13.5q-41 0 -150 50q5 -76 48 -212q-44 -137 -48 -211q118 49 150 49q24 0 41 -13.5t17 -41.5q0 -27 -17 -41.5t-42 -14.5q-33 0 -149 48q14 -31 32.5 -85.5t18.5 -76.5q0 -25 -13.5 -42t-42.5 -17q-27 0 -41 17.5t-14 43.5
t49 160q-13 -4 -41 -14.5l-44 -16.5t-35 -11t-30 -5q-25 0 -42 14t-17 41q0 28 17 41.5t41 13.5q39 0 151 -49q-15 105 -47 211z" />
    <glyph glyph-name="bullet" unicode="&#x2022;" horiz-adv-x="445" 
d="M365 236q0 -59 -41.5 -101t-101.5 -42q-59 0 -100.5 42t-41.5 101t41.5 101t100.5 42q60 0 101.5 -42t41.5 -101z" />
    <glyph glyph-name="trianglebullet" unicode="&#x2023;" horiz-adv-x="481" 
d="M77 477l373 -200l-373 -211v411z" />
    <glyph glyph-name="ellipsis" unicode="&#x2026;" horiz-adv-x="655" 
d="M48 54q0 27 18 45t44 18t44.5 -18t18.5 -45q0 -26 -18.5 -44t-44.5 -18t-44 18t-18 44zM261 54q0 27 18 45t44 18q27 0 45 -18t18 -45q0 -26 -18 -44t-45 -18q-25 0 -43.5 18t-18.5 44zM481 54q0 27 18.5 45t44.5 18t44.5 -18t18.5 -45q0 -26 -18.5 -44t-44.5 -18
t-44.5 18t-18.5 44z" />
    <glyph glyph-name="perthousand" unicode="&#x2030;" horiz-adv-x="1156" 
d="M580 720l-354 -759h-21l355 759h20zM40 487q0 81 39 138.5t119 57.5q83 0 120 -55.5t37 -139.5q0 -50 -14.5 -92t-51.5 -72.5t-91 -30.5q-82 0 -120 55.5t-38 138.5zM127 488q0 -182 72 -182q70 0 70 182q0 181 -71 181t-71 -181zM433 187q0 81 39 138.5t119 57.5
q83 0 120 -55.5t37 -139.5q0 -50 -14.5 -92t-51.5 -72.5t-91 -30.5q-82 0 -120 55.5t-38 138.5zM520 188q0 -182 72 -182q70 0 70 182q0 181 -71 181t-71 -181zM799 187q0 81 39 138.5t119 57.5q83 0 120 -55.5t37 -139.5q0 -50 -14.5 -92t-51.5 -72.5t-91 -30.5
q-82 0 -120 55.5t-38 138.5zM886 188q0 -182 72 -182q70 0 70 182q0 181 -71 181t-71 -181z" />
    <glyph glyph-name="guilsinglleft" unicode="&#x2039;" horiz-adv-x="314" 
d="M254 409l9 -8q-100 -152 -126 -194l123 -196l-10 -8l-176 165q-26 24 -26 38q0 15 25 39z" />
    <glyph glyph-name="guilsinglright" unicode="&#x203a;" horiz-adv-x="314" 
d="M48 401l9 8l181 -164q25 -24 25 -39q0 -14 -26 -38l-176 -165l-10 8l123 196q-100 152 -126 194z" />
    <glyph glyph-name="fraction" unicode="&#x2044;" horiz-adv-x="140" 
d="M252 720l-354 -759h-21l355 759h20z" />
    <glyph glyph-name="fraction" unicode="&#x2215;" horiz-adv-x="140" 
d="M252 720l-354 -759h-21l355 759h20z" />
    <glyph glyph-name="foursuperior" unicode="&#x2074;" horiz-adv-x="360" 
d="M201 509v90q43 8 78 38h4v-128h61v-15h-61v-55q0 -14 9 -21.5t19.5 -8.5t19.5 -4.5t9 -9.5v-5h-196v5q0 6 9 9.5t19.5 5.5t19.5 10t9 22v52h-185v12q77 95 170 263h99q-90 -128 -244 -260h160z" />
    <glyph glyph-name="Euro" unicode="&#x20ac;" 
d="M436 366h-419v17h49q15 125 94.5 205t201.5 80q76 0 126.5 -32t50.5 -80q0 -25 -15 -40t-35 -15q-31 0 -46 20.5t-15 52.5t15 64q-31 13 -73 13q-85 0 -131 -77t-51 -191h248v-17zM17 301h419v-17h-251q2 -131 52 -203.5t144 -72.5q50 0 80 13q-16 27 -16 63
q0 34 15.5 56.5t45.5 22.5q20 0 35.5 -15t15.5 -40q0 -50 -55 -84t-140 -34q-132 0 -212 79.5t-87 214.5h-46v17z" />
    <glyph glyph-name="afii61352" unicode="&#x2116;" horiz-adv-x="1093" 
d="M252 674q50 -74 164.5 -238t173.5 -252v373q0 40 -18.5 62.5t-40.5 26.5t-40.5 8.5t-18.5 11.5v7h249v-7q0 -8 -17.5 -12.5t-39 -10t-39 -31t-17.5 -69.5v-558l-17 -3q-49 69 -138.5 192.5t-162 226.5t-133.5 195h-2v-482q0 -39 18.5 -61.5t40.5 -26.5t40.5 -8.5
t18.5 -12.5v-5h-246v5q0 7 17 12t38 9.5t38.5 27t17.5 61.5v458q0 33 -16 52t-34.5 22.5t-34.5 7.5t-16 11v8h215zM887 679q80 0 124.5 -43.5t44.5 -106.5t-46 -108.5t-123 -45.5q-80 0 -124 44.5t-44 108.5q0 62 45.5 106.5t122.5 44.5zM887 665q-41 0 -59.5 -40.5
t-18.5 -95.5q0 -140 79 -140q42 0 60.5 39.5t18.5 97.5q0 139 -80 139zM731 306h321v-21h-321v21z" />
    <glyph glyph-name="onethird" horiz-adv-x="775" 
d="M549 720l-354 -759h-21l355 759h20zM209 683v-334q0 -14 9 -21.5t19.5 -8.5t19.5 -4t9 -9v-6h-196v5q0 6 9 9.5t20 5.5t20 10t9 22v251q0 23 -8.5 28.5t-43.5 5.5q-18 0 -19 6l-1 7l149 36zM585 213v-4q60 -2 97 -30t37 -73q0 -50 -46.5 -81.5t-114.5 -31.5
q-63 0 -104 24t-41 61q0 23 19 39t51 22q1 -1 4.5 -4t4.5 -4q-9 -17 -9 -42q0 -35 18 -58.5t52 -23.5q41 0 59.5 27t18.5 66q0 48 -29.5 72.5t-78.5 24.5q-13 0 -36 -3l-2 13q64 15 95 37.5t31 59.5q0 31 -19.5 47.5t-51.5 16.5q-24 0 -42 -9q16 -16 16 -42q0 -17 -11.5 -30
t-30.5 -13q-18 0 -28.5 11t-10.5 26q0 26 32 50t94 24q73 0 106.5 -27t33.5 -59q0 -75 -114 -86z" />
    <glyph glyph-name="twothirds" horiz-adv-x="775" 
d="M598 720l-354 -759h-21l355 759h20zM31 300l-3 9q27 33 70.5 72t72.5 64t51 61.5t22 75.5q0 38 -23 62t-60 24q-29 0 -51 -13q21 -17 21 -45q0 -18 -10.5 -31.5t-30.5 -13.5q-18 0 -28 10.5t-10 25.5q0 28 34 56t98 28q77 0 112 -27t35 -67q0 -41 -38 -77.5t-115 -88.5
q-54 -36 -88 -70h133q56 0 78.5 11t43.5 53q5 9 11 8l5 -1l-40 -126h-290zM613 213v-4q60 -2 97 -30t37 -73q0 -50 -46.5 -81.5t-114.5 -31.5q-63 0 -104 24t-41 61q0 23 19 39t51 22q1 -1 4.5 -4t4.5 -4q-9 -17 -9 -42q0 -35 18 -58.5t52 -23.5q41 0 59.5 27t18.5 66
q0 48 -29.5 72.5t-78.5 24.5q-13 0 -36 -3l-2 13q64 15 95 37.5t31 59.5q0 31 -19.5 47.5t-51.5 16.5q-24 0 -42 -9q16 -16 16 -42q0 -17 -11.5 -30t-30.5 -13q-18 0 -28.5 11t-10.5 26q0 26 32 50t94 24q73 0 106.5 -27t33.5 -59q0 -75 -114 -86z" />
    <glyph glyph-name="onefifth" horiz-adv-x="775" 
d="M557 720l-354 -759h-21l355 759h20zM208 683v-334q0 -14 9 -21.5t19.5 -8.5t19.5 -4t9 -9v-6h-196v5q0 6 9 9.5t20 5.5t20 10t9 22v251q0 23 -8.5 28.5t-43.5 5.5q-18 0 -19 6l-1 7l149 36zM483 363h146q39 0 50.5 5.5t23.5 28.5q6 11 13 10l4 -1l-29 -105q-58 6 -120 6
h-81l-18 -100q47 22 100 22q63 0 105 -31t42 -83q0 -53 -43.5 -87.5t-119.5 -34.5q-62 0 -102 23.5t-40 60.5q0 24 19.5 40.5t51.5 21.5q1 -2 7 -8q-9 -20 -9 -42q0 -82 71 -82q77 0 77 102q0 48 -27 72t-70 24q-29 0 -67 -16q-6 0 -12 3z" />
    <glyph glyph-name="twofifths" horiz-adv-x="775" 
d="M612 720l-354 -759h-21l355 759h20zM28 300l-3 9q27 33 70.5 72t72.5 64t51 61.5t22 75.5q0 38 -23 62t-60 24q-29 0 -51 -13q21 -17 21 -45q0 -18 -10.5 -31.5t-30.5 -13.5q-18 0 -28 10.5t-10 25.5q0 28 34 56t98 28q77 0 112 -27t35 -67q0 -41 -38 -77.5t-115 -88.5
q-54 -36 -88 -70h133q56 0 78.5 11t43.5 53q5 9 11 8l5 -1l-40 -126h-290zM512 363h146q39 0 50.5 5.5t23.5 28.5q6 11 13 10l4 -1l-29 -105q-58 6 -120 6h-81l-18 -100q47 22 100 22q63 0 105 -31t42 -83q0 -53 -43.5 -87.5t-119.5 -34.5q-62 0 -102 23.5t-40 60.5
q0 24 19.5 40.5t51.5 21.5q1 -2 7 -8q-9 -20 -9 -42q0 -82 71 -82q77 0 77 102q0 48 -27 72t-70 24q-29 0 -67 -16q-6 0 -12 3z" />
    <glyph glyph-name="threefifths" horiz-adv-x="775" 
d="M590 720l-354 -759h-21l355 759h20zM207 513v-4q60 -2 97 -30t37 -73q0 -50 -46.5 -81.5t-114.5 -31.5q-63 0 -104 24t-41 61q0 23 19 39t51 22q1 -1 4.5 -4t4.5 -4q-9 -17 -9 -42q0 -35 18 -58.5t52 -23.5q41 0 59.5 27t18.5 66q0 48 -29.5 72.5t-78.5 24.5
q-13 0 -36 -3l-2 13q64 15 95 37.5t31 59.5q0 31 -19.5 47.5t-51.5 16.5q-24 0 -42 -9q16 -16 16 -42q0 -17 -11.5 -30t-30.5 -13q-18 0 -28.5 11t-10.5 26q0 26 32 50t94 24q73 0 106.5 -27t33.5 -59q0 -75 -114 -86zM502 363h146q39 0 50.5 5.5t23.5 28.5q6 11 13 10l4 -1
l-29 -105q-58 6 -120 6h-81l-18 -100q47 22 100 22q63 0 105 -31t42 -83q0 -53 -43.5 -87.5t-119.5 -34.5q-62 0 -102 23.5t-40 60.5q0 24 19.5 40.5t51.5 21.5q1 -2 7 -8q-9 -20 -9 -42q0 -82 71 -82q77 0 77 102q0 48 -27 72t-70 24q-29 0 -67 -16q-6 0 -12 3z" />
    <glyph glyph-name="fourfifths" horiz-adv-x="775" 
d="M614 720l-354 -759h-21l355 759h20zM210 419v90q43 8 78 38h4v-128h61v-15h-61v-55q0 -14 9 -21.5t19.5 -8.5t19.5 -4.5t9 -9.5v-5h-196v5q0 6 9 9.5t19.5 5.5t19.5 10t9 22v52h-185v12q77 95 170 263h99q-90 -128 -244 -260h160zM512 363h146q39 0 50.5 5.5t23.5 28.5
q6 11 13 10l4 -1l-29 -105q-58 6 -120 6h-81l-18 -100q47 22 100 22q63 0 105 -31t42 -83q0 -53 -43.5 -87.5t-119.5 -34.5q-62 0 -102 23.5t-40 60.5q0 24 19.5 40.5t51.5 21.5q1 -2 7 -8q-9 -20 -9 -42q0 -82 71 -82q77 0 77 102q0 48 -27 72t-70 24q-29 0 -67 -16
q-6 0 -12 3z" />
    <glyph glyph-name="onesixth" horiz-adv-x="775" 
d="M561 720l-354 -759h-21l355 759h20zM216 683v-334q0 -14 9 -21.5t19.5 -8.5t19.5 -4t9 -9v-6h-196v5q0 6 9 9.5t20 5.5t20 10t9 22v251q0 23 -8.5 28.5t-43.5 5.5q-18 0 -19 6l-1 7l149 36zM711 122q0 -54 -42 -91.5t-115 -37.5q-78 0 -115.5 38t-37.5 101q0 88 74.5 155
t185.5 97l5 -13q-178 -66 -178 -238q0 -60 15.5 -93t55.5 -33q66 0 66 112q0 39 -20.5 66.5t-65.5 27.5q-2 0 -6.5 -0.5t-6.5 -0.5l-4 12q25 11 62 11q56 0 91.5 -30t35.5 -83z" />
    <glyph glyph-name="fivesixths" horiz-adv-x="775" 
d="M598 720l-354 -759h-21l355 759h20zM97 663h146q39 0 50.5 5.5t23.5 28.5q6 11 13 10l4 -1l-29 -105q-58 6 -120 6h-81l-18 -100q47 22 100 22q63 0 105 -31t42 -83q0 -53 -43.5 -87.5t-119.5 -34.5q-62 0 -102 23.5t-40 60.5q0 24 19.5 40.5t51.5 21.5q1 -2 7 -8
q-9 -19 -9 -42q0 -82 71 -82q77 0 77 102q0 48 -27 72t-70 24q-29 0 -67 -16q-6 0 -12 3zM746 122q0 -54 -42 -91.5t-115 -37.5q-78 0 -115.5 38t-37.5 101q0 88 74.5 155t185.5 97l5 -13q-178 -66 -178 -238q0 -60 15.5 -93t55.5 -33q66 0 66 112q0 39 -20.5 66.5
t-65.5 27.5q-2 0 -6.5 -0.5t-6.5 -0.5l-4 12q25 11 62 11q56 0 91.5 -30t35.5 -83z" />
    <glyph glyph-name="oneeighth" horiz-adv-x="775" 
d="M557 720l-354 -759h-21l355 759h20zM214 683v-334q0 -14 9 -21.5t19.5 -8.5t19.5 -4t9 -9v-6h-196v5q0 6 9 9.5t20 5.5t20 10t9 22v251q0 23 -8.5 28.5t-43.5 5.5q-18 0 -19 6l-1 7l149 36zM559 383q55 0 91.5 -23.5t36.5 -66.5q0 -26 -22.5 -49.5t-55.5 -30.5
q104 -50 104 -112q0 -48 -43.5 -78t-111.5 -30q-65 0 -108 25.5t-43 72.5q0 29 23.5 58t65.5 44q-72 42 -72 91q0 45 37.5 72t97.5 27zM474 99q0 -43 23 -67.5t68 -24.5q33 0 55 17.5t22 44.5q0 17 -8 31.5t-30.5 30.5t-39 25.5t-55.5 29.5q-35 -28 -35 -87zM623 291
q0 34 -18.5 56t-51.5 22q-28 0 -44 -15.5t-16 -44.5q0 -19 16 -36.5t33 -27t51 -25.5q30 28 30 71z" />
    <glyph glyph-name="threeeighths" horiz-adv-x="775" 
d="M584 720l-354 -759h-21l355 759h20zM211 513v-4q60 -2 97 -30t37 -73q0 -50 -46.5 -81.5t-114.5 -31.5q-63 0 -104 24t-41 61q0 23 19 39t51 22q1 -1 4.5 -4t4.5 -4q-9 -17 -9 -42q0 -35 18 -58.5t52 -23.5q41 0 59.5 27t18.5 66q0 48 -29.5 72.5t-78.5 24.5
q-13 0 -36 -3l-2 13q64 15 95 37.5t31 59.5q0 31 -19.5 47.5t-51.5 16.5q-24 0 -42 -9q16 -16 16 -42q0 -17 -11.5 -30t-30.5 -13q-18 0 -28.5 11t-10.5 26q0 26 32 50t94 24q73 0 106.5 -27t33.5 -59q0 -75 -114 -86zM581 383q55 0 91.5 -23.5t36.5 -66.5
q0 -26 -22.5 -49.5t-55.5 -30.5q104 -50 104 -112q0 -48 -43.5 -78t-111.5 -30q-65 0 -108 25.5t-43 72.5q0 29 23.5 58t65.5 44q-72 42 -72 91q0 45 37.5 72t97.5 27zM496 99q0 -43 23 -67.5t68 -24.5q33 0 55 17.5t22 44.5q0 17 -8 31.5t-30.5 30.5t-39 25.5t-55.5 29.5
q-35 -28 -35 -87zM645 291q0 34 -18.5 56t-51.5 22q-28 0 -44 -15.5t-16 -44.5q0 -19 16 -36.5t33 -27t51 -25.5q30 28 30 71z" />
    <glyph glyph-name="fiveeighths" horiz-adv-x="775" 
d="M583 720l-354 -759h-21l355 759h20zM99 663h146q39 0 50.5 5.5t23.5 28.5q6 11 13 10l4 -1l-29 -105q-58 6 -120 6h-81l-18 -100q47 22 100 22q63 0 105 -31t42 -83q0 -53 -43.5 -87.5t-119.5 -34.5q-62 0 -102 23.5t-40 60.5q0 24 19.5 40.5t51.5 21.5q1 -2 7 -8
q-9 -19 -9 -42q0 -82 71 -82q77 0 77 102q0 48 -27 72t-70 24q-29 0 -67 -16q-6 0 -12 3zM590 383q55 0 91.5 -23.5t36.5 -66.5q0 -26 -22.5 -49.5t-55.5 -30.5q104 -50 104 -112q0 -48 -43.5 -78t-111.5 -30q-65 0 -108 25.5t-43 72.5q0 29 23.5 58t65.5 44q-72 42 -72 91
q0 45 37.5 72t97.5 27zM505 99q0 -43 23 -67.5t68 -24.5q33 0 55 17.5t22 44.5q0 17 -8 31.5t-30.5 30.5t-39 25.5t-55.5 29.5q-35 -28 -35 -87zM654 291q0 34 -18.5 56t-51.5 22q-28 0 -44 -15.5t-16 -44.5q0 -19 16 -36.5t33 -27t51 -25.5q30 28 30 71z" />
    <glyph glyph-name="seveneighths" horiz-adv-x="775" 
d="M541 720l-354 -759h-21l355 759h20zM344 676l5 -7q-79 -135 -168 -369h-101q82 142 229 320h-146q-40 0 -59.5 -9t-34.5 -35q-6 -11 -14 -8l-3 1l33 114q77 -7 169 -7h90zM569 383q55 0 91.5 -23.5t36.5 -66.5q0 -26 -22.5 -49.5t-55.5 -30.5q104 -50 104 -112
q0 -48 -43.5 -78t-111.5 -30q-65 0 -108 25.5t-43 72.5q0 29 23.5 58t65.5 44q-72 42 -72 91q0 45 37.5 72t97.5 27zM484 99q0 -43 23 -67.5t68 -24.5q33 0 55 17.5t22 44.5q0 17 -8 31.5t-30.5 30.5t-39 25.5t-55.5 29.5q-35 -28 -35 -87zM633 291q0 34 -18.5 56t-51.5 22
q-28 0 -44 -15.5t-16 -44.5q0 -19 16 -36.5t33 -27t51 -25.5q30 28 30 71z" />
    <glyph glyph-name="zero.numerator" horiz-adv-x="360" 
d="M21 487q0 81 39 138.5t119 57.5q83 0 120 -55.5t37 -139.5q0 -50 -14.5 -92t-51.5 -72.5t-91 -30.5q-82 0 -120 55.5t-38 138.5zM108 488q0 -182 72 -182q70 0 70 182q0 181 -71 181t-71 -181z" />
    <glyph glyph-name="one.numerator" horiz-adv-x="307" 
d="M199 683v-334q0 -14 9 -21.5t19.5 -8.5t19.5 -4t9 -9v-6h-196v5q0 6 9 9.5t20 5.5t20 10t9 22v251q0 23 -8.5 28.5t-43.5 5.5q-18 0 -19 6l-1 7l149 36z" />
    <glyph glyph-name="two.numerator" horiz-adv-x="360" 
d="M8 300l-3 9q27 33 70.5 72t72.5 64t51 61.5t22 75.5q0 38 -23 62t-60 24q-29 0 -51 -13q21 -17 21 -45q0 -18 -10.5 -31.5t-30.5 -13.5q-18 0 -28 10.5t-10 25.5q0 28 34 56t98 28q77 0 112 -27t35 -67q0 -41 -38 -77.5t-115 -88.5q-54 -36 -88 -70h133q56 0 78.5 11
t43.5 53q5 9 11 8l5 -1l-40 -126h-290z" />
    <glyph glyph-name="three.numerator" horiz-adv-x="360" 
d="M191 513v-4q60 -2 97 -30t37 -73q0 -50 -46.5 -81.5t-114.5 -31.5q-63 0 -104 24t-41 61q0 23 19 39t51 22q1 -1 4.5 -4t4.5 -4q-9 -17 -9 -42q0 -35 18 -58.5t52 -23.5q41 0 59.5 27t18.5 66q0 48 -29.5 72.5t-78.5 24.5q-13 0 -36 -3l-2 13q64 15 95 37.5t31 59.5
q0 31 -19.5 47.5t-51.5 16.5q-24 0 -42 -9q16 -16 16 -42q0 -17 -11.5 -30t-30.5 -13q-18 0 -28.5 11t-10.5 26q0 26 32 50t94 24q73 0 106.5 -27t33.5 -59q0 -75 -114 -86z" />
    <glyph glyph-name="four.numerator" horiz-adv-x="360" 
d="M201 419v90q43 8 78 38h4v-128h61v-15h-61v-55q0 -14 9 -21.5t19.5 -8.5t19.5 -4.5t9 -9.5v-5h-196v5q0 6 9 9.5t19.5 5.5t19.5 10t9 22v52h-185v12q77 95 170 263h99q-90 -128 -244 -260h160z" />
    <glyph glyph-name="five.numerator" horiz-adv-x="360" 
d="M86 663h146q39 0 50.5 5.5t23.5 28.5q6 11 13 10l4 -1l-29 -105q-58 6 -120 6h-81l-18 -100q47 22 100 22q63 0 105 -31t42 -83q0 -53 -43.5 -87.5t-119.5 -34.5q-62 0 -102 23.5t-40 60.5q0 24 19.5 40.5t51.5 21.5q1 -2 7 -8q-9 -19 -9 -42q0 -82 71 -82q77 0 77 102
q0 48 -27 72t-70 24q-29 0 -67 -16q-6 0 -12 3z" />
    <glyph glyph-name="six.numerator" horiz-adv-x="360" 
d="M333 422q0 -54 -42 -91.5t-115 -37.5q-78 0 -115.5 38t-37.5 101q0 88 74.5 155t185.5 97l5 -13q-178 -66 -178 -238q0 -60 15.5 -93t55.5 -33q66 0 66 112q0 39 -20.5 66.5t-65.5 27.5q-2 0 -6.5 -0.5t-6.5 -0.5l-4 12q25 11 62 11q56 0 91.5 -30t35.5 -83z" />
    <glyph glyph-name="seven.numerator" horiz-adv-x="329" 
d="M314 676l5 -7q-79 -135 -168 -369h-101q82 142 229 320h-146q-40 0 -59.5 -9t-34.5 -35q-6 -11 -14 -8l-3 1l33 114q77 -7 169 -7h90z" />
    <glyph glyph-name="eight.numerator" horiz-adv-x="360" 
d="M182 683q55 0 91.5 -23.5t36.5 -66.5q0 -26 -22.5 -49.5t-55.5 -30.5q104 -50 104 -112q0 -48 -43.5 -78t-111.5 -30q-65 0 -108 25.5t-43 72.5q0 29 23.5 58t65.5 44q-72 42 -72 91q0 45 37.5 72t97.5 27zM97 399q0 -43 23 -67.5t68 -24.5q33 0 55 17.5t22 44.5
q0 17 -8 31.5t-30.5 30.5t-39 25.5t-55.5 29.5q-35 -28 -35 -87zM246 591q0 34 -18.5 56t-51.5 22q-28 0 -44 -15.5t-16 -44.5q0 -19 16 -36.5t33 -27t51 -25.5q30 28 30 71z" />
    <glyph glyph-name="nine.numerator" horiz-adv-x="360" 
d="M24 556q0 55 42 92t115 37q77 0 115 -39t38 -100q0 -87 -72.5 -153t-188.5 -98l-4 11q88 35 133.5 97t45.5 142q0 127 -73 127q-65 0 -65 -114q0 -41 21 -67.5t66 -26.5q8 0 13 1l3 -11q-30 -12 -63 -12q-55 0 -90.5 30.5t-35.5 83.5z" />
    <glyph glyph-name="zero.denominator" horiz-adv-x="360" 
d="M21 187q0 81 39 138.5t119 57.5q83 0 120 -55.5t37 -139.5q0 -50 -14.5 -92t-51.5 -72.5t-91 -30.5q-82 0 -120 55.5t-38 138.5zM108 188q0 -182 72 -182q70 0 70 182q0 181 -71 181t-71 -181z" />
    <glyph glyph-name="one.denominator" horiz-adv-x="307" 
d="M199 383v-334q0 -14 9 -21.5t19.5 -8.5t19.5 -4t9 -9v-6h-196v5q0 6 9 9.5t20 5.5t20 10t9 22v251q0 23 -8.5 28.5t-43.5 5.5q-18 0 -19 6l-1 7l149 36z" />
    <glyph glyph-name="two.denominator" horiz-adv-x="360" 
d="M8 0l-3 9q27 33 70.5 72t72.5 64t51 61.5t22 75.5q0 38 -23 62t-60 24q-29 0 -51 -13q21 -17 21 -45q0 -18 -10.5 -31.5t-30.5 -13.5q-18 0 -28 10.5t-10 25.5q0 28 34 56t98 28q77 0 112 -27t35 -67q0 -41 -38 -77.5t-115 -88.5q-54 -36 -88 -70h133q56 0 78.5 11
t43.5 53q5 9 11 8l5 -1l-40 -126h-290z" />
    <glyph glyph-name="three.denominator" horiz-adv-x="360" 
d="M191 213v-4q60 -2 97 -30t37 -73q0 -50 -46.5 -81.5t-114.5 -31.5q-63 0 -104 24t-41 61q0 23 19 39t51 22q1 -1 4.5 -4t4.5 -4q-9 -17 -9 -42q0 -35 18 -58.5t52 -23.5q41 0 59.5 27t18.5 66q0 48 -29.5 72.5t-78.5 24.5q-13 0 -36 -3l-2 13q64 15 95 37.5t31 59.5
q0 31 -19.5 47.5t-51.5 16.5q-24 0 -42 -9q16 -16 16 -42q0 -17 -11.5 -30t-30.5 -13q-18 0 -28.5 11t-10.5 26q0 26 32 50t94 24q73 0 106.5 -27t33.5 -59q0 -75 -114 -86z" />
    <glyph glyph-name="four.denominator" horiz-adv-x="360" 
d="M201 119v90q43 8 78 38h4v-128h61v-15h-61v-55q0 -14 9 -21.5t19.5 -8.5t19.5 -4.5t9 -9.5v-5h-196v5q0 6 9 9.5t19.5 5.5t19.5 10t9 22v52h-185v12q77 95 170 263h99q-90 -128 -244 -260h160z" />
    <glyph glyph-name="five.denominator" horiz-adv-x="360" 
d="M86 363h146q39 0 50.5 5.5t23.5 28.5q6 11 13 10l4 -1l-29 -105q-58 6 -120 6h-81l-18 -100q47 22 100 22q63 0 105 -31t42 -83q0 -53 -43.5 -87.5t-119.5 -34.5q-62 0 -102 23.5t-40 60.5q0 24 19.5 40.5t51.5 21.5q1 -2 7 -8q-9 -19 -9 -42q0 -82 71 -82q77 0 77 102
q0 48 -27 72t-70 24q-29 0 -67 -16q-6 0 -12 3z" />
    <glyph glyph-name="six.denominator" horiz-adv-x="360" 
d="M333 122q0 -54 -42 -91.5t-115 -37.5q-78 0 -115.5 38t-37.5 101q0 88 74.5 155t185.5 97l5 -13q-178 -66 -178 -238q0 -60 15.5 -93t55.5 -33q66 0 66 112q0 39 -20.5 66.5t-65.5 27.5q-2 0 -6.5 -0.5t-6.5 -0.5l-4 12q25 11 62 11q56 0 91.5 -30t35.5 -83z" />
    <glyph glyph-name="seven.denominator" horiz-adv-x="329" 
d="M312 376l5 -7q-79 -135 -168 -369h-101q82 142 229 320h-146q-40 0 -59.5 -9t-34.5 -35q-6 -11 -14 -8l-3 1l33 114q77 -7 169 -7h90z" />
    <glyph glyph-name="eight.denominator" horiz-adv-x="360" 
d="M182 383q55 0 91.5 -23.5t36.5 -66.5q0 -26 -22.5 -49.5t-55.5 -30.5q104 -50 104 -112q0 -48 -43.5 -78t-111.5 -30q-65 0 -108 25.5t-43 72.5q0 29 23.5 58t65.5 44q-72 42 -72 91q0 45 37.5 72t97.5 27zM97 99q0 -43 23 -67.5t68 -24.5q33 0 55 17.5t22 44.5
q0 17 -8 31.5t-30.5 30.5t-39 25.5t-55.5 29.5q-35 -28 -35 -87zM246 291q0 34 -18.5 56t-51.5 22q-28 0 -44 -15.5t-16 -44.5q0 -19 16 -36.5t33 -27t51 -25.5q30 28 30 71z" />
    <glyph glyph-name="nine.denominator" horiz-adv-x="360" 
d="M24 256q0 55 42 92t115 37q77 0 115 -39t38 -100q0 -87 -72.5 -153t-188.5 -98l-4 11q88 35 133.5 97t45.5 142q0 127 -73 127q-65 0 -65 -114q0 -41 21 -67.5t66 -26.5q8 0 13 1l3 -11q-30 -12 -63 -12q-55 0 -90.5 30.5t-35.5 83.5z" />
    <glyph glyph-name="afii10064" horiz-adv-x="553" 
d="M276 1q120 0 120 213q0 66 -30.5 118.5t-105.5 93.5q-46 -16 -77 -73t-31 -133q0 -219 124 -219zM281 736q75 0 126 -30.5t51 -74.5q0 -23 -13.5 -39t-33.5 -16q-27 0 -42.5 18.5t-15.5 44.5q0 34 21 61q-29 17 -74 17t-77.5 -23.5t-32.5 -63.5q0 -29 33.5 -58.5
t81 -59.5t95 -66.5t81 -94t33.5 -126.5q0 -96 -64 -166.5t-178 -70.5q-113 0 -177.5 65.5t-64.5 157.5q0 88 55.5 153.5t153.5 74.5q-73 38 -109.5 74.5t-36.5 86.5q0 56 49 96t139 40z" />
    </font>
</defs>
</svg>
